#N canvas 15 116 808 731 10;
#X obj 280 589 *~;
#X obj 310 589 *~;
#X obj 340 589 *~;
#X obj 520 306 vsl 25 100 0 1 0 0 empty empty empty 0 -9 0 10 #fcfcfc
#000000 #000000 0 0;
#X floatatom 156 342 5 0 0 1 Q - - 0;
#X obj 560 306 vsl 25 100 0 1 0 0 empty empty empty 0 -9 0 10 #fcfcfc
#000000 #000000 0 0;
#X obj 600 306 vsl 25 100 0 1 0 0 empty empty empty 0 -9 0 10 #fcfcfc
#000000 #000000 0 0;
#X floatatom 520 414 5 0 0 0 - - - 0;
#X floatatom 560 414 5 0 0 0 - - - 0;
#X floatatom 600 414 5 0 0 0 - - - 0;
#X obj 87 304 *~ 1;
#X obj 333 250 unpack s f f f f f f;
#X symbolatom 307 251 3 0 0 0 current_vowel - - 0;
#X msg 374 103 a 730 1090 2440 1 0.5 0.33;
#X obj 156 294 loadbang;
#X floatatom 285 305 5 0 0 0 - - - 0;
#X floatatom 348 305 5 0 0 0 - - - 0;
#X floatatom 411 305 5 0 0 0 - - - 0;
#X msg 374 125 e 441 1500 2576 1 0.5 0.2;
#X msg 374 213 ou 300 700 2240 1 0.3 0;
#X msg 374 147 i 270 2290 3010 0.7 0.05 0.3;
#X msg 374 191 u 288 1777 2089 1 0.25 0.1;
#X msg 374 169 o 420 775 2410 1 0.33 0.25;
#X obj 374 81 loadbang;
#X obj 106 474 vcf~;
#X obj 143 474 vcf~;
#X obj 178 474 vcf~;
#X obj 285 373 line~;
#X obj 285 350 pack f f;
#X obj 348 373 line~;
#X obj 348 350 pack f f;
#X obj 411 373 line~;
#X obj 411 350 pack f f;
#X floatatom 473 308 5 0 0 0 - - - 0;
#X obj 512 481 line~;
#X obj 512 458 pack f f;
#X obj 575 481 line~;
#X obj 575 458 pack f f;
#X obj 638 481 line~;
#X obj 638 458 pack f f;
#X floatatom 709 401 5 0 0 0 - - - 0;
#X floatatom 261 475 5 0 0 1 Q - - 0;
#X floatatom 244 447 5 0 0 1 Q - - 0;
#X obj 321 440 loadbang;
#X obj 120 42 inlet~;
#X obj 310 657 outlet~;
#X obj 322 42 inlet vowel;
#X obj 686 48 inlet interp;
#X msg 192 319 50;
#X msg 356 469 80;
#X msg 156 318 30;
#X msg 321 464 30;
#X obj 310 634 *~ 5;
#X connect 0 0 52 0;
#X connect 1 0 52 0;
#X connect 2 0 52 0;
#X connect 3 0 7 0;
#X connect 4 0 24 2;
#X connect 5 0 8 0;
#X connect 6 0 9 0;
#X connect 7 0 35 0;
#X connect 8 0 37 0;
#X connect 9 0 39 0;
#X connect 10 0 24 0;
#X connect 10 0 25 0;
#X connect 10 0 26 0;
#X connect 11 0 12 0;
#X connect 11 1 15 0;
#X connect 11 2 16 0;
#X connect 11 3 17 0;
#X connect 11 4 3 0;
#X connect 11 5 5 0;
#X connect 11 6 6 0;
#X connect 13 0 11 0;
#X connect 14 0 50 0;
#X connect 15 0 28 0;
#X connect 16 0 30 0;
#X connect 17 0 32 0;
#X connect 18 0 11 0;
#X connect 19 0 11 0;
#X connect 20 0 11 0;
#X connect 21 0 11 0;
#X connect 22 0 11 0;
#X connect 23 0 13 0;
#X connect 24 0 0 0;
#X connect 25 0 1 0;
#X connect 26 0 2 0;
#X connect 27 0 24 1;
#X connect 28 0 27 0;
#X connect 29 0 25 1;
#X connect 30 0 29 0;
#X connect 31 0 26 1;
#X connect 32 0 31 0;
#X connect 33 0 28 1;
#X connect 33 0 30 1;
#X connect 33 0 32 1;
#X connect 34 0 0 1;
#X connect 35 0 34 0;
#X connect 36 0 1 1;
#X connect 37 0 36 0;
#X connect 38 0 2 1;
#X connect 39 0 38 0;
#X connect 40 0 35 1;
#X connect 40 0 37 1;
#X connect 40 0 39 1;
#X connect 41 0 26 2;
#X connect 42 0 25 2;
#X connect 43 0 51 0;
#X connect 44 0 10 0;
#X connect 46 0 11 0;
#X connect 47 0 40 0;
#X connect 47 0 33 0;
#X connect 50 0 4 0;
#X connect 51 0 42 0;
#X connect 51 0 41 0;
#X connect 52 0 45 0;
