#N canvas 325 255 330 270 10;
#X obj 117 154 spigot;
#X obj 105 115 f;
#X obj 123 91 t b b;
#X msg 150 115 1;
#X msg 179 115 0;
#X obj 184 52 sel 1 0;
#X obj 76 21 receive \$1;
#X obj 184 22 receive \$2;
#X obj 117 235 send \$3;
#X connect 0 0 8 0;
#X connect 1 0 0 0;
#X connect 2 0 1 0;
#X connect 2 1 3 0;
#X connect 3 0 0 1;
#X connect 4 0 0 1;
#X connect 5 0 2 0;
#X connect 5 1 4 0;
#X connect 6 0 1 0;
#X connect 7 0 5 0;
