#N canvas 177 179 793 527 10;
#N canvas 755 105 568 527 control 0;
#X obj 201 137 route speed rspeed;
#N canvas 0 25 538 404 pitch-computer 0;
#X obj 95 281 +;
#X obj 192 144 list store;
#X obj 280 99 t a a;
#X obj 312 122 list length;
#X obj 273 145 random;
#X obj 192 170 list split;
#X obj 125 243 +;
#X obj 100 167 random;
#X obj 140 144 * 1000;
#X obj 100 191 / 1000;
#X obj 69 167 f;
#X obj 69 63 t b b b b;
#X obj 225 193 list split 1;
#X msg 95 305 pitch \$1;
#X obj 183 52 route pitch rpitch chord;
#X obj 95 330 outlet;
#X obj 415 286 outlet;
#X obj 69 23 inlet trig;
#X obj 183 21 inlet msgs;
#X connect 0 0 13 0;
#X connect 1 0 5 0;
#X connect 2 0 1 1;
#X connect 2 1 3 0;
#X connect 3 0 4 1;
#X connect 4 0 5 1;
#X connect 5 1 12 0;
#X connect 6 0 0 1;
#X connect 7 0 9 0;
#X connect 8 0 7 1;
#X connect 9 0 6 0;
#X connect 10 0 0 0;
#X connect 11 0 10 0;
#X connect 11 1 7 0;
#X connect 11 2 1 0;
#X connect 11 3 4 0;
#X connect 12 0 6 1;
#X connect 13 0 15 0;
#X connect 14 0 10 1;
#X connect 14 1 8 0;
#X connect 14 2 2 0;
#X connect 14 3 16 0;
#X connect 17 0 11 0;
#X connect 18 0 14 0;
#X restore 221 253 pd pitch-computer;
#N canvas 0 25 442 347 rvs-computer 0;
#X obj 178 70 route rvs rrvs;
#X obj 250 219 random 2;
#X obj 200 221 f;
#X obj 250 196 spigot;
#X obj 200 196 spigot;
#X obj 225 116 == 0;
#X obj 225 92 t f f;
#X obj 36 89 t b b;
#X msg 211 252 rvs \$1;
#X obj 211 276 outlet;
#X obj 37 26 inlet trig;
#X obj 178 27 inlet msgs;
#X obj 361 262 outlet;
#X connect 0 0 2 1;
#X connect 0 1 6 0;
#X connect 0 2 12 0;
#X connect 1 0 8 0;
#X connect 2 0 8 0;
#X connect 3 0 1 0;
#X connect 4 0 2 0;
#X connect 5 0 4 1;
#X connect 6 0 5 0;
#X connect 6 1 3 1;
#X connect 7 0 4 0;
#X connect 7 1 3 0;
#X connect 8 0 9 0;
#X connect 10 0 7 0;
#X connect 11 0 0 0;
#X restore 195 306 pd rvs-computer;
#X obj 63 319 f;
#X obj 104 340 + 1;
#X obj 63 342 % 4;
#X obj 63 365 t f f;
#N canvas 0 25 557 528 beg-end-computer 0;
#X msg 113 337 beg \$1;
#X msg 163 337 end \$1;
#X obj 113 79 route beg len;
#X obj 113 377 outlet;
#X obj 398 377 outlet;
#X obj 113 48 inlet msgs;
#X obj 113 154 *;
#X obj 177 154 *;
#X obj 113 182 t f f;
#X obj 154 225 +;
#X obj 177 182 t b f;
#X obj 162 254 min;
#X obj 259 100 t b f f f;
#X obj 257 42 inlet;
#X connect 0 0 3 0;
#X connect 1 0 3 0;
#X connect 2 0 6 0;
#X connect 2 1 7 0;
#X connect 2 2 4 0;
#X connect 5 0 2 0;
#X connect 6 0 8 0;
#X connect 7 0 10 0;
#X connect 8 0 0 0;
#X connect 8 1 9 0;
#X connect 9 0 11 0;
#X connect 10 0 9 0;
#X connect 10 1 9 1;
#X connect 11 0 1 0;
#X connect 12 0 6 0;
#X connect 12 0 7 0;
#X connect 12 1 6 1;
#X connect 12 2 7 1;
#X connect 12 3 11 1;
#X connect 13 0 12 0;
#X restore 252 352 pd beg-end-computer;
#X obj 161 228 t b b b b;
#X msg 54 165 stop;
#X obj 161 204 spigot;
#X obj 153 137 t f f;
#X obj 54 145 delay 5;
#X obj 161 181 jl/rmetro 25 25;
#X obj 77 24 inlet;
#X obj 195 475 outlet;
#X obj 363 25 inlet buffer-duration;
#X msg 63 387 \$1 bang;
#X obj 195 435 list prepend all;
#X obj 195 455 list trim;
#X obj 77 44 route float;
#X obj 152 44 route voices;
#X obj 77 65 t f f;
#X obj 54 125 sel 0;
#X connect 0 0 13 1;
#X connect 0 1 13 2;
#X connect 0 2 1 1;
#X connect 1 0 18 0;
#X connect 1 1 2 1;
#X connect 2 0 18 0;
#X connect 2 1 7 0;
#X connect 3 0 5 0;
#X connect 4 0 3 1;
#X connect 5 0 6 0;
#X connect 6 0 17 0;
#X connect 6 1 4 0;
#X connect 7 0 18 0;
#X connect 7 1 18 0;
#X connect 8 0 3 0;
#X connect 8 2 2 0;
#X connect 8 3 1 0;
#X connect 9 0 18 0;
#X connect 10 0 8 0;
#X connect 11 0 13 0;
#X connect 11 1 10 1;
#X connect 12 0 9 0;
#X connect 13 0 10 0;
#X connect 14 0 20 0;
#X connect 16 0 7 1;
#X connect 17 0 15 0;
#X connect 18 0 19 0;
#X connect 19 0 15 0;
#X connect 20 0 22 0;
#X connect 20 1 21 0;
#X connect 21 0 5 1;
#X connect 21 1 0 0;
#X connect 22 0 23 0;
#X connect 22 1 11 0;
#X connect 23 0 12 0;
#X restore 122 373 pd control;
#X msg 167 233 speed \$1;
#X floatatom 168 212 5 0 0 0 - - - 0;
#X floatatom 228 213 5 0 0 0 - - - 0;
#X msg 227 234 rspeed \$1;
#X floatatom 297 213 5 0 0 0 - - - 0;
#X floatatom 357 214 5 0 0 0 - - - 0;
#X msg 296 234 pitch \$1;
#X msg 356 235 rpitch \$1;
#X floatatom 424 214 5 0 0 0 - - - 0;
#X floatatom 480 214 5 0 0 0 - - - 0;
#X msg 423 235 fadi \$1;
#X msg 479 235 fado \$1;
#X msg 443 292 rvs \$1;
#X obj 444 271 tgl 15 0 empty empty empty 17 7 0 10 #fcfcfc #000000
#000000 0 1;
#X obj 445 313 tgl 15 0 empty empty empty 17 7 0 10 #fcfcfc #000000
#000000 0 1;
#X msg 444 334 rrvs \$1;
#X obj 649 118 soundfiler;
#X obj 649 76 openpanel;
#X obj 649 56 bng 15 250 50 0 empty empty empty 17 7 0 10 #fcfcfc #000000
#000000;
#X obj 692 239 /;
#X msg 712 215 \$1;
#X obj 693 260 * 1000;
#X msg 649 97 read -resize \$1 ggg;
#X msg 317 141 beg \$1;
#X msg 366 141 len \$1;
#X obj 318 99 hsl 128 15 0 1 0 0 empty empty empty -2 -8 0 10 #fcfcfc
#000000 #000000 0 0;
#X obj 456 99 hsl 128 15 0 1 0 0 empty empty empty -2 -8 0 10 #fcfcfc
#000000 #000000 0 0;
#X obj 62 181 tgl 50 0 empty empty empty 17 7 0 10 #fcfcfc #000000
#000000 0 1;
#X obj 118 453 dac~ 1 2;
#X obj 595 162 table ggg;
#X msg 406 468 set ggg;
#X obj 348 54 r gpos;
#X obj 122 400 clone gbend~-unit 12;
#N canvas 121 146 512 417 translate-durations 0;
#X obj 158 259 t b f;
#X obj 146 289 *;
#X msg 209 294 set \$1;
#X obj 335 179 * 44.1;
#X obj 209 314 s \$0-table;
#X obj 158 237 expr size("$s1");
#X obj 209 274 route symbol;
#X obj 158 63 symbol \$2;
#X obj 158 43 unpack s f;
#X obj 347 136 * 0.001;
#X obj 347 156 t b f;
#X obj 308 106 moses 1;
#X obj 191 106 list fromsymbol;
#X obj 158 82 t a a;
#X msg 191 144 0;
#X obj 248 144 t b;
#X msg 248 163 1;
#X obj 158 210 spigot;
#X obj 191 125 route bang;
#X obj 94 82 loadbang;
#X connect 0 0 1 0;
#X connect 0 1 1 1;
#X connect 2 0 4 0;
#X connect 5 0 0 0;
#X connect 6 0 2 0;
#X connect 7 0 13 0;
#X connect 8 0 7 0;
#X connect 8 1 11 0;
#X connect 9 0 10 0;
#X connect 10 0 3 0;
#X connect 10 1 3 1;
#X connect 11 1 9 0;
#X connect 12 0 18 0;
#X connect 13 0 17 0;
#X connect 13 1 12 0;
#X connect 14 0 17 1;
#X connect 15 0 16 0;
#X connect 16 0 17 1;
#X connect 17 0 5 0;
#X connect 17 0 6 0;
#X connect 18 0 14 0;
#X connect 18 1 15 0;
#X connect 19 0 7 0;
#X restore 520 416 pd translate-durations;
#X connect 0 0 33 0;
#X connect 1 0 0 0;
#X connect 2 0 1 0;
#X connect 3 0 4 0;
#X connect 4 0 0 0;
#X connect 5 0 7 0;
#X connect 6 0 8 0;
#X connect 7 0 0 0;
#X connect 8 0 0 0;
#X connect 9 0 11 0;
#X connect 10 0 12 0;
#X connect 11 0 0 0;
#X connect 12 0 0 0;
#X connect 13 0 0 0;
#X connect 14 0 13 0;
#X connect 15 0 16 0;
#X connect 16 0 0 0;
#X connect 17 0 20 0;
#X connect 17 1 21 0;
#X connect 18 0 23 0;
#X connect 19 0 18 0;
#X connect 20 0 22 0;
#X connect 21 0 20 1;
#X connect 22 0 0 1;
#X connect 23 0 17 0;
#X connect 24 0 0 0;
#X connect 25 0 0 0;
#X connect 26 0 24 0;
#X connect 27 0 25 0;
#X connect 28 0 0 0;
#X connect 31 0 0 0;
#X connect 32 0 26 0;
#X connect 33 0 29 0;
#X connect 33 0 29 1;
