#N canvas 78 108 787 400 10;
#X obj 50 286 project/module-preset \$1 \$2 \$0;
#N canvas 520 175 632 610 preset 0;
#X text 106 27 <[get/set/delete]> <preset_system_name> <preset_name>
;
#X text 430 27 <param_name>;
#N canvas 615 107 825 704 preset-get-set-delete 0;
#X obj 330 391 sel -1;
#X obj 268 271 t a a;
#X obj 166 551 spigot;
#X obj 253 531 == 0;
#X obj 226 511 t f f;
#X obj 220 551 spigot;
#X obj 166 511 t a a;
#X obj 363 411 t b f;
#X msg 330 411 1;
#X msg 338 434 0;
#X obj 26 209 sel -1;
#X obj 74 29 inlet;
#X obj 224 184 sel -1;
#X obj 93 658 outlet get;
#X obj 502 654 outlet getvalues;
#X obj 592 26 inlet getvalues;
#X obj 208 354 t b a;
#X obj 166 452 list prepend;
#X obj 166 394 t b b;
#X obj 166 432 list;
#X obj 330 455 t f;
#X obj 74 56 route get set delete;
#X obj 59 229 text get \$1-presets;
#X obj 257 204 text delete \$1-presets;
#X obj 236 579 text set \$1-presets;
#X obj 206 600 text insert \$1-presets 0;
#X obj 330 351 list split 2;
#X obj 330 371 text search \$1-presets 0 1;
#X obj 224 144 list split 2;
#X obj 26 169 list split 2;
#X obj 59 249 list split 2;
#X obj 224 164 text search \$1-presets 0 1;
#X obj 26 189 text search \$1-presets 0 1;
#X connect 0 0 8 0;
#X connect 0 1 7 0;
#X connect 1 0 16 0;
#X connect 1 1 26 0;
#X connect 2 0 25 0;
#X connect 3 0 5 1;
#X connect 4 0 2 1;
#X connect 4 1 3 0;
#X connect 5 0 24 0;
#X connect 6 0 2 0;
#X connect 6 1 5 0;
#X connect 7 0 9 0;
#X connect 7 1 24 1;
#X connect 8 0 20 0;
#X connect 9 0 20 0;
#X connect 10 1 22 0;
#X connect 11 0 21 0;
#X connect 12 1 23 0;
#X connect 15 0 19 1;
#X connect 16 0 18 0;
#X connect 16 1 17 1;
#X connect 17 0 6 0;
#X connect 18 0 19 0;
#X connect 18 1 14 0;
#X connect 19 0 17 0;
#X connect 20 0 4 0;
#X connect 21 0 29 0;
#X connect 21 1 1 0;
#X connect 21 2 28 0;
#X connect 22 0 30 0;
#X connect 26 0 27 0;
#X connect 27 0 0 0;
#X connect 28 0 31 0;
#X connect 29 0 32 0;
#X connect 30 1 13 0;
#X connect 31 0 12 0;
#X connect 32 0 10 0;
#X restore 88 233 pd preset-get-set-delete;
#X obj 88 96 r \$0-preset-cmd;
#X obj 229 253 s \$0-request-serialization;
#X obj 229 211 r \$0-serialized;
#X obj 88 254 s \$0-to-deserialize;
#X connect 2 0 6 0;
#X connect 2 1 4 0;
#X connect 3 0 2 0;
#X connect 5 0 2 1;
#X restore 50 306 pd preset;
#X msg 290 83 serialize;
#X obj 452 135 route serialize;
#X obj 312 232 list;
#X obj 277 179 t b b b;
#X obj 452 175 s \$0-serialized;
#X msg 267 205 dump;
#X msg 339 205 clear;
#X obj 271 231 t a;
#X obj 312 257 list prepend deserialize;
#X obj 312 277 list trim;
#X obj 290 63 r \$0-request-serialization;
#X obj 297 155 t b a;
#X obj 297 135 r \$0-to-deserialize;
#X obj 539 155 s \$1-connections-out;
#X obj 51 51 cnv 15 180 203 empty empty \$1 4 10 0 12 #ffffff #404040
0;
#X obj 214 55 bng 14 250 50 0 \$0-clear empty clear -32 7 0 10 #fcfcfc
#000000 #000000;
#X obj 295 303 s \$0-i;
#X obj 452 115 r \$0-o;
#X obj 277 107 s \$0-i;
#X obj 277 23 r \$0-clear;
#X msg 277 43 clear;
#X obj 50 73 jl/routerctrl-ui \$0 10 2 2;
#X connect 2 0 20 0;
#X connect 3 0 6 0;
#X connect 3 1 15 0;
#X connect 4 0 10 0;
#X connect 5 0 7 0;
#X connect 5 1 4 0;
#X connect 5 2 8 0;
#X connect 7 0 9 0;
#X connect 8 0 9 0;
#X connect 9 0 18 0;
#X connect 10 0 11 0;
#X connect 11 0 18 0;
#X connect 12 0 2 0;
#X connect 13 0 5 0;
#X connect 13 1 4 1;
#X connect 14 0 13 0;
#X connect 19 0 3 0;
#X connect 21 0 22 0;
#X connect 22 0 20 0;
#X coords 0 -1 1 1 182 205 2 50 50;
