#N canvas 0 25 1388 774 10;
#N canvas 151 103 902 620 ctlbus-definitions-and-routing 0;
#X obj 79 43 project/ctlbus-from-receive zephyr fc50-osc-page0-switch1
1;
#X obj 79 62 project/ctlbus-from-receive zephyr fc50-osc-page0-switch2
2;
#X obj 79 81 project/ctlbus-from-receive zephyr fc50-osc-page0-switch3
3;
#X obj 79 100 project/ctlbus-from-receive zephyr fc50-osc-page0-switch4
4;
#X obj 79 119 project/ctlbus-from-receive zephyr fc50-osc-page0-switch5
5;
#X obj 79 143 project/ctlbus-from-receive zephyr fc50-osc-page1-switch1
6;
#X obj 79 162 project/ctlbus-from-receive zephyr fc50-osc-page1-switch2
7;
#X obj 79 181 project/ctlbus-from-receive zephyr fc50-osc-page1-switch3
8;
#X obj 79 200 project/ctlbus-from-receive zephyr fc50-osc-page1-switch4
9;
#X obj 79 219 project/ctlbus-from-receive zephyr fc50-osc-page1-switch5
10;
#X obj 79 243 project/ctlbus-from-receive zephyr fc50-osc-footsensor
11;
#X obj 73 274 project/ctlbus-from-receive zephyr A1-footpress 16;
#X obj 73 293 project/ctlbus-from-receive zephyr A2-footpress 17;
#X obj 73 312 project/ctlbus-from-receive zephyr A3-footpress 18;
#X obj 73 331 project/ctlbus-from-receive zephyr A4-footpress 19;
#X obj 73 350 project/ctlbus-from-receive zephyr A5-footpress 20;
#X obj 547 137 project/ctlbus-from-receive zephyr A1-elevation 21;
#X obj 547 156 project/ctlbus-from-receive zephyr A2-elevation 22;
#X obj 547 175 project/ctlbus-from-receive zephyr A3-elevation 23;
#X obj 547 194 project/ctlbus-from-receive zephyr A4-elevation 24;
#X obj 547 213 project/ctlbus-from-receive zephyr A5-elevation 25;
#X obj 547 241 project/ctlbus-from-receive zephyr A1-azimuth 26;
#X obj 547 260 project/ctlbus-from-receive zephyr A2-azimuth 27;
#X obj 528 357 project/ctlbus-from-receive zephyr A1-position 31;
#X obj 528 376 project/ctlbus-from-receive zephyr A2-position 32;
#X obj 528 395 project/ctlbus-from-receive zephyr A3-position 33;
#X obj 528 414 project/ctlbus-from-receive zephyr A4-position 34;
#X obj 528 433 project/ctlbus-from-receive zephyr A5-position 35;
#X obj 528 461 project/ctlbus-from-receive zephyr A1-pressure 36;
#X obj 528 480 project/ctlbus-from-receive zephyr A2-pressure 37;
#X obj 528 499 project/ctlbus-from-receive zephyr A3-pressure 38;
#X obj 528 518 project/ctlbus-from-receive zephyr A4-pressure 39;
#X obj 528 537 project/ctlbus-from-receive zephyr A5-pressure 40;
#X obj 547 279 project/ctlbus-from-receive zephyr A3-azimuth 28;
#X obj 547 298 project/ctlbus-from-receive zephyr A4-azimuth 29;
#X obj 547 317 project/ctlbus-from-receive zephyr A5-azimuth 30;
#X obj 450 20 bng 15 250 50 0 empty empty empty 17 7 0 10 #fcfcfc #000000
#000000;
#X obj 481 559 bng 15 250 50 0 empty empty empty 17 7 0 10 #fcfcfc
#000000 #000000;
#X text 376 470 pedal board;
#X text 490 170 guitar;
#X obj 478 44 project/ctlbus-from-receive zephyr usb-guitar-accel-elevation
12, f 64;
#X obj 478 63 project/ctlbus-from-receive zephyr usb-guitar-accel-azimuth
13, f 62;
#X obj 478 101 project/ctlbus-from-receive zephyr usb-guitar-ribbon-pressure
15, f 64;
#X obj 478 82 project/ctlbus-from-receive zephyr usb-guitar-ribbon-position
14, f 64;
#X connect 36 0 37 0;
#X restore 261 606 pd ctlbus-definitions-and-routing;
#X obj 261 159 ./devices/control-input-module;
#X obj 256 509 cnv 15 160 45 empty empty project 4 11 0 14 #e0e0e0
#404040 0;
#X msg 261 532 open;
#X msg 295 532 save;
#X msg 329 532 saveas;
#N canvas 294 333 672 327 set-toggles-behaviour 0;
#X obj 215 273 outlet;
#X msg 333 132 mutexgroups A 1 1 2 2 3;
#X obj 268 67 t b;
#X obj 163 8 inlet;
#X obj 49 117 list prepend simulate;
#X obj 49 137 list trim;
#X obj 166 31 t b b;
#X msg 338 194 togglemodes B 1 1 1 1 1;
#X msg 345 215 mutexgroups B 1 1 1 1 1;
#X msg 336 153 filterzeros A 0 0 0 0 0;
#X msg 344 238 filterzeros B 1 1 1 1 1;
#X msg 49 96 A 0 \, A 1 \, 1 0 \, 1 1 \, A 0 \, A 1;
#X msg 333 111 togglemodes A 1 1 1 1 1;
#X connect 1 0 0 0;
#X connect 2 0 12 0;
#X connect 2 0 1 0;
#X connect 2 0 7 0;
#X connect 2 0 8 0;
#X connect 2 0 9 0;
#X connect 2 0 10 0;
#X connect 3 0 6 0;
#X connect 4 0 5 0;
#X connect 5 0 0 0;
#X connect 6 0 11 0;
#X connect 6 1 2 0;
#X connect 7 0 0 0;
#X connect 8 0 0 0;
#X connect 9 0 0 0;
#X connect 10 0 0 0;
#X connect 11 0 4 0;
#X connect 12 0 0 0;
#X restore 261 134 pd set-toggles-behaviour;
#X obj 261 90 bng 15 250 50 0 empty empty empty 17 7 0 10 #fcfcfc #000000
#000000;
#X obj 261 71 loadbang;
#X obj 327 105 list trim;
#X msg 327 47 open \$1;
#X floatatom 327 28 5 0 0 0 - - - 0;
#X msg 380 47 close;
#X msg 286 47 ports;
#X obj 261 332 print comport;
#X obj 327 86 list prepend comport;
#N canvas 333 370 490 203 lastpath 0;
#X msg 51 69 /home/pi/la-boite/projects/zephyr/presets;
#X obj 51 27 inlet;
#X obj 51 110 outlet;
#X connect 0 0 2 0;
#X connect 1 0 0 0;
#X restore 431 587 pd lastpath;
#X obj 431 568 bng 15 250 50 0 empty empty empty 17 7 0 10 #fcfcfc
#000000 #000000;
#N canvas 284 572 450 300 send-preset-cmds 0;
#X obj 143 37 inlet;
#X obj 119 200 s pump-preset-cmd;
#X obj 76 224 s friz-preset-cmd;
#X obj 155 171 s grzsh-preset-cmd;
#X obj 183 144 s bounce-preset-cmd;
#X obj 213 94 s trans-preset-cmd;
#X obj 228 68 s voldry-preset-cmd;
#X obj 250 42 s aeiou-preset-cmd;
#X obj 197 118 s blur-preset-cmd;
#X obj 195 268 s mixou-preset-cmd;
#X connect 0 0 1 0;
#X connect 0 0 2 0;
#X connect 0 0 3 0;
#X connect 0 0 4 0;
#X connect 0 0 5 0;
#X connect 0 0 6 0;
#X connect 0 0 7 0;
#X connect 0 0 8 0;
#X connect 0 0 9 0;
#X restore 27 636 pd send-preset-cmds;
#N canvas 14 25 1000 696 wiring~ 0;
#X obj 73 260 *~;
#X obj 111 262 *~;
#X obj 143 226 line~;
#X msg 143 207 \$1 10;
#X obj 143 188 r master-master;
#N canvas 564 76 514 478 send-osc 0;
#X obj 199 400 netsend -u -b;
#X obj 199 289 list prepend send;
#X obj 199 310 list trim;
#X obj 199 269 oscformat stereoamplitudes;
#X obj 64 321 hsl 128 15 0 1 0 0 empty empty empty -2 -8 0 10 #fcfcfc
#000000 #000000 0 0;
#X obj 290 118 dbtorms;
#X obj 228 118 dbtorms;
#X obj 199 179 f;
#X obj 254 179 f;
#X obj 177 100 tgl 15 0 empty empty empty 17 7 0 10 #fcfcfc #000000
#000000 0 1;
#X obj 199 201 pack f f;
#X obj 64 302 hsl 128 15 0 1 0 0 empty empty empty -2 -8 0 10 #fcfcfc
#000000 #000000 0 0;
#X obj 353 117 dbtorms;
#X obj 360 344 list prepend send;
#X obj 360 323 oscformat audioenergy;
#X obj 327 152 f;
#X obj 177 141 t b b b;
#X obj 430 56 inlet;
#X obj 274 439 outlet;
#X obj 199 439 outlet;
#X obj 376 363 hsl 128 15 0 1 0 0 empty empty empty -2 -8 0 10 #fcfcfc
#000000 #000000 0 0;
#X obj 393 56 inlet;
#X obj 232 27 inlet~;
#X obj 294 27 inlet~;
#X obj 228 55 *~ 0.5;
#X obj 290 55 *~ 0.5;
#X obj 170 120 metro 10;
#X obj 76 200 +;
#X obj 49 232 hsl 128 15 0 1 0 0 empty empty empty -2 -8 0 10 #fcfcfc
#000000 #000000 0 0;
#X obj 228 97 env~ 4096;
#X obj 109 203 * 0.5;
#X obj 290 97 env~ 4096;
#X obj 353 96 env~ 4096;
#X obj 372 272 line;
#X msg 372 252 \$1 50;
#X obj 385 411 pow 0.3;
#X obj 360 302 * 15;
#X obj 76 53 hip~ 250;
#X obj 127 53 hip~ 250;
#X connect 0 0 19 0;
#X connect 0 1 18 0;
#X connect 1 0 2 0;
#X connect 2 0 0 0;
#X connect 3 0 1 0;
#X connect 5 0 8 1;
#X connect 6 0 7 1;
#X connect 7 0 10 0;
#X connect 7 0 11 0;
#X connect 7 0 27 0;
#X connect 8 0 10 1;
#X connect 8 0 4 0;
#X connect 9 0 26 0;
#X connect 12 0 15 1;
#X connect 13 0 2 0;
#X connect 14 0 13 0;
#X connect 15 0 34 0;
#X connect 16 0 7 0;
#X connect 16 1 8 0;
#X connect 16 2 15 0;
#X connect 17 0 0 0;
#X connect 21 0 9 0;
#X connect 22 0 37 0;
#X connect 23 0 38 0;
#X connect 24 0 29 0;
#X connect 24 0 32 0;
#X connect 25 0 31 0;
#X connect 25 0 32 0;
#X connect 26 0 16 0;
#X connect 27 0 28 0;
#X connect 27 0 30 0;
#X connect 29 0 6 0;
#X connect 30 0 27 1;
#X connect 31 0 5 0;
#X connect 32 0 12 0;
#X connect 33 0 36 0;
#X connect 34 0 33 0;
#X connect 35 0 20 0;
#X connect 36 0 14 0;
#X connect 36 0 35 0;
#X connect 37 0 24 0;
#X connect 38 0 25 0;
#X restore 96 393 pd send-osc;
#X obj 227 316 inlet;
#X obj 265 316 inlet;
#X obj 35 23 inlet~;
#X obj 95 22 inlet~;
#X obj 35 70 s~ main-audio-input-left;
#X obj 95 45 s~ main-audio-input-right;
#X obj 33 108 r~ pump-audio-out-left;
#X obj 118 147 r~ pump-audio-out-right;
#X obj 122 317 outlet~;
#X obj 174 316 outlet~;
#X obj 284 20 r~ main-audio-input-left;
#X obj 287 276 t a a;
#X obj 349 150 r~ blur-audio-out-left;
#X obj 588 149 r~ blur-audio-out-right;
#X obj 332 130 r~ aeiou-audio-out-left;
#X obj 571 129 r~ aeiou-audio-out-right;
#X obj 365 170 r~ bounce-audio-out-left;
#X obj 604 169 r~ bounce-audio-out-right;
#X obj 382 190 r~ friz-audio-out-left;
#X obj 621 189 r~ friz-audio-out-right;
#X obj 316 413 s~ aeiou-audio-in-left;
#X obj 332 433 s~ blur-audio-in-left;
#X obj 349 453 s~ bounce-audio-in-left;
#X obj 365 473 s~ friz-audio-in-left;
#X obj 555 412 s~ aeiou-audio-in-right;
#X obj 571 432 s~ blur-audio-in-right;
#X obj 588 452 s~ bounce-audio-in-right;
#X obj 604 472 s~ friz-audio-in-right;
#X obj 415 230 r~ grzsh-audio-out-left;
#X obj 654 229 r~ grzsh-audio-out-right;
#X obj 398 513 s~ grzsh-audio-in-left;
#X obj 637 512 s~ grzsh-audio-in-right;
#X obj 621 492 s~ distro-audio-in-right;
#X obj 382 493 s~ distro-audio-in-left;
#X obj 398 210 r~ distro-audio-out-left;
#X obj 637 209 r~ distro-audio-out-right;
#X obj 758 643 s~ pump-audio-in-sidechain-right;
#X obj 519 645 s~ pump-audio-in-sidechain-left;
#X obj 503 625 s~ pump-audio-in-left;
#X obj 742 623 s~ pump-audio-in-right;
#X obj 311 97 r mixou-connections-out;
#X obj 431 249 r~ turnaround-audio-out-left;
#X obj 670 248 r~ turnaround-audio-out-right;
#X obj 415 533 s~ turnaround-audio-in-left;
#X obj 654 532 s~ turnaround-audio-in-right;
#X obj 435 20 r~ main-audio-input-right;
#X obj 284 40 s~ gain1-audio-in-left;
#X obj 435 40 s~ gain1-audio-in-right;
#X obj 599 40 s~ gain2-audio-in-left;
#X obj 750 40 s~ gain2-audio-in-right;
#X obj 750 20 r~ main-audio-input-right;
#X obj 599 20 r~ main-audio-input-left;
#X obj 492 331 r~ gain1-audio-out-left;
#X obj 509 351 r~ gain2-audio-out-left;
#X obj 731 329 r~ gain1-audio-out-right;
#X obj 748 349 r~ gain2-audio-out-right;
#X obj 448 268 r~ pitchoun-audio-out-left;
#X obj 687 267 r~ pitchoun-audio-out-right;
#X obj 670 552 s~ pitchoun-audio-in-right;
#X obj 431 553 s~ pitchoun-audio-in-left;
#X obj 316 384 jl/router~ 12 12, f 28;
#X obj 555 382 jl/router~ 12 12, f 28;
#X obj 461 287 r~ greeze-audio-out-left;
#X obj 703 286 r~ greeze-audio-out-right;
#X obj 686 572 s~ greeze-audio-in-right;
#X obj 447 573 s~ greeze-audio-in-left;
#X obj 477 306 r~ guziguzi-audio-out-left;
#X obj 719 305 r~ guziguzi-audio-out-right;
#X obj 462 593 s~ guziguzi-audio-in-left;
#X obj 701 592 s~ guziguzi-audio-in-right;
#X connect 0 0 5 0;
#X connect 0 0 14 0;
#X connect 1 0 5 1;
#X connect 1 0 15 0;
#X connect 2 0 1 1;
#X connect 2 0 0 1;
#X connect 3 0 2 0;
#X connect 4 0 3 0;
#X connect 6 0 5 2;
#X connect 7 0 5 3;
#X connect 8 0 10 0;
#X connect 9 0 11 0;
#X connect 12 0 0 0;
#X connect 13 0 1 0;
#X connect 16 0 52 0;
#X connect 17 0 66 0;
#X connect 17 1 67 0;
#X connect 18 0 66 2;
#X connect 19 0 67 2;
#X connect 20 0 66 1;
#X connect 21 0 67 1;
#X connect 22 0 66 3;
#X connect 23 0 67 3;
#X connect 24 0 66 4;
#X connect 25 0 67 4;
#X connect 34 0 66 6;
#X connect 35 0 67 6;
#X connect 40 0 66 5;
#X connect 41 0 67 5;
#X connect 46 0 17 0;
#X connect 47 0 66 7;
#X connect 48 0 67 7;
#X connect 51 0 53 0;
#X connect 56 0 55 0;
#X connect 57 0 54 0;
#X connect 58 0 66 11;
#X connect 59 0 66 12;
#X connect 60 0 67 11;
#X connect 61 0 67 12;
#X connect 62 0 66 8;
#X connect 63 0 67 8;
#X connect 66 0 26 0;
#X connect 66 1 27 0;
#X connect 66 2 28 0;
#X connect 66 3 29 0;
#X connect 66 4 39 0;
#X connect 66 5 36 0;
#X connect 66 6 49 0;
#X connect 66 7 65 0;
#X connect 66 8 71 0;
#X connect 66 9 74 0;
#X connect 66 10 44 0;
#X connect 66 11 43 0;
#X connect 67 0 30 0;
#X connect 67 1 31 0;
#X connect 67 2 32 0;
#X connect 67 3 33 0;
#X connect 67 4 38 0;
#X connect 67 5 37 0;
#X connect 67 6 50 0;
#X connect 67 7 64 0;
#X connect 67 8 70 0;
#X connect 67 9 75 0;
#X connect 67 10 45 0;
#X connect 67 11 42 0;
#X connect 68 0 66 9;
#X connect 69 0 67 9;
#X connect 72 0 66 10;
#X connect 73 0 67 10;
#X restore 407 382 pd wiring~;
#X obj 261 587 project/file-manager zephyr;
#N canvas 0 25 623 645 VOLUMES 0;
#X obj 469 106 ctlin;
#X floatatom 445 152 5 0 0 0 - - - 0;
#X floatatom 482 152 5 0 0 0 - - - 0;
#X floatatom 518 152 5 0 0 0 - - - 0;
#X obj 102 27 ctlin 17 10;
#X obj 174 27 ctlin 18 10;
#X obj 246 27 ctlin 19 10;
#X obj 318 27 ctlin 20 10;
#X obj 102 47 / 127;
#X obj 174 47 / 127;
#X obj 246 47 / 127;
#X obj 246 338 s organ-master;
#X obj 318 47 / 127;
#X obj 318 314 s master-master;
#X obj 102 104 vsl 15 128 0 1 0 0 empty empty empty 0 -9 0 10 #fcfcfc
#000000 #000000 0 0;
#X obj 119 104 vsl 15 128 0 1 0 0 empty empty empty 0 -9 0 10 #fcfcfc
#000000 #000000 0 0;
#X obj 136 104 vsl 15 128 0 1 0 0 empty empty empty 0 -9 0 10 #fcfcfc
#000000 #000000 0 0;
#X obj 153 104 vsl 15 128 0 1 0 0 empty empty empty 0 -9 0 10 #000000
#fc0400 #000000 0 0;
#X obj 102 294 pow 1.75;
#X obj 174 294 pow 1.75;
#X obj 246 294 pow 1.75;
#X obj 318 294 pow 1.75;
#X obj 174 361 s pumpees-master;
#X obj 102 385 s pumpers-master;
#X obj 313 150 loadbang;
#X msg 312 173 1;
#X connect 0 0 1 0;
#X connect 0 1 2 0;
#X connect 0 2 3 0;
#X connect 4 0 8 0;
#X connect 5 0 9 0;
#X connect 6 0 10 0;
#X connect 7 0 12 0;
#X connect 8 0 14 0;
#X connect 9 0 15 0;
#X connect 10 0 16 0;
#X connect 12 0 17 0;
#X connect 14 0 18 0;
#X connect 15 0 19 0;
#X connect 16 0 20 0;
#X connect 17 0 21 0;
#X connect 18 0 23 0;
#X connect 19 0 22 0;
#X connect 20 0 11 0;
#X connect 21 0 13 0;
#X connect 24 0 25 0;
#X connect 25 0 17 0;
#X connect 25 0 16 0;
#X connect 25 0 15 0;
#X connect 25 0 14 0;
#X coords 0 -1 1 1 70 137 2 100 100;
#X restore 263 358 pd VOLUMES;
#X obj 434 516 loadbang;
#X msg 434 537 ./presets;
#X obj 27 43 project/preset-manager all zephyr;
#X msg 453 564 /home/pi/la-boite/projects/zephyr/presets;
#X obj 337 448 loadbang;
#X msg 337 468 \; pd dsp 1;
#X msg 298 648 /Users/larralde/Projects/git-repositories/josephlarralde/la-boite/tmp/my-projects/zephyr/presets
;
#X obj 394 359 adc~ 1 2;
#X obj 411 404 dac~ 1 2;
#N canvas 817 184 450 300 five-first-presets-from-fc50 0;
#X obj 82 244 outlet;
#X obj 42 70 r fc50-osc-page1-switch1;
#X obj 101 91 r fc50-osc-page1-switch2;
#X obj 141 111 r fc50-osc-page1-switch3;
#X obj 185 131 r fc50-osc-page1-switch4;
#X obj 244 151 r fc50-osc-page1-switch5;
#X obj 43 190 sel 1;
#X msg 43 210 0;
#X obj 81 190 sel 1;
#X obj 119 190 sel 1;
#X obj 157 190 sel 1;
#X obj 195 190 sel 1;
#X msg 81 210 1;
#X msg 119 210 2;
#X msg 157 210 3;
#X msg 195 210 4;
#X connect 1 0 6 0;
#X connect 2 0 8 0;
#X connect 3 0 9 0;
#X connect 4 0 10 0;
#X connect 5 0 11 0;
#X connect 6 0 7 0;
#X connect 7 0 0 0;
#X connect 8 0 12 0;
#X connect 9 0 13 0;
#X connect 10 0 14 0;
#X connect 11 0 15 0;
#X connect 12 0 0 0;
#X connect 13 0 0 0;
#X connect 14 0 0 0;
#X connect 15 0 0 0;
#X restore 27 19 pd five-first-presets-from-fc50;
#X obj 261 110 t b b;
#X obj 261 625 text define -k zephyr-ctlbus;
#A set A1 \; A2 \; A3 \; A4 \; A5 \; B1 \; B2 \; B3 \; B4 \; B5 \;
f-press \; a-ele \; a-azi \; r-pos \; r-press \; A1-f-press \; A2-f-press
\; A3-f-press \; A4-f-press \; A5-f-press \; A1-a-ele \; A2-a-ele \;
A3-a-ele \; A4-a-ele \; A5-a-ele \; A1-a-azi \; A2-a-azi \; A3-a-azi
\; A4-a-azi \; A5-a-azi \; A1-r-pos \; A2-r-pos \; A3-r-pos \; A4-r-pos
\; A5-r-pos \; A1-r-press \; A2-r-press \; A3-r-press \; A4-r-press
\; A5-r-press \;;
#X obj 298 702 s zephyr-ctlbus-11;
#X obj 301 682 hsl 128 15 0 1 0 0 empty empty empty -2 -8 0 10 #fcfcfc
#000000 #000000 0 0;
#X obj 438 682 hsl 128 15 0 1 0 0 empty empty empty -2 -8 0 10 #fcfcfc
#000000 #000000 0 0;
#X obj 435 702 s zephyr-ctlbus-12;
#X text 502 16 TODO : tap tempo \, looper euclidien \, enregistreur
granulaire / pitch bender \, grosse disto;
#X obj 1008 545 ./abstractions/toggle-matrix mixou;
#X obj 490 63 ./modules-mono/looper-module~ turnaround zephyr 1;
#X obj 658 63 ./modules-mono/guzi-recorder-module~ guziguzi zephyr
2;
#X obj 826 63 ./modules-mono/gflow-recorder-module~ groot zephyr 3
;
#X obj 994 333 ./modules-mono/logdelay-module~ bounce zephyr 9 20 10000
;
#X obj 826 333 ./modules-mono/gdelay-module~ blur zephyr 8 4 3000;
#X obj 993 63 ./modules-mono/distort-module~ distro zephyr 4;
#X obj 1160 63 ./modules-mono/degrade-module~ grzsh zephyr 5;
#X obj 490 333 ./modules-mono/formant-filter-module~ aeiou zephyr 6
;
#X obj 658 333 ./modules-mono/pitch-shift-module~ pitchoun zephyr 7
;
#X obj 1205 571 ./modules-mono/sidechain-module~ pump zephyr;
#X obj 746 668 ./modules-mono/gain-module~ gain2 zephyr;
#X obj 746 597 ./modules-mono/gain-module~ gain1 zephyr;
#X obj 1162 333 ./modules-mono/stut-module~ friz zephyr 10;
#X connect 1 0 14 0;
#X connect 3 0 20 0;
#X connect 4 0 20 0;
#X connect 5 0 20 0;
#X connect 6 0 1 0;
#X connect 7 0 32 0;
#X connect 8 0 7 0;
#X connect 9 0 1 0;
#X connect 10 0 15 0;
#X connect 11 0 10 0;
#X connect 12 0 15 0;
#X connect 13 0 15 0;
#X connect 15 0 9 0;
#X connect 16 0 20 1;
#X connect 17 0 16 0;
#X connect 19 0 30 0;
#X connect 19 1 30 1;
#X connect 20 1 16 0;
#X connect 24 0 18 0;
#X connect 25 0 20 1;
#X connect 26 0 27 0;
#X connect 28 0 20 1;
#X connect 29 0 19 0;
#X connect 29 1 19 1;
#X connect 31 0 24 0;
#X connect 32 0 6 0;
#X connect 32 1 25 0;
#X connect 35 0 34 0;
#X connect 36 0 37 0;
