#N canvas 3 25 771 732 10;
#N canvas 151 103 902 620 ctlbus-definitions-and-routing 0;
#X obj 79 43 project/ctlbus-from-receive zephyr fc50-osc-page0-switch1
1;
#X obj 79 62 project/ctlbus-from-receive zephyr fc50-osc-page0-switch2
2;
#X obj 79 81 project/ctlbus-from-receive zephyr fc50-osc-page0-switch3
3;
#X obj 79 100 project/ctlbus-from-receive zephyr fc50-osc-page0-switch4
4;
#X obj 79 119 project/ctlbus-from-receive zephyr fc50-osc-page0-switch5
5;
#X obj 79 143 project/ctlbus-from-receive zephyr fc50-osc-page1-switch1
6;
#X obj 79 162 project/ctlbus-from-receive zephyr fc50-osc-page1-switch2
7;
#X obj 79 181 project/ctlbus-from-receive zephyr fc50-osc-page1-switch3
8;
#X obj 79 200 project/ctlbus-from-receive zephyr fc50-osc-page1-switch4
9;
#X obj 79 219 project/ctlbus-from-receive zephyr fc50-osc-page1-switch5
10;
#X obj 79 243 project/ctlbus-from-receive zephyr fc50-osc-footsensor
11;
#X obj 73 274 project/ctlbus-from-receive zephyr A1-footpress 16;
#X obj 73 293 project/ctlbus-from-receive zephyr A2-footpress 17;
#X obj 73 312 project/ctlbus-from-receive zephyr A3-footpress 18;
#X obj 73 331 project/ctlbus-from-receive zephyr A4-footpress 19;
#X obj 73 350 project/ctlbus-from-receive zephyr A5-footpress 20;
#X obj 547 137 project/ctlbus-from-receive zephyr A1-elevation 21;
#X obj 547 156 project/ctlbus-from-receive zephyr A2-elevation 22;
#X obj 547 175 project/ctlbus-from-receive zephyr A3-elevation 23;
#X obj 547 194 project/ctlbus-from-receive zephyr A4-elevation 24;
#X obj 547 213 project/ctlbus-from-receive zephyr A5-elevation 25;
#X obj 547 241 project/ctlbus-from-receive zephyr A1-azimuth 26;
#X obj 547 260 project/ctlbus-from-receive zephyr A2-azimuth 27;
#X obj 528 357 project/ctlbus-from-receive zephyr A1-position 31;
#X obj 528 376 project/ctlbus-from-receive zephyr A2-position 32;
#X obj 528 395 project/ctlbus-from-receive zephyr A3-position 33;
#X obj 528 414 project/ctlbus-from-receive zephyr A4-position 34;
#X obj 528 433 project/ctlbus-from-receive zephyr A5-position 35;
#X obj 528 461 project/ctlbus-from-receive zephyr A1-pressure 36;
#X obj 528 480 project/ctlbus-from-receive zephyr A2-pressure 37;
#X obj 528 499 project/ctlbus-from-receive zephyr A3-pressure 38;
#X obj 528 518 project/ctlbus-from-receive zephyr A4-pressure 39;
#X obj 528 537 project/ctlbus-from-receive zephyr A5-pressure 40;
#X obj 547 279 project/ctlbus-from-receive zephyr A3-azimuth 28;
#X obj 547 298 project/ctlbus-from-receive zephyr A4-azimuth 29;
#X obj 547 317 project/ctlbus-from-receive zephyr A5-azimuth 30;
#X obj 450 20 bng 15 250 50 0 empty empty empty 17 7 0 10 #fcfcfc #000000
#000000;
#X obj 481 559 bng 15 250 50 0 empty empty empty 17 7 0 10 #fcfcfc
#000000 #000000;
#X text 376 470 pedal board;
#X text 490 170 guitar;
#X obj 478 44 project/ctlbus-from-receive zephyr usb-guitar-accel-elevation
12, f 64;
#X obj 478 63 project/ctlbus-from-receive zephyr usb-guitar-accel-azimuth
13, f 62;
#X obj 478 101 project/ctlbus-from-receive zephyr usb-guitar-ribbon-pressure
15, f 64;
#X obj 478 82 project/ctlbus-from-receive zephyr usb-guitar-ribbon-position
14, f 64;
#X connect 36 0 37 0;
#X restore 261 606 pd ctlbus-definitions-and-routing;
#X obj 261 159 ./devices/control-input-module;
#X obj 256 509 cnv 15 160 45 empty empty project 4 11 0 14 #e0e0e0
#404040 0;
#X msg 261 532 open;
#X msg 295 532 save;
#X msg 329 532 saveas;
#N canvas 294 333 672 327 set-toggles-behaviour 0;
#X obj 215 273 outlet;
#X msg 333 132 mutexgroups A 1 1 2 2 3;
#X obj 268 67 t b;
#X obj 163 8 inlet;
#X obj 49 117 list prepend simulate;
#X obj 49 137 list trim;
#X obj 166 31 t b b;
#X msg 338 194 togglemodes B 1 1 1 1 1;
#X msg 345 215 mutexgroups B 1 1 1 1 1;
#X msg 336 153 filterzeros A 0 0 0 0 0;
#X msg 344 238 filterzeros B 1 1 1 1 1;
#X msg 49 96 A 0 \, A 1 \, 1 0 \, 1 1 \, A 0 \, A 1;
#X msg 333 111 togglemodes A 1 1 1 1 1;
#X connect 1 0 0 0;
#X connect 2 0 12 0;
#X connect 2 0 1 0;
#X connect 2 0 7 0;
#X connect 2 0 8 0;
#X connect 2 0 9 0;
#X connect 2 0 10 0;
#X connect 3 0 6 0;
#X connect 4 0 5 0;
#X connect 5 0 0 0;
#X connect 6 0 11 0;
#X connect 6 1 2 0;
#X connect 7 0 0 0;
#X connect 8 0 0 0;
#X connect 9 0 0 0;
#X connect 10 0 0 0;
#X connect 11 0 4 0;
#X connect 12 0 0 0;
#X restore 270 137 pd set-toggles-behaviour;
#X obj 261 97 list trim;
#X msg 302 51 open \$1;
#X floatatom 302 32 5 0 0 0 - - - 0;
#X msg 356 51 close;
#X msg 261 51 ports;
#X obj 261 332 print comport;
#X obj 261 78 list prepend comport;
#N canvas 333 370 490 203 lastpath 0;
#X msg 51 69 /Users/larralde/Projects/git-repositories/josephlarralde/la-boite/tmp/my-projects/zephyr/presets
;
#X obj 51 27 inlet;
#X obj 51 110 outlet;
#X connect 0 0 2 0;
#X connect 1 0 0 0;
#X restore 431 587 pd lastpath;
#X obj 504 588 bng 15 250 50 0 empty empty empty 17 7 0 10 #fcfcfc
#000000 #000000;
#N canvas 293 246 518 503 send-preset-cmds 0;
#X obj 59 8 inlet;
#X obj 157 372 s friz-preset-cmd;
#X obj 261 267 s grzsh-preset-cmd;
#X obj 183 351 s bounce-preset-cmd;
#X obj 242 288 s aeiou-preset-cmd;
#X obj 203 330 s blur-preset-cmd;
#X obj 330 71 s mixou-preset-cmd;
#X obj 315 114 s gain1-preset-cmd;
#X obj 307 136 s gain2-preset-cmd;
#X obj 327 183 s turnaround-preset-cmd;
#X obj 311 204 s scroll-preset-cmd;
#X obj 293 225 s guziguzi-preset-cmd;
#X obj 281 246 s distro-preset-cmd;
#X obj 222 309 s pitchoun-preset-cmd;
#X obj 83 411 s volume1-preset-cmd;
#X obj 57 431 s volume2-preset-cmd;
#X connect 0 0 1 0;
#X connect 0 0 2 0;
#X connect 0 0 3 0;
#X connect 0 0 4 0;
#X connect 0 0 5 0;
#X connect 0 0 6 0;
#X connect 0 0 7 0;
#X connect 0 0 8 0;
#X connect 0 0 9 0;
#X connect 0 0 10 0;
#X connect 0 0 11 0;
#X connect 0 0 12 0;
#X connect 0 0 13 0;
#X connect 0 0 14 0;
#X connect 0 0 15 0;
#X restore 27 636 pd send-preset-cmds;
#X obj 261 587 project/file-manager zephyr;
#X obj 27 43 project/preset-manager all zephyr;
#X msg 420 567 /home/pi/la-boite/projects/zephyr/presets;
#X msg 261 443 \; pd dsp 1;
#X msg 298 648 /Users/larralde/Projects/git-repositories/josephlarralde/la-boite/tmp/my-projects/zephyr/presets
;
#N canvas 817 184 473 383 five-first-presets-from-fc50 0;
#X obj 42 70 r fc50-osc-page1-switch1;
#X obj 101 91 r fc50-osc-page1-switch2;
#X obj 141 111 r fc50-osc-page1-switch3;
#X obj 185 131 r fc50-osc-page1-switch4;
#X obj 244 151 r fc50-osc-page1-switch5;
#X obj 43 190 sel 1;
#X msg 43 210 0;
#X obj 81 190 sel 1;
#X obj 119 190 sel 1;
#X obj 157 190 sel 1;
#X obj 195 190 sel 1;
#X msg 81 210 1;
#X msg 119 210 2;
#X msg 157 210 3;
#X msg 195 210 4;
#X obj 81 327 outlet;
#X obj 81 244 t a a;
#X obj 123 281 s \$0-set-preset;
#X obj 123 302 r \$0-really-set-preset;
#X connect 0 0 5 0;
#X connect 1 0 7 0;
#X connect 2 0 8 0;
#X connect 3 0 9 0;
#X connect 4 0 10 0;
#X connect 5 0 6 0;
#X connect 6 0 16 0;
#X connect 7 0 11 0;
#X connect 8 0 12 0;
#X connect 9 0 13 0;
#X connect 10 0 14 0;
#X connect 11 0 16 0;
#X connect 12 0 16 0;
#X connect 13 0 16 0;
#X connect 14 0 16 0;
#X connect 16 0 17 0;
#X connect 18 0 15 0;
#X restore 27 23 pd five-first-presets-from-fc50;
#X obj 261 625 text define -k zephyr-ctlbus;
#A set A1 \; A2 \; A3 \; A4 \; A5 \; B1 \; B2 \; B3 \; B4 \; B5 \;
f-press \; a-ele \; a-azi \; r-pos \; r-press \; A1-f-press \; A2-f-press
\; A3-f-press \; A4-f-press \; A5-f-press \; A1-a-ele \; A2-a-ele \;
A3-a-ele \; A4-a-ele \; A5-a-ele \; A1-a-azi \; A2-a-azi \; A3-a-azi
\; A4-a-azi \; A5-a-azi \; A1-r-pos \; A2-r-pos \; A3-r-pos \; A4-r-pos
\; A5-r-pos \; A1-r-press \; A2-r-press \; A3-r-press \; A4-r-press
\; A5-r-press \;;
#X obj 444 441 s zephyr-ctlbus-11;
#X obj 447 421 hsl 128 15 0 1 0 0 empty empty empty -2 -8 0 10 #fcfcfc
#000000 #000000 0 0;
#X obj 447 462 hsl 128 15 0 1 0 0 empty empty empty -2 -8 0 10 #fcfcfc
#000000 #000000 0 0;
#X obj 444 482 s zephyr-ctlbus-12;
#N canvas 220 113 707 602 audio-wiring 0;
#X obj 311 16 r mixou-connections-out;
#X obj 331 303 jl/router~ 12 12, f 28;
#X obj 506 255 r~ gain1-audio-out;
#X obj 523 275 r~ gain2-audio-out;
#X obj 45 86 s~ gain1-audio-in;
#X obj 90 66 s~ gain2-audio-in;
#X obj 347 49 r~ turnaround-audio-out;
#X obj 364 69 r~ scroll-audio-out;
#X obj 380 89 r~ guziguzi-audio-out;
#X obj 397 109 r~ distro-audio-out;
#X obj 413 129 r~ grzsh-audio-out;
#X obj 430 149 r~ aeiou-audio-out;
#X obj 446 169 r~ pitchoun-audio-out;
#X obj 463 189 r~ blur-audio-out;
#X obj 476 209 r~ bounce-audio-out;
#X obj 492 229 r~ friz-audio-out;
#X obj 284 333 s~ turnaround-audio-in;
#X obj 300 353 s~ scroll-audio-in;
#X obj 317 373 s~ guziguzi-audio-in;
#X obj 333 393 s~ distro-audio-in;
#X obj 350 413 s~ grzsh-audio-in;
#X obj 366 433 s~ aeiou-audio-in;
#X obj 383 453 s~ pitchoun-audio-in;
#X obj 399 473 s~ blur-audio-in;
#X obj 415 493 s~ bounce-audio-in;
#X obj 430 513 s~ friz-audio-in;
#X obj 45 46 adc~ 1 2;
#X obj 486 539 s~ volume1-audio-in;
#X obj 510 559 s~ volume2-audio-in;
#X obj 45 195 r~ volume1-audio-out;
#X obj 45 371 dac~ 1 2;
#X obj 90 215 r~ volume2-audio-out;
#N canvas 556 332 385 354 mute-while-changing-preset 0;
#X obj 90 250 line~;
#X msg 90 195 0;
#X msg 129 195 1;
#X obj 90 117 t b b b;
#X obj 124 48 r \$0-set-preset;
#X obj 116 75 t b f;
#X obj 203 217 s \$0-really-set-preset;
#X obj 203 196 f;
#X obj 90 276 outlet~;
#X msg 90 230 \$1 20;
#X obj 109 143 delay 50;
#X obj 129 171 delay 200;
#X connect 0 0 8 0;
#X connect 1 0 9 0;
#X connect 2 0 9 0;
#X connect 3 0 1 0;
#X connect 3 1 10 0;
#X connect 3 2 11 0;
#X connect 4 0 5 0;
#X connect 5 0 3 0;
#X connect 5 1 7 1;
#X connect 7 0 6 0;
#X connect 9 0 0 0;
#X connect 10 0 7 0;
#X connect 11 0 2 0;
#X restore 105 243 pd mute-while-changing-preset;
#X obj 38 346 hip~ 30;
#X obj 95 345 hip~ 30;
#X obj 45 283 *~;
#X obj 90 284 *~;
#X obj 269 112 print aaaaa;
#X connect 0 0 1 0;
#X connect 0 0 37 0;
#X connect 1 0 16 0;
#X connect 1 1 17 0;
#X connect 1 2 18 0;
#X connect 1 3 19 0;
#X connect 1 4 20 0;
#X connect 1 5 21 0;
#X connect 1 6 22 0;
#X connect 1 7 23 0;
#X connect 1 8 24 0;
#X connect 1 9 25 0;
#X connect 1 10 27 0;
#X connect 1 11 28 0;
#X connect 2 0 1 11;
#X connect 3 0 1 12;
#X connect 6 0 1 1;
#X connect 7 0 1 2;
#X connect 8 0 1 3;
#X connect 9 0 1 4;
#X connect 10 0 1 5;
#X connect 11 0 1 6;
#X connect 12 0 1 7;
#X connect 13 0 1 8;
#X connect 14 0 1 9;
#X connect 15 0 1 10;
#X connect 26 0 4 0;
#X connect 26 1 5 0;
#X connect 29 0 35 0;
#X connect 31 0 36 0;
#X connect 32 0 36 1;
#X connect 32 0 35 1;
#X connect 33 0 30 0;
#X connect 34 0 30 1;
#X connect 35 0 33 0;
#X connect 36 0 34 0;
#X restore 261 403 pd audio-wiring;
#N canvas 238 159 1051 531 audio-modules 1;
#X obj 852 8 cnv 15 190 514 empty empty empty 20 12 0 14 #000000 #404040
0;
#X obj 8 8 cnv 15 840 514 empty empty empty 20 12 0 14 #000000 #404040
0;
#X obj 9 9 cnv 15 838 512 {empty} {empty} {empty} 20 12 0 14 #dfdfdf
#404040 0;
#X obj 12 12 ./modules-mono/looper-module~ turnaround zephyr 1;
#X obj 513 281 ./modules-mono/logdelay-module~ bounce zephyr 9 20 10000
;
#X obj 346 281 ./modules-mono/gdelay-module~ blur zephyr 8 4 3000;
#X obj 513 12 ./modules-mono/distort-module~ distro zephyr 4;
#X obj 680 12 ./modules-mono/degrade-module~ grzsh zephyr 5;
#X obj 12 281 ./modules-mono/formant-filter-module~ aeiou zephyr 6
;
#X obj 179 281 ./modules-mono/pitch-shift-module~ pitchoun zephyr 7
;
#X obj 680 281 ./modules-mono/stut-module~ friz zephyr 10;
#X obj 346 12 ./modules-mono/guzi-recorder-module~ guziguzi zephyr
3;
#X obj 179 12 ./modules-mono/gflow-recorder-module~ scroll zephyr 2
;
#X obj 853 9 cnv 15 188 512 {empty} {empty} {empty} 20 12 0 14 #dfdfdf
#404040 0;
#X obj 856 83 ./modules-mono/gain-module~ gain2 zephyr;
#X obj 856 12 ./modules-mono/gain-module~ gain1 zephyr;
#X obj 856 379 ./modules-mono/gain-module~ volume1 zephyr;
#X obj 856 450 ./modules-mono/gain-module~ volume2 zephyr;
#X obj 856 163 ./abstractions/toggle-matrix mixou zephyr;
#X restore 261 383 pd audio-modules;
#X text 361 353 TODO : tap tempo \, looper euclidien;
#N canvas 672 39 333 276 loadbangs 0;
#X obj 53 36 loadbang;
#X obj 53 214 send;
#X obj 90 187 makefilename loadbang-%d;
#X obj 53 124 until;
#X msg 53 56 10;
#X obj 90 167 f;
#X obj 117 167 + 1;
#X obj 53 76 t f b;
#X obj 53 144 t b b;
#X msg 105 143 1;
#X connect 0 0 4 0;
#X connect 2 0 1 1;
#X connect 3 0 8 0;
#X connect 4 0 7 0;
#X connect 5 0 6 0;
#X connect 5 0 2 0;
#X connect 6 0 5 1;
#X connect 7 0 3 0;
#X connect 7 1 9 0;
#X connect 8 0 1 0;
#X connect 8 1 5 0;
#X connect 9 0 5 1;
#X restore 261 363 pd loadbangs;
#X obj 420 547 r loadbang-1;
#X obj 270 118 r loadbang-2;
#X obj 261 423 r loadbang-3;
#X connect 1 0 12 0;
#X connect 3 0 17 0;
#X connect 4 0 17 0;
#X connect 5 0 17 0;
#X connect 6 0 1 0;
#X connect 7 0 1 0;
#X connect 8 0 13 0;
#X connect 9 0 8 0;
#X connect 10 0 13 0;
#X connect 11 0 13 0;
#X connect 13 0 7 0;
#X connect 14 0 17 1;
#X connect 15 0 14 0;
#X connect 17 1 14 0;
#X connect 18 0 16 0;
#X connect 19 0 17 1;
#X connect 21 0 17 1;
#X connect 22 0 18 0;
#X connect 25 0 24 0;
#X connect 26 0 27 0;
#X connect 32 0 19 0;
#X connect 33 0 6 0;
#X connect 34 0 20 0;
