#N canvas 609 223 723 584 10;
#X obj 46 233 r \$0-show-mapping-o;
#X text 205 278 WxHx0+0 0x0+X+Y;
#X msg 46 390 0;
#N canvas 642 183 450 300 set-all-input-modes 0;
#X obj 162 32 inlet;
#X obj 79 128 s \$0-gain-mode;
#X obj 109 170 s \$0-decimate-mode;
#X obj 122 189 s \$0-bitcrush-mode;
#X obj 136 208 s \$0-volume-mode;
#X obj 162 55 t f f f f f;
#X obj 88 147 s \$0-drywet-mode;
#X connect 0 0 5 0;
#X connect 5 0 1 0;
#X connect 5 1 6 0;
#X connect 5 2 2 0;
#X connect 5 3 3 0;
#X connect 5 4 4 0;
#X restore 46 410 pd set-all-input-modes;
#X obj 46 370 r \$0-reset-mapping-o;
#X obj 60 275 loadbang;
#X msg 46 253 vis 1;
#N canvas 50 50 524 140 \$1-parameters 0;
#X obj 413 8 project/parameter volume \$1 \$2 \$0;
#X obj 9 8 project/parameter gain \$1 \$2 \$0;
#X obj 211 8 project/parameter decimate \$1 \$2 \$0;
#X obj 312 8 project/parameter bitcrush \$1 \$2 \$0;
#X obj 110 8 project/parameter drywet \$1 \$2 \$0;
#X restore 46 339 pd \$1-parameters;
#X obj 46 319 s pd-\$1-parameters;
#X obj 360 192 *~;
#X obj 375 158 line~;
#X msg 375 139 \$1 10;
#X obj 375 119 r \$0-gain-o;
#X obj 51 51 cnv 15 162 108 empty empty \$1 4 10 0 12 #fcfcfc #404040
0;
#X obj 55 126 hsl 155 12 0 1 0 0 \$0-volume-o \$0-volume-i volume 2
6 0 10 #fcfcfc #000000 #b8b8b8 0 0;
#X obj 52 157 bng 15 250 50 0 \$0-reset-mapping-o \$0-reset-mapping-i
reset_mapping 17 7 0 10 #fcfcfc #000000 #000000;
#X obj 52 140 bng 15 250 50 0 \$0-show-mapping-o \$0-show-mapping-i
show_mapping 17 7 0 10 #fcfcfc #000000 #000000;
#X obj 55 70 hsl 155 12 0 1 0 0 \$0-gain-o \$0-gain-i gain 2 6 0 10
#fcfcfc #000000 #b8b8b8 0 0;
#X obj 384 473 *~;
#X obj 462 435 line~;
#X msg 462 415 \$1 10;
#X obj 507 425 r \$0-volume-o;
#X obj 402 249 jl/decimate~;
#X obj 402 326 jl/bitcrush~;
#X obj 493 236 hsl 128 15 0 1 0 0 empty empty quantization -2 -8 0
10 #fcfcfc #000000 #000000 0 0;
#X obj 648 238 loadbang;
#X msg 648 266 0, f 5;
#X obj 489 204 hsl 128 15 0 1 0 0 empty empty decimation -2 -8 0 10
#fcfcfc #000000 #000000 0 0;
#X obj 55 112 hsl 155 12 0 1 0 0 \$0-bitcrush-o \$0-bitcrush-i bitcrush
2 6 0 10 #fcfcfc #000000 #b8b8b8 0 0;
#X obj 55 98 hsl 155 12 0 1 0 0 \$0-decimate-o \$0-decimate-i decimate
2 6 0 10 #fcfcfc #000000 #b8b8b8 0 0;
#X obj 568 117 r \$0-decimate-o;
#X obj 568 155 r \$0-bitcrush-o;
#X floatatom 533 277 5 0 0 0 - - - 0;
#X obj 490 255 jl/map 0 1 32768 4 -2.5;
#X obj 321 192 *~;
#X obj 321 72 r~ \$1-audio-in-left;
#X obj 360 93 r~ \$1-audio-in-right;
#X obj 321 250 jl/decimate~;
#X obj 321 327 jl/bitcrush~;
#X obj 99 480 project/module-preset \$1 \$2 \$0;
#X obj 382 502 s~ \$1-audio-out-left;
#X obj 416 472 *~;
#X obj 419 523 s~ \$1-audio-out-right;
#X obj 321 350 -~;
#X obj 502 321 * 0.5;
#X obj 502 301 pow 2;
#X obj 402 349 -~;
#X obj 294 390 jl/merge~;
#X obj 385 391 jl/merge~;
#X obj 554 322 r \$0-drywet-o;
#X msg 502 341 \$1 10;
#X obj 502 360 line~;
#X obj 55 84 hsl 155 12 0 1 0 0 \$0-drywet-o \$0-drywet-i drywet 2
6 0 10 #fcfcfc #000000 #b8b8b8 0 0;
#X msg 60 295 menuclose \, relocate 524x140+0+0 0x0+50+50;
#X obj 193 51 cnv 16 16 16 empty empty \$3 4 10 0 12 #fcfcfc #404040
0;
#X connect 0 0 6 0;
#X connect 2 0 3 0;
#X connect 4 0 2 0;
#X connect 5 0 53 0;
#X connect 6 0 8 0;
#X connect 9 0 22 0;
#X connect 9 0 46 1;
#X connect 9 0 48 0;
#X connect 10 0 9 1;
#X connect 10 0 34 1;
#X connect 11 0 10 0;
#X connect 12 0 11 0;
#X connect 18 0 40 0;
#X connect 19 0 18 1;
#X connect 19 0 41 1;
#X connect 20 0 19 0;
#X connect 21 0 20 0;
#X connect 22 0 23 0;
#X connect 23 0 46 0;
#X connect 24 0 33 0;
#X connect 25 0 26 0;
#X connect 26 0 24 0;
#X connect 26 0 27 0;
#X connect 27 0 22 1;
#X connect 27 0 37 1;
#X connect 30 0 27 0;
#X connect 31 0 24 0;
#X connect 33 0 23 1;
#X connect 33 0 32 0;
#X connect 33 0 38 1;
#X connect 34 0 37 0;
#X connect 34 0 43 1;
#X connect 34 0 47 0;
#X connect 35 0 34 0;
#X connect 36 0 9 0;
#X connect 37 0 38 0;
#X connect 38 0 43 0;
#X connect 41 0 42 0;
#X connect 43 0 47 1;
#X connect 44 0 50 0;
#X connect 45 0 44 0;
#X connect 46 0 48 1;
#X connect 47 0 18 0;
#X connect 48 0 41 0;
#X connect 49 0 45 0;
#X connect 50 0 51 0;
#X connect 51 0 48 2;
#X connect 51 0 47 2;
#X connect 53 0 8 0;
#X coords 0 -1 1 1 164 124 2 50 50;
