#N canvas 393 146 897 601 10;
#X obj 72 324 r \$0-show-mapping-o;
#X text 231 369 WxHx0+0 0x0+X+Y;
#X msg 72 481 0;
#N canvas 642 183 450 300 set-all-input-modes 0;
#X obj 224 147 s \$0-shorten-mode;
#X obj 235 166 s \$0-drive-mode;
#X obj 248 185 s \$0-panning-mode;
#X obj 262 204 s \$0-width-mode;
#X obj 276 223 s \$0-volume-mode;
#X obj 162 32 inlet;
#X obj 79 128 s \$0-drywet-mode;
#X obj 90 147 s \$0-size-mode;
#X obj 103 166 s \$0-rsize-mode;
#X obj 117 185 s \$0-mindelay-mode;
#X obj 130 204 s \$0-maxdelay-mode;
#X obj 141 223 s \$0-speed-mode;
#X obj 162 55 t f f f f f f f f f f f f;
#X obj 212 128 s \$0-feedback-mode;
#X connect 5 0 12 0;
#X connect 12 0 6 0;
#X connect 12 1 7 0;
#X connect 12 2 8 0;
#X connect 12 3 9 0;
#X connect 12 4 10 0;
#X connect 12 5 11 0;
#X connect 12 6 13 0;
#X connect 12 7 0 0;
#X connect 12 8 1 0;
#X connect 12 9 2 0;
#X connect 12 10 3 0;
#X connect 12 11 4 0;
#X restore 72 501 pd set-all-input-modes;
#X obj 72 461 r \$0-reset-mapping-o;
#X obj 86 366 loadbang;
#X msg 72 344 vis 1;
#N canvas 50 50 322 263 \$1-parameters 0;
#X obj 110 131 project/parameter volume \$1 \$2 \$0;
#X obj 9 131 project/parameter drywet \$1 \$2 \$0;
#X obj 9 8 project/parameter AB-interp \$1 \$2 \$0;
#X obj 110 8 project/parameter A-interp \$1 \$2 \$0;
#X obj 211 8 project/parameter B-interp \$1 \$2 \$0;
#X restore 72 430 pd \$1-parameters;
#X obj 72 410 s pd-\$1-parameters;
#X obj 360 461 *~;
#X obj 468 427 line~;
#X msg 468 407 \$1 10;
#X obj 468 387 r \$0-volume-o;
#X obj 362 534 project/module-preset \$1 \$2 \$0;
#X obj 423 337 ../abstractions/formant-filter~;
#X obj 309 185 jl/split~;
#N canvas 739 96 450 300 vowels-list 0;
#X msg 150 99 a 730 1090 2440 1 0.5 0.33;
#X msg 150 121 e 441 1500 2576 1 0.5 0.2;
#X msg 150 209 ou 300 700 2240 1 0.3 0;
#X msg 150 143 i 270 2290 3010 0.7 0.05 0.3;
#X msg 150 187 u 288 1777 2089 1 0.25 0.1;
#X msg 150 165 o 420 775 2410 1 0.33 0.25;
#X obj 242 55 sel a e i o u ou;
#X obj 212 14 inlet;
#X obj 125 266 outlet;
#X obj 95 231 list split 1;
#X obj 212 35 symbol;
#X connect 0 0 9 0;
#X connect 1 0 9 0;
#X connect 2 0 9 0;
#X connect 3 0 9 0;
#X connect 4 0 9 0;
#X connect 5 0 9 0;
#X connect 6 0 0 0;
#X connect 6 1 1 0;
#X connect 6 2 3 0;
#X connect 6 3 5 0;
#X connect 6 4 4 0;
#X connect 6 5 2 0;
#X connect 7 0 10 0;
#X connect 9 1 8 0;
#X connect 10 0 6 0;
#X restore 702 69 pd vowels-list;
#N canvas 739 96 450 300 vowels-list 0;
#X msg 150 99 a 730 1090 2440 1 0.5 0.33;
#X msg 150 121 e 441 1500 2576 1 0.5 0.2;
#X msg 150 209 ou 300 700 2240 1 0.3 0;
#X msg 150 143 i 270 2290 3010 0.7 0.05 0.3;
#X msg 150 187 u 288 1777 2089 1 0.25 0.1;
#X msg 150 165 o 420 775 2410 1 0.33 0.25;
#X obj 226 5 inlet;
#X obj 125 266 outlet;
#X obj 95 231 list split 1;
#X obj 242 55 select a e i o u ou;
#X obj 236 33 symbol;
#X connect 0 0 8 0;
#X connect 1 0 8 0;
#X connect 2 0 8 0;
#X connect 3 0 8 0;
#X connect 4 0 8 0;
#X connect 5 0 8 0;
#X connect 6 0 10 0;
#X connect 8 1 7 0;
#X connect 9 0 0 0;
#X connect 9 1 1 0;
#X connect 9 2 3 0;
#X connect 9 3 5 0;
#X connect 9 4 4 0;
#X connect 9 5 2 0;
#X connect 10 0 9 0;
#X restore 592 69 pd vowels-list;
#N canvas 611 360 547 371 vowel-interpolator 0;
#X obj 221 70 list;
#X obj 357 70 list;
#X obj 221 102 unpack f f f f f f;
#X obj 357 103 unpack f f f f f f;
#X obj 61 293 pack f f f f f f;
#X obj 103 114 t f f f f f f;
#X obj 86 13 inlet;
#X obj 223 22 inlet;
#X obj 365 20 inlet;
#X obj 65 323 outlet;
#X obj 104 143 expr (1 - $f1) * $f2 + $f1 * $f3;
#X obj 116 166 expr (1 - $f1) * $f2 + $f1 * $f3;
#X obj 132 189 expr (1 - $f1) * $f2 + $f1 * $f3;
#X obj 147 212 expr (1 - $f1) * $f2 + $f1 * $f3;
#X obj 159 235 expr (1 - $f1) * $f2 + $f1 * $f3;
#X obj 175 258 expr (1 - $f1) * $f2 + $f1 * $f3;
#X obj 95 89 f;
#X obj 192 43 t b a;
#X obj 343 43 t b a;
#X connect 0 0 2 0;
#X connect 1 0 3 0;
#X connect 2 0 10 1;
#X connect 2 1 11 1;
#X connect 2 2 12 1;
#X connect 2 3 13 1;
#X connect 2 4 14 1;
#X connect 2 5 15 1;
#X connect 3 0 10 2;
#X connect 3 1 11 2;
#X connect 3 2 12 2;
#X connect 3 3 13 2;
#X connect 3 4 14 2;
#X connect 3 5 15 2;
#X connect 4 0 9 0;
#X connect 5 0 10 0;
#X connect 5 1 11 0;
#X connect 5 2 12 0;
#X connect 5 3 13 0;
#X connect 5 4 14 0;
#X connect 5 5 15 0;
#X connect 6 0 16 0;
#X connect 7 0 17 0;
#X connect 8 0 18 0;
#X connect 10 0 4 0;
#X connect 11 0 4 1;
#X connect 12 0 4 2;
#X connect 13 0 4 3;
#X connect 14 0 4 4;
#X connect 15 0 4 5;
#X connect 16 0 5 0;
#X connect 17 0 16 0;
#X connect 17 1 0 0;
#X connect 18 0 16 0;
#X connect 18 1 1 0;
#X restore 531 108 pd vowel-interpolator;
#X obj 648 283 loadbang;
#N canvas 971 328 450 300 index-to-vowel 0;
#X msg 84 119 a;
#X msg 114 119 e;
#X msg 144 119 i;
#X msg 174 119 o;
#X msg 204 119 u;
#X msg 234 119 ou;
#X obj 88 90 sel 0 1 2 3 4 5;
#X obj 90 49 inlet;
#X obj 94 200 outlet;
#X connect 0 0 8 0;
#X connect 1 0 8 0;
#X connect 2 0 8 0;
#X connect 3 0 8 0;
#X connect 4 0 8 0;
#X connect 5 0 8 0;
#X connect 6 0 0 0;
#X connect 6 1 1 0;
#X connect 6 2 2 0;
#X connect 6 3 3 0;
#X connect 6 4 4 0;
#X connect 6 5 5 0;
#X connect 7 0 6 0;
#X restore 592 47 pd index-to-vowel;
#N canvas 971 328 450 300 index-to-vowel 0;
#X msg 84 119 a;
#X msg 114 119 e;
#X msg 144 119 i;
#X msg 174 119 o;
#X msg 204 119 u;
#X msg 234 119 ou;
#X obj 88 90 sel 0 1 2 3 4 5;
#X obj 90 49 inlet;
#X obj 94 200 outlet;
#X connect 0 0 8 0;
#X connect 1 0 8 0;
#X connect 2 0 8 0;
#X connect 3 0 8 0;
#X connect 4 0 8 0;
#X connect 5 0 8 0;
#X connect 6 0 0 0;
#X connect 6 1 1 0;
#X connect 6 2 2 0;
#X connect 6 3 3 0;
#X connect 6 4 4 0;
#X connect 6 5 5 0;
#X connect 7 0 6 0;
#X restore 702 47 pd index-to-vowel;
#N canvas 739 96 450 300 vowels-list 0;
#X msg 150 99 a 730 1090 2440 1 0.5 0.33;
#X msg 150 121 e 441 1500 2576 1 0.5 0.2;
#X msg 150 209 ou 300 700 2240 1 0.3 0;
#X msg 150 143 i 270 2290 3010 0.7 0.05 0.3;
#X msg 150 187 u 288 1777 2089 1 0.25 0.1;
#X msg 150 165 o 420 775 2410 1 0.33 0.25;
#X obj 235 59 sel a e i o u ou;
#X obj 220 13 inlet;
#X obj 125 266 outlet;
#X obj 95 231 list split 1;
#X obj 220 34 symbol;
#X connect 0 0 9 0;
#X connect 1 0 9 0;
#X connect 2 0 9 0;
#X connect 3 0 9 0;
#X connect 4 0 9 0;
#X connect 5 0 9 0;
#X connect 6 0 0 0;
#X connect 6 1 1 0;
#X connect 6 2 3 0;
#X connect 6 3 5 0;
#X connect 6 4 4 0;
#X connect 6 5 2 0;
#X connect 7 0 10 0;
#X connect 9 1 8 0;
#X connect 10 0 6 0;
#X restore 703 204 pd vowels-list;
#N canvas 739 96 450 300 vowels-list 0;
#X msg 150 99 a 730 1090 2440 1 0.5 0.33;
#X msg 150 121 e 441 1500 2576 1 0.5 0.2;
#X msg 150 209 ou 300 700 2240 1 0.3 0;
#X msg 150 143 i 270 2290 3010 0.7 0.05 0.3;
#X msg 150 187 u 288 1777 2089 1 0.25 0.1;
#X msg 150 165 o 420 775 2410 1 0.33 0.25;
#X obj 242 55 sel a e i o u ou;
#X obj 221 7 inlet;
#X obj 125 266 outlet;
#X obj 95 231 list split 1;
#X obj 221 30 symbol;
#X connect 0 0 9 0;
#X connect 1 0 9 0;
#X connect 2 0 9 0;
#X connect 3 0 9 0;
#X connect 4 0 9 0;
#X connect 5 0 9 0;
#X connect 6 0 0 0;
#X connect 6 1 1 0;
#X connect 6 2 3 0;
#X connect 6 3 5 0;
#X connect 6 4 4 0;
#X connect 6 5 2 0;
#X connect 7 0 10 0;
#X connect 9 1 8 0;
#X connect 10 0 6 0;
#X restore 593 204 pd vowels-list;
#N canvas 971 328 450 300 index-to-vowel 0;
#X msg 84 119 a;
#X msg 114 119 e;
#X msg 144 119 i;
#X msg 174 119 o;
#X msg 204 119 u;
#X msg 234 119 ou;
#X obj 88 90 sel 0 1 2 3 4 5;
#X obj 90 49 inlet;
#X obj 94 200 outlet;
#X connect 0 0 8 0;
#X connect 1 0 8 0;
#X connect 2 0 8 0;
#X connect 3 0 8 0;
#X connect 4 0 8 0;
#X connect 5 0 8 0;
#X connect 6 0 0 0;
#X connect 6 1 1 0;
#X connect 6 2 2 0;
#X connect 6 3 3 0;
#X connect 6 4 4 0;
#X connect 6 5 5 0;
#X connect 7 0 6 0;
#X restore 593 182 pd index-to-vowel;
#N canvas 971 328 450 300 index-to-vowel 0;
#X msg 84 119 a;
#X msg 114 119 e;
#X msg 144 119 i;
#X msg 174 119 o;
#X msg 204 119 u;
#X msg 234 119 ou;
#X obj 88 90 sel 0 1 2 3 4 5;
#X obj 90 49 inlet;
#X obj 94 200 outlet;
#X connect 0 0 8 0;
#X connect 1 0 8 0;
#X connect 2 0 8 0;
#X connect 3 0 8 0;
#X connect 4 0 8 0;
#X connect 5 0 8 0;
#X connect 6 0 0 0;
#X connect 6 1 1 0;
#X connect 6 2 2 0;
#X connect 6 3 3 0;
#X connect 6 4 4 0;
#X connect 6 5 5 0;
#X connect 7 0 6 0;
#X restore 703 182 pd index-to-vowel;
#X obj 592 26 r \$0-B1-vowel-o;
#X obj 702 26 r \$0-B2-vowel-o;
#X obj 703 160 r \$0-A2-vowel-o;
#X obj 593 160 r \$0-A1-vowel-o;
#X obj 504 134 r \$0-A-interp-o;
#X obj 483 53 r \$0-B-interp-o;
#X obj 495 256 r \$0-AB-interp-o;
#X obj 401 147 line~;
#X msg 401 128 \$1 10;
#X obj 401 108 r \$0-drywet-o;
#X obj 524 442 project/parameter-simple A1-vowel \$1 \$2 \$0;
#X obj 524 460 project/parameter-simple A2-vowel \$1 \$2 \$0;
#X obj 524 478 project/parameter-simple B1-vowel \$1 \$2 \$0;
#X obj 524 496 project/parameter-simple B2-vowel \$1 \$2 \$0;
#X msg 86 386 menuclose \, relocate 322x263+0+0 0x0+50+50;
#X obj 504 155 t b f;
#X obj 483 74 t b f;
#X obj 509 312 list prepend x;
#X msg 648 303 15;
#N canvas 611 360 547 371 vowel-interpolator 0;
#X obj 221 70 list;
#X obj 357 70 list;
#X obj 221 102 unpack f f f f f f;
#X obj 357 103 unpack f f f f f f;
#X obj 61 293 pack f f f f f f;
#X obj 103 114 t f f f f f f;
#X obj 86 13 inlet;
#X obj 223 22 inlet;
#X obj 365 20 inlet;
#X obj 65 323 outlet;
#X obj 104 143 expr (1 - $f1) * $f2 + $f1 * $f3;
#X obj 116 166 expr (1 - $f1) * $f2 + $f1 * $f3;
#X obj 132 189 expr (1 - $f1) * $f2 + $f1 * $f3;
#X obj 147 212 expr (1 - $f1) * $f2 + $f1 * $f3;
#X obj 159 235 expr (1 - $f1) * $f2 + $f1 * $f3;
#X obj 175 258 expr (1 - $f1) * $f2 + $f1 * $f3;
#X obj 95 89 f;
#X obj 192 43 t b a;
#X obj 343 43 t b a;
#X connect 0 0 2 0;
#X connect 1 0 3 0;
#X connect 2 0 10 1;
#X connect 2 1 11 1;
#X connect 2 2 12 1;
#X connect 2 3 13 1;
#X connect 2 4 14 1;
#X connect 2 5 15 1;
#X connect 3 0 10 2;
#X connect 3 1 11 2;
#X connect 3 2 12 2;
#X connect 3 3 13 2;
#X connect 3 4 14 2;
#X connect 3 5 15 2;
#X connect 4 0 9 0;
#X connect 5 0 10 0;
#X connect 5 1 11 0;
#X connect 5 2 12 0;
#X connect 5 3 13 0;
#X connect 5 4 14 0;
#X connect 5 5 15 0;
#X connect 6 0 16 0;
#X connect 7 0 17 0;
#X connect 8 0 18 0;
#X connect 10 0 4 0;
#X connect 11 0 4 1;
#X connect 12 0 4 2;
#X connect 13 0 4 3;
#X connect 14 0 4 4;
#X connect 15 0 4 5;
#X connect 16 0 5 0;
#X connect 17 0 16 0;
#X connect 17 1 0 0;
#X connect 18 0 16 0;
#X connect 18 1 1 0;
#X restore 534 232 pd vowel-interpolator;
#N canvas 611 360 547 371 vowel-interpolator 0;
#X obj 221 70 list;
#X obj 357 70 list;
#X obj 221 102 unpack f f f f f f;
#X obj 357 103 unpack f f f f f f;
#X obj 61 293 pack f f f f f f;
#X obj 103 114 t f f f f f f;
#X obj 86 13 inlet;
#X obj 223 22 inlet;
#X obj 365 20 inlet;
#X obj 65 323 outlet;
#X obj 104 143 expr (1 - $f1) * $f2 + $f1 * $f3;
#X obj 116 166 expr (1 - $f1) * $f2 + $f1 * $f3;
#X obj 132 189 expr (1 - $f1) * $f2 + $f1 * $f3;
#X obj 147 212 expr (1 - $f1) * $f2 + $f1 * $f3;
#X obj 159 235 expr (1 - $f1) * $f2 + $f1 * $f3;
#X obj 175 258 expr (1 - $f1) * $f2 + $f1 * $f3;
#X obj 95 89 f;
#X obj 192 43 t b a;
#X obj 343 43 t b a;
#X connect 0 0 2 0;
#X connect 1 0 3 0;
#X connect 2 0 10 1;
#X connect 2 1 11 1;
#X connect 2 2 12 1;
#X connect 2 3 13 1;
#X connect 2 4 14 1;
#X connect 2 5 15 1;
#X connect 3 0 10 2;
#X connect 3 1 11 2;
#X connect 3 2 12 2;
#X connect 3 3 13 2;
#X connect 3 4 14 2;
#X connect 3 5 15 2;
#X connect 4 0 9 0;
#X connect 5 0 10 0;
#X connect 5 1 11 0;
#X connect 5 2 12 0;
#X connect 5 3 13 0;
#X connect 5 4 14 0;
#X connect 5 5 15 0;
#X connect 6 0 16 0;
#X connect 7 0 17 0;
#X connect 8 0 18 0;
#X connect 10 0 4 0;
#X connect 11 0 4 1;
#X connect 12 0 4 2;
#X connect 13 0 4 3;
#X connect 14 0 4 4;
#X connect 15 0 4 5;
#X connect 16 0 5 0;
#X connect 17 0 16 0;
#X connect 17 1 0 0;
#X connect 18 0 16 0;
#X connect 18 1 1 0;
#X restore 505 286 pd vowel-interpolator;
#X obj 427 285 *~;
#X obj 452 234 line~;
#X msg 452 215 \$1 10;
#X obj 452 195 r \$0-gain-o;
#X obj 523 514 project/parameter-simple gain \$1 \$2 \$0;
#X obj 51 51 cnv 15 162 197 empty empty \$1 4 10 0 12 #fcfcfc #404040
0;
#X obj 105 129 hsl 55 12 0 1 0 0 \$0-AB-interp-o \$0-AB-interp-i AB\\\ interp
2 6 0 10 #fcfcfc #000000 #b8b8b8 0 0;
#X obj 55 187 hsl 55 12 0 1 0 0 \$0-A-interp-o \$0-A-interp-i A\\\ interp
2 6 0 10 #fcfcfc #000000 #b8b8b8 0 0;
#X obj 55 70 hsl 155 12 0 1 0 0 \$0-drywet-o \$0-drywet-i drywet 2
6 0 10 #fcfcfc #000000 #b8b8b8 0 0;
#X obj 55 201 hsl 155 12 0 1 0 0 \$0-volume-o \$0-volume-i volume 2
6 0 10 #fcfcfc #000000 #b8b8b8 0 0;
#X obj 52 232 bng 15 250 50 0 \$0-reset-mapping-o \$0-reset-mapping-i
reset_mapping 17 7 0 10 #fcfcfc #000000 #000000;
#X obj 52 215 bng 15 250 50 0 \$0-show-mapping-o \$0-show-mapping-i
show_mapping 17 7 0 10 #fcfcfc #000000 #000000;
#X obj 69 101 vradio 12 1 0 6 \$0-A1-vowel-o \$0-A1-vowel-i empty 0
-8 0 10 #fcfcfc #000000 #000000 0;
#X obj 81 101 vradio 12 1 0 6 \$0-A2-vowel-o \$0-A2-vowel-i empty 0
-8 0 10 #fcfcfc #000000 #000000 0;
#X text 58 98 a;
#X text 58 110 e;
#X text 58 123 i;
#X text 58 135 o;
#X text 58 147 u;
#X text 52 159 ou;
#X obj 171 101 vradio 12 1 0 6 \$0-B1-vowel-o \$0-B1-vowel-i empty
0 -8 0 10 #fcfcfc #000000 #000000 0;
#X obj 183 101 vradio 12 1 0 6 \$0-B2-vowel-o \$0-B2-vowel-i empty
0 -8 0 10 #fcfcfc #000000 #000000 0;
#X text 197 98 a;
#X text 197 110 e;
#X text 197 123 i;
#X text 197 135 o;
#X text 197 147 u;
#X text 197 159 ou;
#X obj 155 187 hsl 55 12 0 1 0 0 \$0-B-interp-o \$0-B-interp-i B\\\ interp
2 6 0 10 #fcfcfc #000000 #b8b8b8 0 0;
#X text 77 172 A;
#X text 180 172 B;
#X floatatom 52 84 10 1 1000 1 gain \$0-gain-i \$0-gain-o 0;
#X obj 193 51 cnv 16 16 16 empty empty \$3 4 10 0 12 #fcfcfc #404040
0;
#X obj 440 360 ../abstractions/formant-filter~;
#X obj 390 461 *~;
#X obj 371 185 jl/split~;
#X obj 453 286 *~;
#X obj 354 501 s~ \$1-audio-out-left;
#X obj 390 481 s~ \$1-audio-out-right;
#X obj 281 41 r~ \$1-audio-in-left;
#X obj 349 64 r~ \$1-audio-in-right;
#X obj 230 297 loadbang;
#X msg 230 316 1;
#X obj 230 335 s \$0-gain-i;
#X connect 0 0 6 0;
#X connect 2 0 3 0;
#X connect 4 0 2 0;
#X connect 5 0 40 0;
#X connect 6 0 8 0;
#X connect 9 0 84 0;
#X connect 10 0 9 1;
#X connect 10 0 81 1;
#X connect 11 0 10 0;
#X connect 12 0 11 0;
#X connect 14 0 9 0;
#X connect 15 0 9 0;
#X connect 15 1 47 0;
#X connect 16 0 18 2;
#X connect 17 0 18 1;
#X connect 18 0 46 2;
#X connect 19 0 44 0;
#X connect 20 0 17 0;
#X connect 21 0 16 0;
#X connect 22 0 45 2;
#X connect 23 0 45 1;
#X connect 24 0 23 0;
#X connect 25 0 22 0;
#X connect 26 0 20 0;
#X connect 27 0 21 0;
#X connect 28 0 25 0;
#X connect 29 0 24 0;
#X connect 30 0 41 0;
#X connect 31 0 42 0;
#X connect 32 0 46 0;
#X connect 33 0 15 1;
#X connect 33 0 82 1;
#X connect 34 0 33 0;
#X connect 35 0 34 0;
#X connect 40 0 8 0;
#X connect 41 0 46 0;
#X connect 41 1 45 0;
#X connect 42 0 46 0;
#X connect 42 1 18 0;
#X connect 43 0 14 1;
#X connect 43 0 80 1;
#X connect 44 0 14 2;
#X connect 44 0 80 2;
#X connect 45 0 46 1;
#X connect 46 0 43 0;
#X connect 47 0 14 0;
#X connect 48 0 47 1;
#X connect 48 0 83 1;
#X connect 49 0 48 0;
#X connect 50 0 49 0;
#X connect 80 0 81 0;
#X connect 81 0 85 0;
#X connect 82 0 81 0;
#X connect 82 1 83 0;
#X connect 83 0 80 0;
#X connect 86 0 15 0;
#X connect 87 0 82 0;
#X connect 88 0 89 0;
#X connect 89 0 90 0;
#X coords 0 -1 1 1 164 199 2 50 50;
