#N canvas 280 102 968 772 10;
#X obj 476 289 r \$0-pitch-o;
#X msg 523 329 pitch \$1;
#X msg 657 447 pan \$1;
#X obj 523 480 *~;
#X obj 613 424 line~;
#X msg 613 405 \$1 10;
#X obj 523 309 r \$0-detune-o;
#X obj 613 385 r \$0-volume-o;
#X obj 51 51 cnv 15 162 193 empty empty \$1 4 10 0 12 -262144 -66577
0;
#X obj 55 135 hsl 155 12 0 1 0 0 \$0-length-o \$0-length-i length 2
6 0 10 -262144 -1 -191407 1500 0;
#X obj 55 183 hsl 155 12 0 1 0 0 \$0-panning-o \$0-panning-i panning
2 6 0 10 -262144 -1 -191407 6600 0;
#X floatatom 52 149 10 0 0 1 detune #0-detune-i #0-detune-o;
#X floatatom 52 166 10 0 0 1 pitch #0-pitch-i #0-pitch-o;
#X obj 55 121 hsl 155 12 0 1 0 0 \$0-begin-o \$0-begin-i begin 2 6
0 10 -262144 -1 -191407 9700 0;
#X obj 55 197 hsl 155 12 0 1 0 0 \$0-volume-o \$0-volume-i volume 2
6 0 10 -262144 -1 -191407 9200 0;
#X obj 52 228 bng 15 250 50 0 \$0-reset-mapping-o \$0-reset-mapping-i
reset_mapping 17 7 0 10 -262144 -1 -1;
#X obj 52 211 bng 15 250 50 0 \$0-show-mapping-o \$0-show-mapping-i
show_mapping 17 7 0 10 -262144 -1 -1;
#X obj 50 521 r \$0-show-mapping-o;
#X text 317 524 WxHx0+0 0x0+X+Y;
#X msg 170 591 0;
#N canvas 0 23 450 300 set-all-input-modes 0;
#X obj 79 128 s \$0-begin-mode;
#X obj 90 147 s \$0-length-mode;
#X obj 108 166 s \$0-pitch-mode;
#X obj 126 185 s \$0-panning-mode;
#X obj 190 261 s \$0-volume-mode;
#X obj 124 61 inlet;
#X obj 141 204 s \$0-play-mode;
#X obj 159 223 s \$0-loop-mode;
#X obj 177 242 s \$0-rvs-mode;
#X obj 124 84 t f f f f f f f f;
#X connect 5 0 9 0;
#X connect 9 0 0 0;
#X connect 9 1 1 0;
#X connect 9 2 2 0;
#X connect 9 3 3 0;
#X connect 9 4 6 0;
#X connect 9 5 7 0;
#X connect 9 6 8 0;
#X connect 9 7 4 0;
#X restore 170 611 pd set-all-input-modes;
#X obj 170 571 r \$0-reset-mapping-o;
#X obj 657 428 r \$0-panning-o;
#X text 440 68 arguments : <module_name> <project_name> <soundbank_name>
;
#X obj 523 585 s~ \$1-audio-out-left;
#X obj 574 566 s~ \$1-audio-out-right;
#X obj 172 521 loadbang;
#X msg 50 541 vis 1;
#X obj 80 308 s \$0-sound-i;
#X obj 173 362 loadbang;
#X msg 80 288 1;
#X obj 523 406 jl/gbend~;
#X obj 523 539 jl/split~;
#X obj 657 485 line~;
#X msg 657 466 \$1 10;
#X msg 341 408 stop;
#X obj 628 329 bng 15 250 50 0 empty empty empty 17 7 0 10 -262144
-1 -1;
#X msg 312 341 beg \$1;
#X obj 312 258 *;
#X obj 390 258 *;
#X msg 360 341 end \$1;
#X obj 353 229 t b f;
#X obj 312 169 r \$0-begin-o;
#X obj 390 229 r \$0-length-o;
#X obj 312 277 t f f;
#X obj 360 320 +;
#X obj 390 277 t b f;
#X msg 363 449 loop \$1;
#X msg 403 490 rvs \$1;
#X obj 708 566 s \$1-event-out;
#X obj 363 430 r \$0-loop-o;
#X obj 403 471 r \$0-rvs-o;
#X obj 52 87 bng 15 250 50 0 \$0-play-bang-o \$0-play-bang-i play 17
7 0 10 -262144 -1 -1;
#X obj 52 104 bng 15 250 50 0 \$0-stop-o \$0-stop-i stop 17 7 0 10
-262144 -1 -1;
#X obj 197 104 tgl 15 0 \$0-rvs-o \$0-rvs-i rvs -20 7 0 10 -262144
-1 -1 0 1;
#X obj 197 87 tgl 15 0 \$0-loop-o \$0-loop-i loop -26 7 0 10 -262144
-1 -1 1 1;
#X obj 341 389 r \$0-stop-o;
#X msg 756 250 1;
#X obj 756 304 spigot;
#X msg 794 269 0;
#X obj 775 179 t b b f;
#X obj 756 269 t f f;
#X obj 832 344 s \$0-trig;
#X obj 865 240 loadbang;
#X msg 865 259 1;
#X obj 628 291 r \$0-trig;
#X obj 628 310 t b f;
#X msg 172 541 menuclose \, relocate 421x263+0+0 0x0+50+50;
#X obj 370 621 project/module-preset \$1 \$2 \$0;
#X obj 52 70 project/sound-selector sound \$3 \$0;
#X obj 50 571 s pd-\$0-parameters;
#N canvas 50 50 421 263 \$0-parameters 0;
#X obj 8 8 project/parameter-trig play \$1 \$2 \$0;
#X obj 311 8 project/parameter volume \$1 \$2 \$0;
#X obj 210 8 project/parameter pitch \$1 \$2 \$0;
#X obj 311 131 project/parameter panning \$1 \$2 \$0;
#X obj 109 131 project/parameter length \$1 \$2 \$0;
#X obj 8 131 project/parameter begin \$1 \$2 \$0;
#X obj 109 8 project/parameter-toggle loop \$1 \$2 \$0;
#X obj 210 131 project/parameter-toggle rvs \$1 \$2 \$0;
#X restore 50 591 pd \$0-parameters;
#X obj 775 159 r \$0-play-i;
#X obj 534 355 r \$0-sound-info;
#X msg 534 374 set \$1 \$3;
#X text 632 355 < set <array_name> <sr>;
#X obj 353 191 r \$0-sound-info;
#X msg 353 210 \$4;
#X obj 756 231 r \$0-play-bang-o;
#X obj 756 209 s \$0-play-bang-i;
#X obj 476 330 line~;
#X msg 476 310 \$1 2;
#X obj 80 348 s \$0-length-i;
#X msg 80 328 1;
#X msg 80 368 0.5;
#X obj 80 388 s \$0-panning-i;
#X text 217 69 [sound-selector sound \$3 \$0];
#X obj 370 640 project/parameter-simple sound \$1 \$2 \$0;
#X obj 370 659 project/parameter-simple detune \$1 \$2 \$0;
#X text 541 216 really keep this messy thing ? >;
#X connect 0 0 81 0;
#X connect 1 0 31 0;
#X connect 2 0 34 0;
#X connect 3 0 32 0;
#X connect 4 0 3 1;
#X connect 5 0 4 0;
#X connect 6 0 1 0;
#X connect 7 0 5 0;
#X connect 17 0 27 0;
#X connect 19 0 20 0;
#X connect 21 0 19 0;
#X connect 22 0 2 0;
#X connect 26 0 67 0;
#X connect 27 0 70 0;
#X connect 29 0 30 0;
#X connect 29 0 83 0;
#X connect 29 0 84 0;
#X connect 30 0 28 0;
#X connect 31 0 3 0;
#X connect 31 1 49 0;
#X connect 32 0 24 0;
#X connect 32 1 25 0;
#X connect 33 0 32 1;
#X connect 34 0 33 0;
#X connect 35 0 31 0;
#X connect 36 0 31 0;
#X connect 37 0 31 0;
#X connect 38 0 44 0;
#X connect 39 0 46 0;
#X connect 40 0 31 0;
#X connect 41 0 38 0;
#X connect 41 0 39 0;
#X connect 41 1 38 1;
#X connect 41 1 39 1;
#X connect 42 0 38 0;
#X connect 43 0 39 0;
#X connect 44 0 37 0;
#X connect 44 1 45 0;
#X connect 45 0 40 0;
#X connect 46 0 45 0;
#X connect 46 1 45 1;
#X connect 47 0 31 0;
#X connect 48 0 31 0;
#X connect 50 0 47 0;
#X connect 51 0 48 0;
#X connect 56 0 35 0;
#X connect 57 0 61 0;
#X connect 58 0 62 0;
#X connect 59 0 58 1;
#X connect 60 0 79 0;
#X connect 60 1 59 0;
#X connect 60 2 62 0;
#X connect 61 0 58 1;
#X connect 61 1 58 0;
#X connect 63 0 64 0;
#X connect 64 0 58 1;
#X connect 65 0 66 0;
#X connect 66 0 36 0;
#X connect 67 0 70 0;
#X connect 72 0 60 0;
#X connect 73 0 74 0;
#X connect 74 0 31 0;
#X connect 76 0 77 0;
#X connect 77 0 41 0;
#X connect 78 0 57 0;
#X connect 80 0 31 0;
#X connect 81 0 80 0;
#X connect 83 0 82 0;
#X connect 84 0 85 0;
#X coords 0 -1 1 1 164 195 2 50 50;
