#N canvas 422 87 850 692 10;
#X obj 667 312 r \$0-drive-o;
#X msg 667 331 drive \$1;
#X obj 667 274 r \$0-shorten-o;
#X msg 667 293 shorten \$1;
#X msg 667 369 pan \$1;
#X obj 667 388 r \$0-width-o;
#X msg 667 407 width \$1;
#X obj 427 479 *~;
#X obj 470 476 *~;
#X obj 485 441 line~;
#X msg 485 422 \$1 10;
#X obj 485 402 r \$0-volume-o;
#X obj 51 51 cnv 15 162 263 empty empty \$1 4 10 0 12 #fcfcfc #404040
0;
#X floatatom 52 146 10 0.001 1e+06 1 speed \$0-speed-i \$0-speed-o
0;
#X obj 55 197 hsl 155 12 0 1 0 0 \$0-feedback-o \$0-feedback-i feedback
2 6 0 10 #fcfcfc #000000 #b8b8b8 0 0;
#X obj 55 239 hsl 155 12 0 1 0 0 \$0-panning-o \$0-panning-i panning
2 6 0 10 #fcfcfc #000000 #b8b8b8 0 0;
#X obj 55 253 hsl 155 12 0 1 0 0 \$0-width-o \$0-width-i width 2 6
0 10 #fcfcfc #000000 #b8b8b8 0 0;
#X floatatom 52 112 10 0 0 1 mindelay \$0-mindelay-i \$0-mindelay-o
0;
#X floatatom 52 129 10 0 0 1 maxdelay \$0-maxdelay-i \$0-maxdelay-o
0;
#X floatatom 52 163 10 0.001 1e+06 1 size \$0-size-i \$0-size-o 0;
#X obj 55 70 hsl 155 12 0 1 0 0 \$0-gain-o \$0-gain-i gain 2 6 0 10
#fcfcfc #000000 #b8b8b8 0 0;
#X obj 55 267 hsl 155 12 0 1 0 0 \$0-volume-o \$0-volume-i volume 2
6 0 10 #fcfcfc #000000 #b8b8b8 0 0;
#X obj 52 298 bng 15 250 50 0 \$0-reset-mapping-o \$0-reset-mapping-i
reset_mapping 17 7 0 10 #fcfcfc #000000 #000000;
#X obj 52 281 bng 15 250 50 0 \$0-show-mapping-o \$0-show-mapping-i
show_mapping 17 7 0 10 #fcfcfc #000000 #000000;
#X obj 74 343 r \$0-show-mapping-o;
#X text 233 388 WxHx0+0 0x0+X+Y;
#X msg 74 500 0;
#N canvas 642 183 450 300 set-all-input-modes 0;
#X obj 223 172 s \$0-shorten-mode;
#X obj 234 191 s \$0-drive-mode;
#X obj 247 210 s \$0-panning-mode;
#X obj 261 229 s \$0-width-mode;
#X obj 275 248 s \$0-volume-mode;
#X obj 162 32 inlet;
#X obj 78 153 s \$0-drywet-mode;
#X obj 89 172 s \$0-size-mode;
#X obj 102 191 s \$0-rsize-mode;
#X obj 116 210 s \$0-mindelay-mode;
#X obj 129 229 s \$0-maxdelay-mode;
#X obj 140 248 s \$0-speed-mode;
#X obj 211 153 s \$0-feedback-mode;
#X obj 67 134 s \$0-gain-mode;
#X obj 162 55 t f f f f f f f f f f f f f;
#X connect 5 0 14 0;
#X connect 14 0 13 0;
#X connect 14 1 6 0;
#X connect 14 2 7 0;
#X connect 14 3 8 0;
#X connect 14 4 9 0;
#X connect 14 5 10 0;
#X connect 14 6 11 0;
#X connect 14 7 12 0;
#X connect 14 8 0 0;
#X connect 14 9 1 0;
#X connect 14 10 2 0;
#X connect 14 11 3 0;
#X connect 14 12 4 0;
#X restore 74 520 pd set-all-input-modes;
#X obj 74 480 r \$0-reset-mapping-o;
#X obj 667 350 r \$0-panning-o;
#X obj 436 539 s~ \$1-audio-out-left;
#X obj 478 517 s~ \$1-audio-out-right;
#X obj 88 385 loadbang;
#X msg 74 363 vis 1;
#N canvas 50 50 524 386 \$1-parameters 0;
#X obj 312 254 project/parameter volume \$1 \$2 \$0;
#X obj 110 254 project/parameter panning \$1 \$2 \$0;
#X obj 312 131 project/parameter shorten \$1 \$2 \$0;
#X obj 413 131 project/parameter drive \$1 \$2 \$0;
#X obj 211 254 project/parameter width \$1 \$2 \$0;
#X obj 110 8 project/parameter drywet \$1 \$2 \$0;
#X obj 9 131 project/parameter size \$1 \$2 \$0;
#X obj 110 131 project/parameter rsize \$1 \$2 \$0;
#X obj 211 8 project/parameter mindelay \$1 \$2 \$0;
#X obj 312 8 project/parameter maxdelay \$1 \$2 \$0;
#X obj 413 8 project/parameter speed \$1 \$2 \$0;
#X obj 211 131 project/parameter feedback \$1 \$2 \$0;
#X obj 9 8 project/parameter gain \$1 \$2 \$0;
#X restore 74 449 pd \$1-parameters;
#X obj 74 429 s pd-\$1-parameters;
#X floatatom 52 180 10 0.001 1e+06 1 rsize \$0-rsize-i \$0-rsize-o
0;
#X obj 55 211 hsl 155 12 0 1 0 0 \$0-shorten-o \$0-shorten-i shorten
2 6 0 10 #fcfcfc #000000 #b8b8b8 0 0;
#X obj 55 225 hsl 155 12 0 1 0 0 \$0-drive-o \$0-drive-i drive 2 6
0 10 #fcfcfc #000000 #b8b8b8 0 0;
#X obj 415 178 r \$0-drywet-o;
#X msg 535 117 drywet \$1;
#X obj 535 149 r \$0-size-o;
#X msg 535 168 size \$1;
#X obj 535 187 r \$0-rsize-o;
#X msg 535 206 rsize \$1;
#X msg 535 320 speed \$1;
#X obj 535 301 r \$0-speed-o;
#X obj 535 225 r \$0-mindelay-o;
#X msg 535 244 mindelay \$1;
#X obj 535 263 r \$0-maxdelay-o;
#X msg 535 282 maxdelay \$1;
#X obj 667 236 r \$0-feedback-o;
#X msg 667 255 feedback \$1;
#X msg 88 405 menuclose \, relocate 524x386+0+0 0x0+50+50;
#X obj 55 84 hsl 155 12 0 1 0 0 \$0-drywet-o \$0-drywet-i drywet 2
6 0 10 #fcfcfc #000000 #b8b8b8 0 0;
#X obj 310 235 *~;
#X obj 374 180 line~;
#X msg 374 161 \$1 10;
#X obj 374 141 r \$0-gain-o;
#X obj 153 574 project/module-preset \$1 \$2 \$0;
#X obj 153 593 project/parameter-simple voices \$1 \$2 \$0;
#X obj 535 79 loadbang;
#X msg 535 98 1, f 2;
#N canvas 478 234 458 572 transcutter 0;
#N canvas 962 329 447 395 onepole 0;
#X obj 93 255 *;
#X obj 155 132 t f f;
#X obj 202 252 *;
#X obj 155 157 expr 1 - $f1;
#X obj 93 132 t f b;
#X obj 135 298 +;
#X obj 177 224 f;
#X obj 135 324 t f f;
#X obj 93 58 inlet;
#X obj 155 58 inlet;
#X obj 135 354 outlet;
#X obj 155 107 clip 0 1;
#X text 204 321 y(n) = a * x(n) + (1 - a) * y(n - 1);
#X text 204 302 this is a onepole filter :;
#X connect 0 0 5 0;
#X connect 1 0 3 0;
#X connect 1 1 2 1;
#X connect 2 0 5 1;
#X connect 3 0 0 1;
#X connect 4 0 0 0;
#X connect 4 1 6 0;
#X connect 5 0 7 0;
#X connect 6 0 2 0;
#X connect 7 0 10 0;
#X connect 7 1 6 1;
#X connect 8 0 4 0;
#X connect 9 0 11 0;
#X connect 11 0 1 0;
#X restore 194 193 pd onepole;
#X floatatom 253 173 5 0 0 0 - - - 0;
#X obj 144 160 t f f;
#X obj 174 214 -;
#X obj 253 133 loadbang;
#X obj 178 92 delwrite~ \$0-lookahead 100;
#N canvas 962 329 447 395 onepole 0;
#X obj 93 255 *;
#X obj 155 132 t f f;
#X obj 202 252 *;
#X obj 155 157 expr 1 - $f1;
#X obj 93 132 t f b;
#X obj 135 298 +;
#X obj 177 224 f;
#X obj 135 324 t f f;
#X obj 93 58 inlet;
#X obj 155 58 inlet;
#X obj 135 354 outlet;
#X obj 155 107 clip 0 1;
#X text 204 321 y(n) = a * x(n) + (1 - a) * y(n - 1);
#X text 204 302 this is a onepole filter :;
#X connect 0 0 5 0;
#X connect 1 0 3 0;
#X connect 1 1 2 1;
#X connect 2 0 5 1;
#X connect 3 0 0 1;
#X connect 4 0 0 0;
#X connect 4 1 6 0;
#X connect 5 0 7 0;
#X connect 6 0 2 0;
#X connect 7 0 10 0;
#X connect 7 1 6 1;
#X connect 8 0 4 0;
#X connect 9 0 11 0;
#X connect 11 0 1 0;
#X restore 172 286 pd onepole;
#X floatatom 136 217 5 0 0 0 - - - 0;
#X obj 144 118 env~ 1024;
#X obj 130 254 - 5;
#X obj 172 266 clip 0 1;
#X obj 144 139 dbtorms;
#X obj 172 245 * 15;
#X msg 253 153 0.95;
#X obj 83 21 inlet~;
#X floatatom 234 264 5 0 0 0 - - - 0;
#X obj 234 224 loadbang;
#X obj 173 307 pow 0.3;
#X msg 234 244 0.2;
#X obj 173 328 expr 1 - $f1;
#X obj 146 430 *~;
#X obj 131 387 line~;
#X obj 111 495 jl/merge~;
#X floatatom 197 367 5 0 0 0 - - - 0;
#X obj 195 456 line~;
#X msg 195 437 \$1 10;
#X msg 131 367 \$1 11.61;
#X obj 197 387 delread~ \$0-lookahead 23.22;
#X obj 164 68 *~ 1;
#X obj 112 520 outlet~;
#X obj 195 417 r \$0-transatt-o;
#X connect 0 0 3 1;
#X connect 1 0 0 1;
#X connect 2 0 3 0;
#X connect 2 1 0 0;
#X connect 3 0 9 0;
#X connect 3 0 12 0;
#X connect 4 0 13 0;
#X connect 6 0 17 0;
#X connect 7 0 9 1;
#X connect 8 0 11 0;
#X connect 10 0 6 0;
#X connect 11 0 2 0;
#X connect 12 0 10 0;
#X connect 13 0 1 0;
#X connect 14 0 22 0;
#X connect 14 0 28 0;
#X connect 15 0 6 1;
#X connect 16 0 18 0;
#X connect 17 0 19 0;
#X connect 18 0 15 0;
#X connect 19 0 26 0;
#X connect 20 0 22 1;
#X connect 21 0 20 0;
#X connect 22 0 29 0;
#X connect 23 0 27 0;
#X connect 24 0 22 2;
#X connect 25 0 24 0;
#X connect 26 0 21 0;
#X connect 27 0 20 1;
#X connect 28 0 5 0;
#X connect 28 0 8 0;
#X connect 30 0 25 0;
#X restore 376 344 pd transcutter;
#X obj 353 310 jl/split~;
#X obj 415 224 line~;
#X msg 415 205 \$1 5;
#X obj 376 483 *~;
#X obj 55 98 hsl 155 12 0 1 0 0 \$0-transatt-o \$0-transatt-i transient\\\ attenuation
2 6 0 10 #fcfcfc #000000 #b8b8b8 0 0;
#X obj 153 612 project/parameter-simple transatt \$1 \$2 \$0;
#X obj 375 94 r~ \$1-audio-in-right;
#X obj 253 94 r~ \$1-audio-in-left;
#X obj 193 51 cnv 16 16 16 empty empty \$3 4 10 0 12 #fcfcfc #404040
0;
#X text 228 53 arguments : <module_name> <project_name> <fx_index>
;
#X text 541 53 <nb_voices> <delay_line_duration>;
#X obj 377 367 jl/gdelay~ \$4 \$5;
#X connect 0 0 1 0;
#X connect 1 0 75 1;
#X connect 2 0 3 0;
#X connect 3 0 75 1;
#X connect 4 0 75 1;
#X connect 5 0 6 0;
#X connect 6 0 75 1;
#X connect 7 0 30 0;
#X connect 8 0 31 0;
#X connect 9 0 7 1;
#X connect 9 0 8 1;
#X connect 9 0 67 1;
#X connect 10 0 9 0;
#X connect 11 0 10 0;
#X connect 24 0 33 0;
#X connect 26 0 27 0;
#X connect 28 0 26 0;
#X connect 29 0 4 0;
#X connect 32 0 53 0;
#X connect 33 0 35 0;
#X connect 39 0 66 0;
#X connect 40 0 75 1;
#X connect 41 0 42 0;
#X connect 42 0 75 1;
#X connect 43 0 44 0;
#X connect 44 0 75 1;
#X connect 45 0 75 1;
#X connect 46 0 45 0;
#X connect 47 0 48 0;
#X connect 48 0 75 1;
#X connect 49 0 50 0;
#X connect 50 0 75 1;
#X connect 51 0 52 0;
#X connect 52 0 75 1;
#X connect 53 0 35 0;
#X connect 55 0 64 0;
#X connect 56 0 55 1;
#X connect 57 0 56 0;
#X connect 58 0 57 0;
#X connect 61 0 62 0;
#X connect 62 0 40 0;
#X connect 63 0 75 0;
#X connect 64 0 67 0;
#X connect 64 1 63 0;
#X connect 65 0 64 1;
#X connect 66 0 65 0;
#X connect 67 0 30 0;
#X connect 67 0 31 0;
#X connect 70 0 55 0;
#X connect 71 0 55 0;
#X connect 75 0 7 0;
#X connect 75 1 8 0;
#X coords 0 -1 1 1 164 265 2 50 50;
