#N canvas 160 104 976 589 10;
#X obj 51 51 cnv 15 162 218 empty empty \$1 4 10 0 12 #fcfcfc #404040
0;
#X floatatom 52 115 10 0.001 1e+06 1 speed \$0-speed-i \$0-speed-o
0;
#X obj 55 194 hsl 155 12 0 1 0 0 \$0-panning-o \$0-panning-i panning
2 6 0 10 #fcfcfc #000000 #b8b8b8 0 0;
#X obj 55 208 hsl 155 12 0 1 0 0 \$0-width-o \$0-width-i width 2 6
0 10 #fcfcfc #000000 #b8b8b8 0 0;
#X floatatom 52 132 10 0.001 1e+06 1 size \$0-size-i \$0-size-o 0;
#X obj 55 222 hsl 155 12 0 1 0 0 \$0-volume-o \$0-volume-i volume 2
6 0 10 #fcfcfc #000000 #b8b8b8 0 0;
#X obj 52 253 bng 15 250 50 0 \$0-reset-mapping-o \$0-reset-mapping-i
reset_mapping 17 7 0 10 #fcfcfc #000000 #000000;
#X obj 52 236 bng 15 250 50 0 \$0-show-mapping-o \$0-show-mapping-i
show_mapping 17 7 0 10 #fcfcfc #000000 #000000;
#X obj 55 166 hsl 155 12 0 1 0 0 \$0-shorten-o \$0-shorten-i shorten
2 6 0 10 #fcfcfc #000000 #b8b8b8 0 0;
#X obj 55 180 hsl 155 12 0 1 0 0 \$0-drive-o \$0-drive-i drive 2 6
0 10 #fcfcfc #000000 #b8b8b8 0 0;
#X obj 193 51 cnv 16 16 16 empty empty \$3 4 10 0 12 #fcfcfc #404040
0;
#X obj 651 245 r \$0-drive-o;
#X msg 651 264 drive \$1;
#X obj 651 207 r \$0-shorten-o;
#X msg 651 226 shorten \$1;
#X msg 651 302 pan \$1;
#X obj 651 321 r \$0-width-o;
#X msg 651 340 width \$1;
#X obj 358 413 *~;
#X obj 389 413 *~;
#X obj 448 372 line~;
#X obj 448 332 r \$0-volume-o;
#X obj 651 283 r \$0-panning-o;
#X obj 358 471 s~ \$1-audio-out-left;
#X obj 389 450 s~ \$1-audio-out-right;
#X obj 651 131 r \$0-size-o;
#X msg 651 150 size \$1;
#X msg 651 112 speed \$1;
#X obj 651 93 r \$0-speed-o;
#X obj 55 87 hsl 155 12 0 1 0 0 \$0-begin-o \$0-begin-i begin 2 6 0
10 #fcfcfc #000000 #b8b8b8 0 0;
#X obj 55 101 hsl 155 12 0 1 0 0 \$0-length-o \$0-length-i length 2
6 0 10 #fcfcfc #000000 #b8b8b8 0 0;
#X msg 760 172 beg \$1;
#X msg 841 172 len \$1;
#X obj 760 108 r \$0-begin-o;
#X obj 841 108 r \$0-length-o;
#X obj 651 169 r \$0-pitch-o;
#X msg 651 188 pitch \$1;
#X floatatom 52 149 10 0 0 1 pitch \$0-pitch-i \$0-pitch-o 0;
#X obj 288 30 r~ \$1-audio-in-left;
#X obj 301 53 r~ \$1-audio-in-right;
#N canvas 181 158 633 520 recorder~ 0;
#X obj 67 48 inlet~;
#X obj 67 298 tabwrite~ \$0-buffer;
#X obj 151 48 inlet;
#X msg 271 181 stop;
#X obj 67 325 array define \$0-buffer 1.323e+06;
#X text 268 325 < 30s @ 44100Hz;
#X obj 67 240 *~;
#X obj 151 133 line~;
#X obj 151 111 pack f f;
#X msg 267 229 const 0;
#X obj 267 250 send \$0-buffer;
#X obj 237 140 t b b b;
#X obj 308 181 timer;
#X obj 289 140 t b b;
#X obj 419 316 samplerate~;
#X obj 400 384 / 1.323e+06;
#X obj 400 363 *;
#X obj 400 270 * 0.001;
#X obj 400 404 clip 0 1;
#X obj 463 360 expr size("$s1");
#X obj 463 340 symbol \$0-buffer;
#X obj 400 290 t f b b;
#X obj 400 451 outlet fraction;
#N canvas 519 414 450 300 delay-tgl-vals 0;
#X obj 137 76 t f f;
#X obj 188 141 delay;
#X obj 137 141 delay;
#X obj 137 111 sel 1;
#X msg 137 162 1;
#X obj 188 110 sel 0;
#X msg 188 162 0;
#X obj 137 187 t f;
#X obj 188 187 t f;
#X obj 137 52 inlet;
#X obj 246 60 inlet;
#X obj 95 261 outlet 1-delayed;
#X obj 213 251 outlet 0-delayed;
#X connect 0 0 3 0;
#X connect 0 1 5 0;
#X connect 1 0 6 0;
#X connect 2 0 4 0;
#X connect 3 0 2 0;
#X connect 3 1 7 0;
#X connect 4 0 7 0;
#X connect 5 0 1 0;
#X connect 5 1 8 0;
#X connect 6 0 8 0;
#X connect 7 0 11 0;
#X connect 8 0 12 0;
#X connect 9 0 0 0;
#X connect 10 0 2 1;
#X connect 10 0 1 1;
#X restore 151 90 pd delay-tgl-vals;
#X obj 223 48 r \$0-fade;
#X obj 223 69 t f f;
#X obj 250 111 sel 1 0;
#X obj 213 217 t a;
#X connect 0 0 6 0;
#X connect 2 0 23 0;
#X connect 3 0 27 0;
#X connect 6 0 1 0;
#X connect 7 0 6 1;
#X connect 8 0 7 0;
#X connect 9 0 10 0;
#X connect 11 0 27 0;
#X connect 11 1 9 0;
#X connect 11 2 12 0;
#X connect 12 0 17 0;
#X connect 13 0 3 0;
#X connect 13 1 12 1;
#X connect 14 0 16 1;
#X connect 15 0 18 0;
#X connect 16 0 15 0;
#X connect 17 0 21 0;
#X connect 18 0 22 0;
#X connect 19 0 15 1;
#X connect 20 0 19 0;
#X connect 21 0 16 0;
#X connect 21 1 14 0;
#X connect 21 2 20 0;
#X connect 23 0 8 0;
#X connect 23 1 26 0;
#X connect 24 0 25 0;
#X connect 25 0 8 1;
#X connect 25 1 23 1;
#X connect 26 0 11 0;
#X connect 26 1 13 0;
#X connect 27 0 1 0;
#X restore 288 147 pd recorder~;
#X obj 52 70 tgl 15 0 \$0-record-o \$0-record-i record 17 7 0 10 #fcfcfc
#000000 #000000 0 1;
#X obj 357 97 r \$0-record-o;
#X obj 357 118 t f f;
#X obj 437 279 line~;
#X obj 358 371 *~;
#X obj 389 371 *~;
#X obj 290 281 jl/gflow~ 4 \$0-buffer;
#X obj 589 384 t a;
#X obj 589 404 s \$0-to-gflow;
#X obj 290 261 r \$0-to-gflow;
#X obj 517 78 symbol \$0-buffer;
#X msg 517 140 set \$1 \$2;
#X obj 562 99 samplerate~;
#X obj 517 57 t b b;
#X obj 517 119 pack s f;
#X obj 517 37 loadbang;
#X obj 288 209 s \$0-buffer-fraction;
#X obj 805 48 r \$0-buffer-fraction;
#X obj 805 69 t f f;
#X obj 771 128 t b f;
#X obj 760 152 *;
#X obj 852 128 t b f;
#X obj 841 152 *;
#X obj 807 213 s \$0-to-gflow;
#X obj 680 21 loadbang;
#X msg 680 42 5, f 2;
#X obj 680 63 s \$0-fade;
#N canvas 519 414 450 300 delay-tgl-vals 0;
#X obj 137 76 t f f;
#X obj 188 141 delay;
#X obj 137 141 delay;
#X obj 137 111 sel 1;
#X msg 137 162 1;
#X obj 188 110 sel 0;
#X msg 188 162 0;
#X obj 137 187 t f;
#X obj 188 187 t f;
#X obj 137 52 inlet;
#X obj 246 60 inlet;
#X obj 95 261 outlet 1-delayed;
#X obj 213 251 outlet 0-delayed;
#X connect 0 0 3 0;
#X connect 0 1 5 0;
#X connect 1 0 6 0;
#X connect 2 0 4 0;
#X connect 3 0 2 0;
#X connect 3 1 7 0;
#X connect 4 0 7 0;
#X connect 5 0 1 0;
#X connect 5 1 8 0;
#X connect 6 0 8 0;
#X connect 7 0 11 0;
#X connect 8 0 12 0;
#X connect 9 0 0 0;
#X connect 10 0 2 1;
#X connect 10 0 1 1;
#X restore 437 239 pd delay-tgl-vals;
#X obj 495 193 r \$0-fade;
#X obj 437 217 == 0;
#X obj 495 214 t f f;
#X obj 437 259 pack f f;
#X msg 448 352 \$1 5;
#X obj 42 359 r \$0-show-mapping-o;
#X text 201 404 WxHx0+0 0x0+X+Y;
#X msg 42 516 0;
#N canvas 642 183 450 300 set-all-input-modes 0;
#X obj 199 145 s \$0-shorten-mode;
#X obj 210 164 s \$0-drive-mode;
#X obj 223 183 s \$0-panning-mode;
#X obj 237 202 s \$0-width-mode;
#X obj 251 221 s \$0-volume-mode;
#X obj 162 32 inlet;
#X obj 120 210 s \$0-size-mode;
#X obj 105 191 s \$0-speed-mode;
#X obj 67 134 s \$0-record-mode;
#X obj 78 153 s \$0-begin-mode;
#X obj 89 172 s \$0-length-mode;
#X obj 129 229 s \$0-pitch-mode;
#X obj 162 55 t f f f f f f f f f f f;
#X connect 5 0 12 0;
#X connect 12 0 8 0;
#X connect 12 1 9 0;
#X connect 12 2 10 0;
#X connect 12 3 7 0;
#X connect 12 4 6 0;
#X connect 12 5 11 0;
#X connect 12 6 0 0;
#X connect 12 7 1 0;
#X connect 12 8 2 0;
#X connect 12 9 3 0;
#X connect 12 10 4 0;
#X restore 42 536 pd set-all-input-modes;
#X obj 42 496 r \$0-reset-mapping-o;
#X obj 56 401 loadbang;
#X msg 42 379 vis 1;
#N canvas 50 50 524 386 \$1-parameters 0;
#X obj 9 254 project/parameter volume \$1 \$2 \$0;
#X obj 312 131 project/parameter panning \$1 \$2 \$0;
#X obj 110 131 project/parameter shorten \$1 \$2 \$0;
#X obj 211 131 project/parameter drive \$1 \$2 \$0;
#X obj 413 131 project/parameter width \$1 \$2 \$0;
#X obj 312 8 project/parameter speed \$1 \$2 \$0;
#X obj 9 8 project/parameter-toggle record \$1 \$2 \$0;
#X obj 110 8 project/parameter begin \$1 \$2 \$0;
#X obj 211 8 project/parameter length \$1 \$2 \$0;
#X obj 413 8 project/parameter size \$1 \$2 \$0;
#X obj 9 131 project/parameter pitch \$1 \$2 \$0;
#X restore 42 465 pd \$1-parameters;
#X obj 42 445 s pd-\$1-parameters;
#X msg 56 421 menuclose \, relocate 524x386+0+0 0x0+50+50;
#X obj 347 513 project/module-preset \$1 \$2 \$0;
#X connect 11 0 12 0;
#X connect 12 0 48 0;
#X connect 13 0 14 0;
#X connect 14 0 48 0;
#X connect 15 0 48 0;
#X connect 16 0 17 0;
#X connect 17 0 48 0;
#X connect 18 0 23 0;
#X connect 19 0 24 0;
#X connect 20 0 18 1;
#X connect 20 0 19 1;
#X connect 21 0 73 0;
#X connect 22 0 15 0;
#X connect 25 0 26 0;
#X connect 26 0 48 0;
#X connect 27 0 48 0;
#X connect 28 0 27 0;
#X connect 31 0 64 0;
#X connect 32 0 64 0;
#X connect 33 0 61 0;
#X connect 34 0 63 0;
#X connect 35 0 36 0;
#X connect 36 0 48 0;
#X connect 38 0 40 0;
#X connect 39 0 40 0;
#X connect 40 0 57 0;
#X connect 42 0 43 0;
#X connect 43 0 40 1;
#X connect 43 1 70 0;
#X connect 44 0 45 1;
#X connect 44 0 46 1;
#X connect 45 0 18 0;
#X connect 46 0 19 0;
#X connect 47 0 45 0;
#X connect 47 1 46 0;
#X connect 48 0 49 0;
#X connect 50 0 47 0;
#X connect 51 0 55 0;
#X connect 52 0 48 0;
#X connect 53 0 55 1;
#X connect 54 0 51 0;
#X connect 54 1 53 0;
#X connect 55 0 52 0;
#X connect 56 0 54 0;
#X connect 58 0 59 0;
#X connect 59 0 60 0;
#X connect 59 1 62 0;
#X connect 60 0 61 0;
#X connect 60 1 61 1;
#X connect 61 0 31 0;
#X connect 62 0 63 0;
#X connect 62 1 63 1;
#X connect 63 0 32 0;
#X connect 65 0 66 0;
#X connect 66 0 67 0;
#X connect 68 0 72 0;
#X connect 69 0 71 0;
#X connect 70 0 68 0;
#X connect 71 0 72 1;
#X connect 71 1 68 1;
#X connect 72 0 44 0;
#X connect 73 0 20 0;
#X connect 74 0 80 0;
#X connect 76 0 77 0;
#X connect 78 0 76 0;
#X connect 79 0 83 0;
#X connect 80 0 82 0;
#X connect 83 0 82 0;
#X coords 0 -1 1 1 164 220 2 50 50;
