#N canvas 397 55 850 692 10;
#X msg 395 243 beg \$1;
#X msg 395 281 len \$1;
#X obj 395 376 r \$0-gsize-o;
#X obj 450 149 r \$0-pitch-o;
#X msg 488 256 pitch \$1;
#X msg 395 395 size \$1;
#X obj 558 259 r \$0-drive-o;
#X msg 558 278 drive \$1;
#X obj 558 221 r \$0-shorten-o;
#X msg 558 240 shorten \$1;
#X msg 558 316 pan \$1;
#X obj 559 335 r \$0-width-o;
#X msg 559 354 width \$1;
#X obj 395 300 r \$0-speed-o;
#X msg 395 319 speed \$1;
#X obj 488 531 *~;
#X obj 519 531 *~;
#X obj 534 509 line~;
#X msg 534 490 \$1 10;
#X obj 488 422 jl/gflow~ 2;
#X obj 488 168 r \$0-detune-o;
#X obj 488 188 t b f;
#X obj 488 237 +;
#X obj 534 470 r \$0-volume-o;
#X obj 51 51 cnv 15 162 245 empty empty \$1 4 10 0 12 -262144 -66577
0;
#X floatatom 52 125 10 0.001 1e+06 1 speed #0-speed-i #0-speed-o,
f 10;
#X obj 55 101 hsl 155 12 0 1 0 0 \$0-length-o \$0-length-i length 2
6 0 10 -262144 -1 -191407 0 0;
#X obj 55 207 hsl 155 12 0 1 0 0 \$0-drive-o \$0-drive-i drive 2 6
0 10 -262144 -1 -191407 0 0;
#X obj 55 193 hsl 155 12 0 1 0 0 \$0-shorten-o \$0-shorten-i shorten
2 6 0 10 -262144 -1 -191407 0 0;
#X obj 55 221 hsl 155 12 0 1 0 0 \$0-panning-o \$0-panning-i panning
2 6 0 10 -262144 -1 -191407 8100 0;
#X obj 55 235 hsl 155 12 0 1 0 0 \$0-width-o \$0-width-i width 2 6
0 10 -262144 -1 -191407 7100 0;
#X floatatom 52 159 10 0 0 1 detune #0-detune-i #0-detune-o, f 10
;
#X floatatom 52 176 10 0 0 1 pitch #0-pitch-i #0-pitch-o, f 10;
#X floatatom 52 142 10 0.001 1e+06 1 gsize #0-gsize-i #0-gsize-o,
f 10;
#X obj 55 87 hsl 155 12 0 1 0 0 \$0-begin-o \$0-begin-i begin 2 6 0
10 -262144 -1 -191407 9000 0;
#X obj 55 249 hsl 155 12 0 1 0 0 \$0-volume-o \$0-volume-i volume 2
6 0 10 -262144 -1 -191407 0 0;
#X obj 52 280 bng 15 250 50 0 \$0-reset-mapping-o \$0-reset-mapping-i
reset_mapping 17 7 0 10 -262144 -1 -1;
#X obj 52 263 bng 15 250 50 0 \$0-show-mapping-o \$0-show-mapping-i
show_mapping 17 7 0 10 -262144 -1 -1;
#X obj 55 115 hsl 155 8 0 1 0 0 \$0-show-scroll-o \$0-show-scroll-i
empty 2 6 0 10 -262144 -1 -191407 9000 0;
#X obj 551 444 s \$0-show-scroll-i;
#X obj 50 521 r \$0-show-mapping-o;
#X text 317 524 WxHx0+0 0x0+X+Y;
#X msg 208 591 0;
#N canvas 0 23 450 300 set-all-input-modes 0;
#X obj 79 128 s \$0-begin-mode;
#X obj 90 147 s \$0-length-mode;
#X obj 103 166 s \$0-speed-mode;
#X obj 117 185 s \$0-gsize-mode;
#X obj 130 204 s \$0-pitch-mode;
#X obj 182 128 s \$0-shorten-mode;
#X obj 193 147 s \$0-drive-mode;
#X obj 206 166 s \$0-panning-mode;
#X obj 220 185 s \$0-width-mode;
#X obj 233 204 s \$0-volume-mode;
#X obj 124 84 t f f f f f f f f f f;
#X obj 124 61 inlet;
#X connect 10 0 0 0;
#X connect 10 1 1 0;
#X connect 10 2 2 0;
#X connect 10 3 3 0;
#X connect 10 4 4 0;
#X connect 10 5 5 0;
#X connect 10 6 6 0;
#X connect 10 7 7 0;
#X connect 10 8 8 0;
#X connect 10 9 9 0;
#X connect 11 0 10 0;
#X restore 208 611 pd set-all-input-modes;
#X obj 208 571 r \$0-reset-mapping-o;
#X obj 558 297 r \$0-panning-o;
#X obj 395 262 r \$0-length-o;
#X obj 395 224 r \$0-begin-o;
#X text 228 53 arguments : <module_name> <project_name> <soundbank_name>
;
#X obj 488 569 s~ \$1-audio-out-left;
#X obj 519 550 s~ \$1-audio-out-right;
#X obj 172 521 loadbang;
#X msg 50 541 vis 1;
#X text 228 84 params to save in presets :;
#X text 228 102 sound \, detune \, and all the other (mappable) parameters
;
#X obj 705 447 s \$0-sound-i;
#X obj 705 407 loadbang;
#X msg 705 427 1;
#X obj 395 338 r \$0-speed-reset-metro;
#X msg 395 357 speed bang;
#X msg 172 541 menuclose \, relocate 524x263+0+0 0x0+50+50;
#X obj 488 610 project/module-preset \$1 \$2 \$0;
#X obj 488 648 project/parameter-simple detune \$1 \$2 \$0;
#N canvas 50 50 524 263 \$1-parameters 0;
#X obj 9 8 project/parameter begin \$1 \$2 \$0;
#X obj 312 8 project/parameter gsize \$1 \$2 \$0;
#X obj 413 8 project/parameter pitch \$1 \$2 \$0;
#X obj 413 131 project/parameter volume \$1 \$2 \$0;
#X obj 211 131 project/parameter panning \$1 \$2 \$0;
#X obj 9 131 project/parameter shorten \$1 \$2 \$0;
#X obj 110 131 project/parameter drive \$1 \$2 \$0;
#X obj 110 8 project/parameter length \$1 \$2 \$0;
#X obj 211 8 project/parameter speed \$1 \$2 \$0;
#X obj 312 131 project/parameter width \$1 \$2 \$0;
#X restore 50 591 pd \$1-parameters;
#X obj 50 571 s pd-\$1-parameters;
#X obj 52 70 project/sound-selector sound \$3 \$0;
#X obj 649 334 r \$0-sound-info;
#X msg 649 353 set \$1 \$3;
#X obj 488 629 project/parameter-simple sound \$1 \$2 \$0;
#X connect 0 0 19 0;
#X connect 1 0 19 0;
#X connect 2 0 5 0;
#X connect 3 0 22 0;
#X connect 4 0 19 0;
#X connect 5 0 19 0;
#X connect 6 0 7 0;
#X connect 7 0 19 0;
#X connect 8 0 9 0;
#X connect 9 0 19 0;
#X connect 10 0 19 0;
#X connect 11 0 12 0;
#X connect 12 0 19 0;
#X connect 13 0 14 0;
#X connect 14 0 19 0;
#X connect 15 0 49 0;
#X connect 16 0 50 0;
#X connect 17 0 16 1;
#X connect 17 0 15 1;
#X connect 18 0 17 0;
#X connect 19 0 15 0;
#X connect 19 1 16 0;
#X connect 19 2 39 0;
#X connect 20 0 21 0;
#X connect 21 0 22 0;
#X connect 21 1 22 1;
#X connect 22 0 4 0;
#X connect 23 0 18 0;
#X connect 40 0 52 0;
#X connect 42 0 43 0;
#X connect 44 0 42 0;
#X connect 45 0 10 0;
#X connect 46 0 1 0;
#X connect 47 0 0 0;
#X connect 51 0 60 0;
#X connect 52 0 64 0;
#X connect 56 0 57 0;
#X connect 57 0 55 0;
#X connect 58 0 59 0;
#X connect 59 0 19 0;
#X connect 60 0 64 0;
#X connect 66 0 67 0;
#X connect 67 0 19 0;
#X coords 0 -1 1 1 164 247 2 50 50;
