#N canvas 599 318 841 554 10;
#X obj 51 51 cnv 15 162 137 empty empty \$1 4 10 0 12 #fcfcfc #404040
0;
#X obj 193 51 cnv 16 16 16 empty empty \$3 4 10 0 12 #fcfcfc #404040
0;
#X obj 52 70 tgl 15 0 \$0-record-o \$0-record-i record 17 7 0 10 #fcfcfc
#000000 #000000 0 1;
#X floatatom 52 138 10 0 0 1 transpose \$0-transpose-i \$0-transpose-o
0;
#X obj 52 87 tgl 15 0 \$0-play-o \$0-play-i play 17 7 0 10 #fcfcfc
#000000 #000000 0 1;
#X obj 52 104 tgl 15 0 \$0-reverse-o \$0-reverse-i reverse 17 7 0 10
#fcfcfc #000000 #000000 0 1;
#X obj 249 56 r~ \$1-audio-in-left;
#X obj 312 76 r~ \$1-audio-in-right;
#N canvas 850 393 468 343 recorder 0;
#X obj 72 35 change;
#X obj 72 15 r \$0-record-o;
#X obj 72 158 timer;
#X obj 72 136 sel 1 0;
#X obj 72 206 s \$0-main-duration;
#X obj 72 55 t f f;
#X obj 113 84 sel 0 1;
#X msg 113 106 stop;
#X obj 72 235 array define \$0-main-buffer-left 1.323e+06;
#X obj 72 254 array define \$0-main-buffer-right 1.323e+06;
#X obj 181 133 tabwrite~ \$0-main-buffer-left;
#X obj 142 129 t a a;
#X obj 181 153 tabwrite~ \$0-main-buffer-right;
#X text 88 285 size in bytes of 1 sec @ 44100/32bit :;
#X text 88 296 sr * bitsPerSample / 8;
#X text 88 309 => 30 secs = approx 5.2 MB;
#X obj 181 50 inlet~;
#X obj 224 50 inlet~;
#X text 335 235 < 30s @ 44100Hz;
#X obj 72 186 min 1.323e+06;
#X connect 0 0 5 0;
#X connect 1 0 0 0;
#X connect 2 0 19 0;
#X connect 3 0 2 0;
#X connect 3 1 2 1;
#X connect 5 0 3 0;
#X connect 5 1 6 0;
#X connect 6 0 7 0;
#X connect 6 1 11 0;
#X connect 7 0 11 0;
#X connect 11 0 12 0;
#X connect 11 1 10 0;
#X connect 16 0 10 0;
#X connect 17 0 12 0;
#X connect 19 0 4 0;
#X restore 249 97 pd recorder;
#X obj 249 203 jl/gbend~ \$0-main-buffer-left;
#X obj 276 226 jl/gbend~ \$0-main-buffer-right;
#X obj 249 257 s~ \$1-audio-out-left;
#X obj 276 278 s~ \$1-audio-out-right;
#X floatatom 52 121 10 0 0 1 pitch \$0-pitch-i \$0-pitch-o 0;
#X obj 484 34 loadbang;
#X obj 249 151 t a a;
#X obj 342 170 line~;
#X msg 342 150 \$1 3;
#X obj 342 130 r \$0-pitch-o;
#X obj 501 79 r \$0-main-duration;
#X msg 501 99 end \$1;
#X obj 546 203 r \$0-play-o;
#X obj 546 224 sel 1 0;
#X msg 565 245 stop;
#X msg 484 56 beg 0 \, fade 5 \, interrupt 5 \, loop 1;
#X obj 484 278 s \$0-to-gbends;
#X obj 249 130 r \$0-to-gbends;
#X obj 532 161 r \$0-reverse-o;
#X msg 514 141 pitch \$1;
#X msg 532 181 rvs \$1;
#X obj 52 172 bng 15 250 50 0 \$0-reset-mapping-o \$0-reset-mapping-i
reset_mapping 17 7 0 10 #fcfcfc #000000 #000000;
#X obj 52 155 bng 15 250 50 0 \$0-show-mapping-o \$0-show-mapping-i
show_mapping 17 7 0 10 #fcfcfc #000000 #000000;
#X obj 49 377 s pd-\$1-parameters;
#N canvas 50 50 421 140 \$1-parameters 0;
#X obj 9 8 project/parameter-toggle record \$1 \$2 \$0;
#X obj 110 8 project/parameter-toggle play \$1 \$2 \$0;
#X obj 211 8 project/parameter-toggle reverse \$1 \$2 \$0;
#X obj 312 8 project/parameter pitch \$1 \$2 \$0;
#X restore 49 444 pd \$1-parameters;
#X obj 49 327 r \$0-show-mapping-o;
#X text 316 330 WxHx0+0 0x0+X+Y;
#X msg 207 397 0;
#N canvas 0 25 450 300 set-all-input-modes 0;
#X obj 143 34 inlet;
#X obj 115 110 s \$0-record-mode;
#X obj 126 129 s \$0-play-mode;
#X obj 144 148 s \$0-reverse-mode;
#X obj 161 167 s \$0-pitch-mode;
#X obj 143 57 t f f f f;
#X connect 0 0 5 0;
#X connect 5 0 1 0;
#X connect 5 1 2 0;
#X connect 5 2 3 0;
#X connect 5 3 4 0;
#X restore 207 417 pd set-all-input-modes;
#X obj 207 377 r \$0-reset-mapping-o;
#X obj 171 327 loadbang;
#X msg 49 347 vis 1;
#X msg 171 347 menuclose \, relocate 421x140+0+0 0x0+50+50;
#X obj 49 464 project/parameter-simple transpose \$1 \$2 \$0;
#X obj 514 121 r \$0-transpose-o;
#X connect 6 0 8 0;
#X connect 7 0 8 1;
#X connect 9 0 11 0;
#X connect 10 0 12 0;
#X connect 14 0 24 0;
#X connect 15 0 9 0;
#X connect 15 1 10 0;
#X connect 16 0 9 0;
#X connect 16 0 10 0;
#X connect 17 0 16 0;
#X connect 18 0 17 0;
#X connect 19 0 20 0;
#X connect 20 0 25 0;
#X connect 21 0 22 0;
#X connect 22 0 25 0;
#X connect 22 1 23 0;
#X connect 23 0 25 0;
#X connect 24 0 25 0;
#X connect 26 0 15 0;
#X connect 27 0 29 0;
#X connect 28 0 25 0;
#X connect 29 0 25 0;
#X connect 34 0 40 0;
#X connect 36 0 37 0;
#X connect 38 0 36 0;
#X connect 39 0 41 0;
#X connect 40 0 32 0;
#X connect 41 0 32 0;
#X connect 43 0 28 0;
#X coords 0 -1 1 1 164 139 2 50 50;
