#N canvas 551 160 748 546 10;
#X obj 516 158 pow;
#X msg 504 130 2;
#X obj 504 98 t b f;
#X obj 504 77 + 9;
#X obj 288 260 jl/spitchshift~;
#X msg 516 179 windowsize \$1;
#X obj 516 261 loadbang;
#X obj 555 314 s \$0-window-size-i;
#X obj 504 56 r \$0-window-size-o;
#X obj 516 200 s \$0-to-pitch-shift;
#X obj 375 239 r \$0-to-pitch-shift;
#X obj 73 463 s pd-\$1-parameters;
#N canvas 50 50 219 140 \$1-parameters 0;
#X obj 9 8 project/parameter drywet \$1 \$2 \$0;
#X obj 110 8 project/parameter transpose \$1 \$2 \$0;
#X restore 73 483 pd \$1-parameters;
#X obj 73 413 r \$0-show-mapping-o;
#X text 340 416 WxHx0+0 0x0+X+Y;
#X msg 231 483 0;
#N canvas 0 25 450 300 set-all-input-modes 0;
#X obj 143 34 inlet;
#X obj 115 110 s \$0-drywet-mode;
#X obj 126 129 s \$0-transpose-mode;
#X obj 143 57 t f f;
#X connect 0 0 3 0;
#X connect 3 0 1 0;
#X connect 3 1 2 0;
#X restore 231 503 pd set-all-input-modes;
#X obj 231 463 r \$0-reset-mapping-o;
#X obj 195 413 loadbang;
#X msg 73 433 vis 1;
#X obj 426 472 project/module-preset \$1 \$2 \$0;
#X obj 426 491 project/parameter-simple lock \$1 \$2 \$0;
#X obj 426 510 project/parameter-simple window-size \$1 \$2 \$0;
#X obj 562 87 r \$0-lock-o;
#X msg 562 108 lock \$1;
#X obj 583 130 r \$0-transpose-o;
#X msg 583 151 transpose \$1;
#X obj 51 51 cnv 15 162 197 empty empty \$1 4 10 0 12 #fcfcfc #404040
0;
#X obj 52 132 vradio 15 1 0 5 \$0-windows-size-o \$0-window-size-i
window\\\ size 1 -8 0 10 #fcfcfc #000000 #000000 0;
#X text 69 132 512;
#X text 69 147 1024;
#X text 69 162 2048;
#X text 69 177 4096;
#X text 69 191 8192;
#X obj 52 232 bng 15 250 50 0 \$0-reset-mapping-o \$0-reset-mapping-i
reset_mapping 17 7 0 10 #fcfcfc #000000 #000000;
#X obj 52 215 bng 15 250 50 0 \$0-show-mapping-o \$0-show-mapping-i
show_mapping 17 7 0 10 #fcfcfc #000000 #000000;
#X obj 55 70 hsl 155 12 0 1 0 0 \$0-drywet-o \$0-drywet-i drywet 2
6 0 10 #fcfcfc #000000 #b8b8b8 0 0;
#X floatatom 52 84 10 0 0 1 transpose \$0-transpose-i \$0-transpose-o
0;
#X obj 52 101 tgl 15 0 \$0-lock-o \$0-lock-i lock 17 7 0 10 #fcfcfc
#000000 #000000 0 1;
#X obj 193 51 cnv 16 16 16 empty empty \$3 4 10 0 12 #fcfcfc #404040
0;
#X obj 237 238 jl/split~;
#X obj 237 307 *~ 1;
#X obj 288 179 r \$0-drywet-o;
#X obj 288 218 line~;
#X msg 288 198 \$1 5;
#X msg 195 433 menuclose \, relocate 219x140+0+0 0x0+50+50;
#X obj 237 103 r~ \$1-audio-in-left;
#X msg 555 293 2;
#X msg 516 317 0;
#X obj 516 358 s \$0-transpose-i;
#X obj 523 338 s \$0-lock-i;
#X obj 245 124 r~ \$1-audio-in-right;
#X obj 237 360 s~ \$1-audio-out-left;
#X obj 245 339 s~ \$1-audio-out-right;
#X connect 0 0 5 0;
#X connect 1 0 0 0;
#X connect 2 0 1 0;
#X connect 2 1 0 1;
#X connect 3 0 2 0;
#X connect 4 0 41 0;
#X connect 5 0 9 0;
#X connect 6 0 47 0;
#X connect 6 0 48 0;
#X connect 8 0 3 0;
#X connect 10 0 4 1;
#X connect 13 0 19 0;
#X connect 15 0 16 0;
#X connect 17 0 15 0;
#X connect 18 0 45 0;
#X connect 19 0 11 0;
#X connect 23 0 24 0;
#X connect 24 0 9 0;
#X connect 25 0 26 0;
#X connect 26 0 9 0;
#X connect 40 0 41 0;
#X connect 40 1 4 0;
#X connect 41 0 52 0;
#X connect 41 0 53 0;
#X connect 42 0 44 0;
#X connect 43 0 40 1;
#X connect 44 0 43 0;
#X connect 45 0 11 0;
#X connect 46 0 40 0;
#X connect 47 0 7 0;
#X connect 48 0 49 0;
#X connect 48 0 50 0;
#X connect 51 0 40 0;
#X coords 0 -1 1 1 164 199 2 50 50;
