#N canvas 553 74 787 718 10;
#X obj 31 31 cnv 15 162 144 empty empty \$1 4 10 0 12 #fcfcfc #404040
0;
#X obj 375 285 jl/sidechain~;
#X obj 277 150 r~ \$1-audio-in-right;
#X obj 236 130 r~ \$1-audio-in-left;
#X obj 312 391 s~ \$1-audio-out-left;
#X obj 343 371 s~ \$1-audio-out-right;
#X obj 312 329 *~;
#X obj 343 329 *~;
#X obj 354 234 +~;
#X msg 211 543 attack \$1;
#X floatatom 211 523 5 0 0 0 - - - 0;
#X floatatom 277 523 5 0 0 0 - - - 0;
#X msg 277 543 release \$1;
#X floatatom 63 523 5 0 0 0 - - - 0;
#X floatatom 148 523 5 0 0 0 - - - 0;
#X msg 63 543 threshold \$1;
#X msg 148 543 ratio \$1;
#X floatatom 351 573 5 0 0 0 - - - 0;
#X msg 351 593 knee \$1;
#X floatatom 350 523 5 0 0 0 - - - 0;
#X msg 350 543 makeup \$1;
#X obj 211 381 loadbang;
#X msg 148 422 2;
#X msg 211 422 1;
#X msg 63 422 -32;
#X msg 277 422 200;
#N canvas 0 25 450 300 snapshot 0;
#X obj 111 136 snapshot~;
#X obj 181 100 metro 10;
#X obj 181 81 tgl 15 0 empty empty empty 17 7 0 10 #fcfcfc #000000
#000000 0 1;
#X obj 181 43 loadbang;
#X msg 181 62 1;
#X obj 111 70 inlet~;
#X obj 111 164 outlet;
#X connect 0 0 6 0;
#X connect 1 0 0 0;
#X connect 2 0 1 0;
#X connect 3 0 4 0;
#X connect 4 0 2 0;
#X connect 5 0 0 0;
#X restore 375 329 pd snapshot;
#X obj 211 639 t a;
#X floatatom 32 81 10 0 0 1 threshold \$0-threshold-i \$0-threshold-o
0;
#X floatatom 32 98 10 0.001 1e+06 1 ratio \$0-ratio-i \$0-ratio-o 0
;
#X floatatom 32 115 10 0.001 1e+06 1 attack \$0-attack-i \$0-attack-o
0;
#X floatatom 32 132 10 0.001 1e+06 1 release \$0-release-i \$0-release-o
0;
#X floatatom 32 149 10 0 0 1 makeup \$0-makeup-i \$0-makeup-o 0;
#X msg 593 281 0;
#X obj 593 261 loadbang;
#X obj 35 166 hsl 155 8 0 1 0 0 \$0-show-gain-o \$0-show-gain-i empty
2 6 0 10 #fcfcfc #000000 #b8b8b8 0 0;
#X obj 375 349 s \$0-show-gain-i;
#X obj 35 50 hsl 155 12 0 1 0 0 \$0-sidechain-o \$0-sidechain-i sidechain
2 6 0 10 #fcfcfc #000000 #b8b8b8 0 0;
#X obj 608 307 s \$0-sidechain-i;
#X obj 63 503 r \$0-threshold-o;
#X obj 148 483 r \$0-ratio-o;
#X obj 211 503 r \$0-attack-o;
#X obj 277 483 r \$0-release-o;
#X obj 350 503 r \$0-makeup-o;
#X obj 63 462 s \$0-threshold-i;
#X obj 148 442 s \$0-ratio-i;
#X obj 211 462 s \$0-attack-i;
#X obj 277 442 s \$0-release-i;
#X obj 574 327 s \$0-makeup-i;
#X obj 211 662 s \$0-to-sidechain;
#X text 332 662 arguments : <module_name> <project_name>;
#N canvas 0 23 450 300 dbtoa 0;
#X obj 165 172 pow;
#X obj 165 145 swap 10;
#X floatatom 165 104 5 0 0 0 - - - 0;
#X floatatom 165 193 5 0 0 0 - - - 0;
#X obj 165 124 / 20;
#X obj 165 71 inlet;
#X obj 165 214 outlet;
#X connect 0 0 3 0;
#X connect 1 0 0 0;
#X connect 1 1 0 1;
#X connect 2 0 4 0;
#X connect 3 0 6 0;
#X connect 4 0 1 0;
#X connect 5 0 2 0;
#X restore 333 36 pd dbtoa;
#X floatatom 32 64 10 0 0 1 gain \$0-gain-i \$0-gain-o 0;
#X obj 333 17 r \$0-gain-o;
#X obj 333 74 line~;
#X msg 333 55 \$1 10;
#X obj 274 203 *~;
#X obj 300 204 *~;
#X obj 364 109 *~;
#X obj 593 347 s \$0-gain-i;
#X obj 403 257 r \$0-to-sidechain;
#X obj 413 18 r~ \$1-audio-in-sidechain-left;
#X obj 425 104 *~;
#X obj 425 37 r~ \$1-audio-in-sidechain-right;
#X obj 434 177 +~;
#X obj 480 175 s~ \$0-raw-audio-out-left;
#X obj 483 155 s~ \$0-raw-audio-out-right;
#X obj 413 418 r~ \$0-raw-audio-out-left;
#X obj 446 399 r~ \$0-raw-audio-out-right;
#X obj 481 99 line~;
#X msg 481 79 \$1 10;
#X obj 481 59 r \$0-sidechain-o;
#X obj 375 257 +~;
#X obj 364 130 jl/split~;
#X obj 425 130 jl/split~;
#X obj 483 462 project/parameter-simple sidechain \$1 \$2 \$0;
#X obj 483 480 project/parameter-simple gain \$1 \$2 \$0;
#X obj 483 498 project/parameter-simple threshold \$1 \$2 \$0;
#X obj 483 516 project/parameter-simple ratio \$1 \$2 \$0;
#X obj 483 534 project/parameter-simple attack \$1 \$2 \$0;
#X obj 483 552 project/parameter-simple release \$1 \$2 \$0;
#X obj 483 570 project/parameter-simple makeup \$1 \$2 \$0;
#X obj 483 598 project/module-preset \$1 \$2 \$0;
#X obj 449 330 outlet;
#X obj 461 285 clip~ 0 1;
#X connect 1 0 84 0;
#X connect 2 0 57 0;
#X connect 3 0 56 0;
#X connect 6 0 4 0;
#X connect 7 0 5 0;
#X connect 8 0 72 0;
#X connect 9 0 27 0;
#X connect 10 0 9 0;
#X connect 11 0 12 0;
#X connect 12 0 27 0;
#X connect 13 0 15 0;
#X connect 14 0 16 0;
#X connect 15 0 27 0;
#X connect 16 0 27 0;
#X connect 17 0 18 0;
#X connect 18 0 27 0;
#X connect 19 0 20 0;
#X connect 20 0 27 0;
#X connect 21 0 24 0;
#X connect 21 0 22 0;
#X connect 21 0 23 0;
#X connect 21 0 25 0;
#X connect 22 0 45 0;
#X connect 23 0 46 0;
#X connect 24 0 44 0;
#X connect 25 0 47 0;
#X connect 26 0 36 0;
#X connect 26 0 83 0;
#X connect 27 0 49 0;
#X connect 33 0 38 0;
#X connect 33 0 48 0;
#X connect 33 0 59 0;
#X connect 34 0 33 0;
#X connect 39 0 13 0;
#X connect 40 0 14 0;
#X connect 41 0 10 0;
#X connect 42 0 11 0;
#X connect 43 0 19 0;
#X connect 51 0 55 0;
#X connect 53 0 51 0;
#X connect 54 0 56 1;
#X connect 54 0 57 1;
#X connect 54 0 58 1;
#X connect 54 0 62 1;
#X connect 55 0 54 0;
#X connect 56 0 8 0;
#X connect 56 0 6 0;
#X connect 57 0 8 1;
#X connect 57 0 7 0;
#X connect 58 0 73 0;
#X connect 60 0 1 0;
#X connect 61 0 58 0;
#X connect 62 0 74 0;
#X connect 63 0 62 0;
#X connect 64 0 72 1;
#X connect 67 0 4 0;
#X connect 68 0 5 0;
#X connect 69 0 73 1;
#X connect 69 0 74 1;
#X connect 70 0 69 0;
#X connect 71 0 70 0;
#X connect 72 0 1 0;
#X connect 73 0 56 0;
#X connect 73 1 64 0;
#X connect 73 1 65 0;
#X connect 74 0 57 0;
#X connect 74 1 64 1;
#X connect 74 1 66 0;
#X connect 84 0 6 1;
#X connect 84 0 7 1;
#X connect 84 0 26 0;
#X coords 0 -1 1 1 164 146 2 30 30;
