#N canvas 299 53 745 574 10;
#X obj 273 81 r~ \$1-audio-in-right;
#X obj 249 61 r~ \$1-audio-in-left;
#X obj 295 313 s~ \$1-audio-out-left;
#X obj 394 292 s~ \$1-audio-out-right;
#X obj 31 31 cnv 15 162 185 empty empty \$1 4 10 0 12 #fcfcfc #404040
0;
#X obj 32 200 bng 15 250 50 0 \$0-reset-mapping-o \$0-reset-mapping-i
reset_mapping 17 7 0 10 #fcfcfc #000000 #000000;
#X obj 32 183 bng 15 250 50 0 \$0-show-mapping-o \$0-show-mapping-i
show_mapping 17 7 0 10 #fcfcfc #000000 #000000;
#X floatatom 32 132 10 0 1e+06 1 max_rperiod \$0-max_rperiod-i \$0-max_rperiod-o
0;
#X floatatom 32 149 10 0 1e+06 1 min_slices \$0-min_slices-i \$0-min_slices-o
0;
#X floatatom 32 166 10 0 1e+06 1 max_rslices \$0-max_rslices-i \$0-max_rslices-o
0;
#X floatatom 32 115 10 0.001 1e+06 1 min_period \$0-min_period-i \$0-min_period-o
0;
#X obj 32 98 tgl 15 0 \$0-drill-o \$0-drill-i DRILL_THIS_OUT 17 7 0
10 #fcfcfc #000000 #000000 0 1;
#X obj 73 463 s pd-\$1-parameters;
#N canvas 50 50 421 263 \$1-parameters 0;
#X obj 312 8 project/parameter-toggle drill \$1 \$2 \$0;
#X obj 9 131 project/parameter min_period \$1 \$2 \$0;
#X obj 110 131 project/parameter max_rperiod \$1 \$2 \$0;
#X obj 211 131 project/parameter min_slices \$1 \$2 \$0;
#X obj 312 131 project/parameter max_rslices \$1 \$2 \$0;
#X obj 110 8 project/parameter-toggle freeze \$1 \$2 \$0;
#X obj 9 8 project/parameter drywet \$1 \$2 \$0;
#X obj 211 8 project/parameter period \$1 \$2 \$0;
#X restore 73 483 pd \$1-parameters;
#X obj 73 413 r \$0-show-mapping-o;
#X text 340 416 WxHx0+0 0x0+X+Y;
#X msg 231 483 0;
#N canvas 0 25 450 300 set-all-input-modes 0;
#X obj 143 34 inlet;
#X obj 161 167 s \$0-drill-mode;
#X obj 172 186 s \$0-min_period-mode;
#X obj 190 205 s \$0-max_rperiod-mode;
#X obj 208 224 s \$0-min_slices-mode;
#X obj 223 243 s \$0-max_rslices-mode;
#X obj 143 57 t f f f f f f f f;
#X obj 115 110 s \$0-drywet-mode;
#X obj 126 129 s \$0-freeze-mode;
#X obj 144 148 s \$0-period-mode;
#X connect 0 0 6 0;
#X connect 6 0 7 0;
#X connect 6 1 8 0;
#X connect 6 2 9 0;
#X connect 6 3 1 0;
#X connect 6 4 2 0;
#X connect 6 5 3 0;
#X connect 6 6 4 0;
#X connect 6 7 5 0;
#X restore 231 503 pd set-all-input-modes;
#X obj 231 463 r \$0-reset-mapping-o;
#X obj 195 413 loadbang;
#X msg 73 433 vis 1;
#X text 209 33 arguments : <module_name> <project_name>;
#X obj 373 159 r \$0-drill-o;
#X obj 35 50 hsl 155 12 0 1 0 0 \$0-drywet-o \$0-drywet-i drywet 2
6 0 10 #fcfcfc #000000 #b8b8b8 0 0;
#X floatatom 32 81 10 0.001 1e+06 1 period \$0-period-i \$0-period-o
0;
#X obj 32 64 tgl 15 0 \$0-freeze-o \$0-freeze-i FREEEZE 17 7 0 10 #fcfcfc
#000000 #000000 0 1;
#N canvas 304 142 850 719 STUUUT-TUUUUUT 0;
#X obj 189 582 jl/stut~ 5000;
#X obj 314 597 jl/stut~ 5000;
#X obj 605 415 pack f f;
#X obj 605 335 + 1;
#X msg 605 455 duration \$1 \, slices \$2 \, bang;
#X obj 495 415 pack f f;
#X obj 495 335 + 1;
#X msg 495 435 duration \$1 \, slices \$2 \, bang;
#X obj 495 315 random 10;
#X obj 605 315 random 10;
#X obj 495 295 jl/rmetro 120 500;
#X obj 605 295 jl/rmetro 120 500;
#X obj 495 355 t f f;
#X obj 605 355 t f f;
#X obj 495 375 swap;
#X obj 495 395 /;
#X obj 605 375 swap;
#X obj 605 395 /;
#X obj 176 648 outlet~;
#X obj 94 60 inlet~;
#X obj 137 60 inlet~;
#X obj 438 60 inlet;
#X obj 484 242 t f f;
#X obj 528 242 t f f;
#X obj 526 59 inlet;
#X obj 568 242 t f f;
#X obj 566 59 inlet;
#X obj 608 242 t f f;
#X obj 606 59 inlet;
#X obj 648 242 t f f;
#X obj 646 59 inlet;
#X obj 289 643 outlet~;
#X msg 52 189 fadi \$1;
#X msg 35 229 fado \$1;
#X floatatom 52 171 5 0 0 0 - - - 0;
#X floatatom 35 211 5 0 0 0 - - - 0;
#X obj 195 527 t a a;
#X obj 69 264 t a;
#X obj 229 60 inlet;
#X obj 315 60 inlet;
#X obj 355 60 inlet;
#X obj 405 340 f;
#X obj 417 169 sel 1 0;
#X obj 498 188 == 0;
#X obj 465 196 f;
#X msg 436 217 0;
#X msg 332 425 duration \$1;
#X obj 336 262 t f f;
#X obj 423 140 t f f;
#X msg 216 254 \$1 10;
#X obj 330 314 t b b;
#X msg 311 368 stop;
#X obj 311 294 sel 0 1;
#X obj 156 525 *~ 1;
#X obj 262 523 *~ 1;
#X msg 122 167 interrupt \$1;
#X msg 135 209 release \$1;
#X floatatom 122 149 5 0 0 0 - - - 0;
#X floatatom 135 191 5 0 0 0 - - - 0;
#X floatatom 59 109 5 0 0 0 - - - 0;
#X obj 51 36 loadbang;
#N canvas 0 23 455 391 merge 0;
#X obj 106 37 inlet~;
#X obj 172 343 outlet~;
#X obj 222 281 *~;
#X obj 172 281 *~;
#X obj 231 199 expr~ 1 - $v1;
#X obj 282 170 clip~ 0 1;
#X obj 260 37 inlet~;
#X obj 150 37 inlet~;
#X obj 232 221 pow~ 0.66;
#X obj 265 241 pow~ 0.66;
#X connect 0 0 3 0;
#X connect 2 0 1 0;
#X connect 3 0 1 0;
#X connect 4 0 8 0;
#X connect 5 0 4 0;
#X connect 5 0 9 0;
#X connect 6 0 5 0;
#X connect 7 0 2 0;
#X connect 8 0 3 1;
#X connect 9 0 2 1;
#X restore 289 623 pd merge;
#N canvas 0 25 455 391 merge 0;
#X obj 106 37 inlet~;
#X obj 172 343 outlet~;
#X obj 222 281 *~;
#X obj 172 281 *~;
#X obj 231 199 expr~ 1 - $v1;
#X obj 282 170 clip~ 0 1;
#X obj 260 37 inlet~;
#X obj 150 37 inlet~;
#X connect 0 0 3 0;
#X connect 2 0 1 0;
#X connect 3 0 1 0;
#X connect 4 0 3 1;
#X connect 5 0 4 0;
#X connect 5 0 2 1;
#X connect 6 0 5 0;
#X connect 7 0 2 0;
#X restore 176 627 pd merge;
#X obj 438 81 t f f;
#X obj 308 91 t f f f;
#X obj 273 178 +;
#X obj 292 156 t b f;
#X obj 273 198 == 0;
#X obj 216 274 line~;
#X obj 324 560 *~ 1;
#X obj 250 336 *~;
#X obj 261 286 line~;
#X obj 273 220 sel 1 0;
#X msg 299 254 1 10;
#X msg 259 254 0 200;
#X obj 168 413 r \$0-stut-params;
#X obj 465 217 spigot 1;
#X obj 359 377 spigot 1;
#X obj 210 129 loadbang;
#X obj 71 563 loadbang;
#X msg 71 583 slices 1;
#X floatatom 434 369 5 0 0 0 - - - 0;
#X obj 491 481 bng 15 250 50 0 empty empty empty 17 7 0 10 #fcfcfc
#000000 #000000;
#X obj 576 500 bng 15 250 50 0 empty empty empty 17 7 0 10 #fcfcfc
#000000 #000000;
#X msg 354 174 1;
#X msg 330 396 slices 1 \, slices -1 \, bang;
#X msg 48 64 10;
#X connect 0 0 62 1;
#X connect 1 0 61 1;
#X connect 2 0 4 0;
#X connect 3 0 13 0;
#X connect 4 0 1 0;
#X connect 5 0 7 0;
#X connect 6 0 12 0;
#X connect 7 0 0 0;
#X connect 8 0 6 0;
#X connect 9 0 3 0;
#X connect 10 0 8 0;
#X connect 10 1 14 1;
#X connect 11 0 9 0;
#X connect 11 1 16 1;
#X connect 12 0 14 0;
#X connect 12 1 5 1;
#X connect 13 0 16 0;
#X connect 13 1 2 1;
#X connect 14 0 15 0;
#X connect 14 1 15 1;
#X connect 15 0 5 0;
#X connect 16 0 17 0;
#X connect 16 1 17 1;
#X connect 17 0 2 0;
#X connect 19 0 53 0;
#X connect 20 0 54 0;
#X connect 21 0 63 0;
#X connect 22 0 10 0;
#X connect 22 1 11 0;
#X connect 23 0 10 1;
#X connect 23 1 11 1;
#X connect 24 0 23 0;
#X connect 25 0 10 2;
#X connect 25 1 11 2;
#X connect 26 0 25 0;
#X connect 27 0 6 1;
#X connect 27 1 3 1;
#X connect 28 0 27 0;
#X connect 29 0 8 1;
#X connect 29 1 9 1;
#X connect 30 0 29 0;
#X connect 32 0 37 0;
#X connect 33 0 37 0;
#X connect 34 0 32 0;
#X connect 35 0 33 0;
#X connect 36 0 0 0;
#X connect 36 1 1 0;
#X connect 37 0 36 0;
#X connect 38 0 49 0;
#X connect 39 0 64 0;
#X connect 40 0 41 0;
#X connect 41 0 77 0;
#X connect 41 0 81 0;
#X connect 42 0 45 0;
#X connect 42 1 44 0;
#X connect 43 0 76 1;
#X connect 44 0 76 0;
#X connect 45 0 22 0;
#X connect 46 0 36 0;
#X connect 47 0 52 0;
#X connect 47 1 77 1;
#X connect 48 0 42 0;
#X connect 48 1 43 0;
#X connect 49 0 68 0;
#X connect 50 0 85 0;
#X connect 50 1 41 0;
#X connect 51 0 36 0;
#X connect 52 0 51 0;
#X connect 52 1 50 0;
#X connect 53 0 0 0;
#X connect 53 0 62 0;
#X connect 54 0 1 0;
#X connect 54 0 61 0;
#X connect 55 0 37 0;
#X connect 56 0 37 0;
#X connect 57 0 55 0;
#X connect 58 0 56 0;
#X connect 59 0 34 0;
#X connect 59 0 35 0;
#X connect 59 0 57 0;
#X connect 59 0 58 0;
#X connect 60 0 86 0;
#X connect 61 0 31 0;
#X connect 62 0 18 0;
#X connect 63 0 66 0;
#X connect 63 1 44 0;
#X connect 64 0 65 0;
#X connect 64 1 47 0;
#X connect 64 2 48 0;
#X connect 65 0 67 0;
#X connect 66 0 65 0;
#X connect 66 1 65 1;
#X connect 67 0 72 0;
#X connect 68 0 70 0;
#X connect 69 0 61 2;
#X connect 69 0 62 2;
#X connect 70 0 69 0;
#X connect 71 0 70 1;
#X connect 72 0 74 0;
#X connect 72 1 73 0;
#X connect 73 0 71 0;
#X connect 74 0 71 0;
#X connect 75 0 36 0;
#X connect 76 0 22 0;
#X connect 77 0 46 0;
#X connect 78 0 73 0;
#X connect 79 0 80 0;
#X connect 80 0 36 0;
#X connect 84 0 66 0;
#X connect 85 0 36 0;
#X connect 86 0 59 0;
#X restore 295 266 pd STUUUT-TUUUUUT;
#X obj 329 102 r \$0-drywet-o;
#X obj 344 121 r \$0-freeze-o;
#X obj 358 140 r \$0-period-o;
#X obj 476 67 hsl 155 12 0 1 0 0 \$0-shape-o \$0-shape-i shape 2 6
0 10 #fcfcfc #000000 #b8b8b8 0 0;
#N canvas 274 450 450 300 shape 0;
#X obj 98 61 moses 0.5;
#X obj 66 111 t f b;
#X msg 68 201 fadi \$1;
#X msg 121 201 fado \$1;
#X obj 101 229 t a;
#X obj 186 111 t f b;
#X obj 101 250 s \$0-stut-params;
#X msg 103 112 5;
#X msg 223 112 5;
#X obj 66 132 jl/map 0 0.5 5000 5 -1.5;
#X obj 187 151 jl/map 0.5 1 5 5000 1.5;
#X obj 76 18 inlet;
#X text 168 28 reset;
#X msg 141 28 0.5;
#X connect 0 0 1 0;
#X connect 0 1 5 0;
#X connect 1 0 9 0;
#X connect 1 1 7 0;
#X connect 2 0 4 0;
#X connect 3 0 4 0;
#X connect 4 0 6 0;
#X connect 5 0 10 0;
#X connect 5 1 8 0;
#X connect 7 0 3 0;
#X connect 8 0 2 0;
#X connect 9 0 2 0;
#X connect 10 0 3 0;
#X connect 11 0 0 0;
#X connect 13 0 0 0;
#X restore 473 83 pd shape;
#X msg 473 47 0.5;
#X text 500 47 reset;
#X obj 581 98 loadbang;
#X msg 581 118 1 \, 0;
#X obj 549 145 s \$0-freeze-i;
#X obj 555 165 s \$0-drill-i;
#X obj 295 355 project/module-preset \$1 \$2 \$0;
#N canvas 0 25 450 300 ramp-drill 0;
#X obj 73 150 s \$0-freeze-i;
#X msg 73 130 1;
#X obj 186 167 s \$0-period-i;
#X obj 183 124 line;
#X obj 107 80 t b b;
#X obj 106 60 bng 15 250 50 0 empty empty empty 17 7 0 10 #fcfcfc #000000
#000000;
#X obj 175 209 line;
#X obj 175 256 s \$0-drywet-i;
#X msg 183 104 0 \, 1 5000;
#X msg 233 75 xfactor \$1;
#X obj 198 34 random 1000;
#X obj 198 54 jl/map 0 999 0.5 0.8;
#X msg 175 189 0 \, 1 3000;
#X obj 175 231 pow 0.3;
#X obj 186 146 jl/map 0 1 10 850 0.75;
#X obj 106 33 inlet;
#X connect 1 0 0 0;
#X connect 3 0 14 0;
#X connect 4 0 1 0;
#X connect 4 1 8 0;
#X connect 4 1 12 0;
#X connect 4 1 10 0;
#X connect 5 0 4 0;
#X connect 6 0 13 0;
#X connect 8 0 3 0;
#X connect 9 0 14 0;
#X connect 10 0 11 0;
#X connect 11 0 9 0;
#X connect 12 0 6 0;
#X connect 13 0 7 0;
#X connect 14 0 2 0;
#X connect 15 0 5 0;
#X restore 432 490 pd ramp-drill;
#X obj 432 472 bng 15 250 50 0 empty empty empty 17 7 0 10 #fcfcfc
#000000 #000000;
#X msg 195 433 menuclose \, relocate 421x263+0+0 0x0+50+50;
#X obj 388 178 r \$0-min_period-o;
#X obj 402 197 r \$0-max_rperiod-o;
#X obj 419 216 r \$0-min_slices-o;
#X obj 433 235 r \$0-max_rslices-o;
#X obj 173 31 cnv 16 16 16 empty empty \$3 4 10 0 12 #fcfcfc #404040
0;
#X connect 0 0 26 1;
#X connect 1 0 26 0;
#X connect 14 0 20 0;
#X connect 16 0 17 0;
#X connect 18 0 16 0;
#X connect 19 0 41 0;
#X connect 20 0 12 0;
#X connect 22 0 26 5;
#X connect 26 0 2 0;
#X connect 26 1 3 0;
#X connect 27 0 26 2;
#X connect 28 0 26 3;
#X connect 29 0 26 4;
#X connect 30 0 31 0;
#X connect 32 0 30 0;
#X connect 34 0 35 0;
#X connect 35 0 36 0;
#X connect 35 0 37 0;
#X connect 40 0 39 0;
#X connect 41 0 12 0;
#X connect 42 0 26 6;
#X connect 43 0 26 7;
#X connect 44 0 26 8;
#X connect 45 0 26 9;
#X coords 0 -1 1 1 164 187 2 30 30;
