#N canvas 90 264 959 604 10;
#N canvas 962 329 447 395 onepole 0;
#X obj 93 255 *;
#X obj 155 132 t f f;
#X obj 202 252 *;
#X obj 155 157 expr 1 - $f1;
#X obj 93 132 t f b;
#X obj 135 298 +;
#X obj 177 224 f;
#X obj 135 324 t f f;
#X obj 93 58 inlet;
#X obj 155 58 inlet;
#X obj 135 354 outlet;
#X obj 155 107 clip 0 1;
#X text 204 321 y(n) = a * x(n) + (1 - a) * y(n - 1);
#X text 204 302 this is a onepole filter :;
#X connect 0 0 5 0;
#X connect 1 0 3 0;
#X connect 1 1 2 1;
#X connect 2 0 5 1;
#X connect 3 0 0 1;
#X connect 4 0 0 0;
#X connect 4 1 6 0;
#X connect 5 0 7 0;
#X connect 6 0 2 0;
#X connect 7 0 10 0;
#X connect 7 1 6 1;
#X connect 8 0 4 0;
#X connect 9 0 11 0;
#X connect 11 0 1 0;
#X restore 385 231 pd onepole;
#X floatatom 442 209 5 0 0 0 - - - 0;
#X obj 336 190 t f f;
#X obj 364 255 -;
#X obj 346 435 *~;
#X obj 346 370 line~;
#X obj 442 169 loadbang;
#X obj 412 434 *~;
#X obj 412 370 line~;
#X obj 336 32 receive~ \$1-audio-in;
#X obj 357 124 delwrite~ \$0-lookahead 100;
#X obj 387 487 send~ \$1-audio-out;
#X obj 387 466 jl/merge~;
#X floatatom 502 360 5 0 0 0 - - - 0;
#X obj 51 185 project/module-preset \$1 \$2 \$0;
#X obj 51 51 cnv 15 162 58 empty empty \$1 4 10 0 12 #fcfcfc #404040
0;
#X obj 55 84 hsl 155 12 0 1 0 0 \$0-mix-o \$0-mix-i mix 2 6 0 10 #fcfcfc
#000000 #b8b8b8 0 0;
#X obj 55 70 hsl 155 12 0 1 0 0 \$0-gain-o \$0-gain-i gain 2 6 0 10
#fcfcfc #000000 #b8b8b8 0 0;
#X obj 51 204 project/parameter-simple gain \$1 \$2 \$0;
#X obj 366 94 line~;
#X msg 366 75 \$1 10;
#X obj 366 55 r \$0-gain-o;
#X obj 336 94 *~;
#X obj 496 407 r \$0-mix-o;
#X text 136 95 resonances >;
#X text 52 95 < transients;
#X obj 51 223 project/parameter-simple mix \$1 \$2 \$0;
#X obj 771 148 t f f;
#X obj 780 183 -;
#X obj 780 203 < 0;
#X obj 781 224 sel 0 1;
#X obj 777 261 f;
#X obj 807 261 f;
#X obj 831 170 loadbang;
#X obj 718 316 pack f f;
#X obj 740 133 t f f;
#X obj 496 446 line~;
#X msg 496 427 \$1 10;
#N canvas 962 329 447 395 onepole 0;
#X obj 93 255 *;
#X obj 155 132 t f f;
#X obj 202 252 *;
#X obj 155 157 expr 1 - $f1;
#X obj 93 132 t f b;
#X obj 135 298 +;
#X obj 177 224 f;
#X obj 135 324 t f f;
#X obj 93 58 inlet;
#X obj 155 58 inlet;
#X obj 135 354 outlet;
#X obj 155 107 clip 0 1;
#X text 204 321 y(n) = a * x(n) + (1 - a) * y(n - 1);
#X text 204 302 this is a onepole filter :;
#X connect 0 0 5 0;
#X connect 1 0 3 0;
#X connect 1 1 2 1;
#X connect 2 0 5 1;
#X connect 3 0 0 1;
#X connect 4 0 0 0;
#X connect 4 1 6 0;
#X connect 5 0 7 0;
#X connect 6 0 2 0;
#X connect 7 0 10 0;
#X connect 7 1 6 1;
#X connect 8 0 4 0;
#X connect 9 0 11 0;
#X connect 11 0 1 0;
#X restore 739 82 pd onepole;
#X floatatom 796 60 5 0 0 0 - - - 0;
#X obj 796 20 loadbang;
#X msg 831 193 5;
#X obj 796 294 t f f;
#X obj 744 366 pack f f;
#X obj 720 252 t f f;
#X obj 739 340 expr 1 - $f1;
#X msg 861 193 500;
#X floatatom 181 383 15 0 0 0 - - - 0;
#X obj 120 353 hsl 128 15 0 1 0 0 empty empty empty -2 -8 0 10 #fcfcfc
#000000 #000000 0 0;
#X floatatom 324 224 5 0 0 0 - - - 0;
#X obj 157 441 hsl 128 15 0 1 0 0 empty empty empty -2 -8 0 10 #fcfcfc
#000000 #000000 0 0;
#X obj 336 148 env~ 1024;
#X obj 308 253 - 5;
#X msg 346 350 \$1 11.61;
#X msg 412 350 \$1 11.61;
#X obj 733 56 clip 0 1;
#X obj 336 169 dbtorms;
#X obj 299 299 * 15;
#X obj 764 106 pow 0.3;
#X msg 442 189 0.95;
#X obj 502 380 delread~ \$0-lookahead 23.22;
#X msg 796 40 0.2;
#X connect 0 0 3 1;
#X connect 1 0 0 1;
#X connect 2 0 3 0;
#X connect 2 1 0 0;
#X connect 3 0 52 0;
#X connect 3 0 57 0;
#X connect 4 0 12 0;
#X connect 5 0 4 0;
#X connect 6 0 59 0;
#X connect 7 0 12 1;
#X connect 8 0 7 0;
#X connect 9 0 22 0;
#X connect 12 0 11 0;
#X connect 13 0 60 0;
#X connect 19 0 22 1;
#X connect 20 0 19 0;
#X connect 21 0 20 0;
#X connect 22 0 10 0;
#X connect 22 0 51 0;
#X connect 23 0 37 0;
#X connect 27 0 28 1;
#X connect 27 1 28 0;
#X connect 28 0 29 0;
#X connect 29 0 30 0;
#X connect 30 0 31 0;
#X connect 30 1 32 0;
#X connect 31 0 42 0;
#X connect 32 0 42 0;
#X connect 33 0 41 0;
#X connect 33 0 46 0;
#X connect 35 0 44 0;
#X connect 35 1 27 0;
#X connect 36 0 12 2;
#X connect 37 0 36 0;
#X connect 38 0 58 0;
#X connect 39 0 38 1;
#X connect 40 0 61 0;
#X connect 41 0 31 1;
#X connect 42 0 34 1;
#X connect 42 1 43 1;
#X connect 44 0 53 0;
#X connect 44 1 45 0;
#X connect 45 0 54 0;
#X connect 45 0 50 0;
#X connect 46 0 32 1;
#X connect 49 0 52 1;
#X connect 51 0 56 0;
#X connect 53 0 5 0;
#X connect 54 0 8 0;
#X connect 55 0 38 0;
#X connect 56 0 2 0;
#X connect 57 0 55 0;
#X connect 58 0 35 0;
#X connect 59 0 1 0;
#X connect 60 0 4 1;
#X connect 60 0 7 1;
#X connect 61 0 39 0;
#X coords 0 -1 1 1 164 60 2 50 50;
