#N canvas 585 242 723 584 10;
#X obj 46 233 r \$0-show-mapping-o;
#X text 205 278 WxHx0+0 0x0+X+Y;
#X msg 46 419 0;
#N canvas 642 183 450 300 set-all-input-modes 0;
#X obj 162 32 inlet;
#X obj 79 128 s \$0-gain-mode;
#X obj 109 170 s \$0-decimate-mode;
#X obj 122 189 s \$0-bitcrush-mode;
#X obj 136 208 s \$0-volume-mode;
#X obj 162 55 t f f f f f;
#X obj 88 147 s \$0-drywet-mode;
#X connect 0 0 5 0;
#X connect 5 0 1 0;
#X connect 5 1 6 0;
#X connect 5 2 2 0;
#X connect 5 3 3 0;
#X connect 5 4 4 0;
#X restore 46 439 pd set-all-input-modes;
#X obj 46 399 r \$0-reset-mapping-o;
#X obj 60 275 loadbang;
#X msg 46 253 vis 1;
#N canvas 50 50 524 140 \$1-parameters 0;
#X obj 413 8 project/parameter volume \$1 \$2 \$0;
#X obj 9 8 project/parameter gain \$1 \$2 \$0;
#X obj 211 8 project/parameter decimate \$1 \$2 \$0;
#X obj 312 8 project/parameter bitcrush \$1 \$2 \$0;
#X obj 110 8 project/parameter drywet \$1 \$2 \$0;
#X restore 46 338 pd \$1-parameters;
#X obj 46 319 s pd-\$1-parameters;
#X obj 334 113 line~;
#X msg 334 94 \$1 10;
#X obj 334 74 r \$0-gain-o;
#X obj 51 51 cnv 15 162 121 empty empty \$3\\\ \$1 3 9 0 12 #fcfcfc
#404040 0;
#X obj 55 125 hsl 155 12 0 1 0 0 \$0-volume-o \$0-volume-i volume 2
6 0 10 #fcfcfc #000000 #b8b8b8 0 0;
#X obj 52 156 bng 15 250 50 0 \$0-reset-mapping-o \$0-reset-mapping-i
reset_mapping 17 7 0 10 #fcfcfc #000000 #000000;
#X obj 52 139 bng 15 250 50 0 \$0-show-mapping-o \$0-show-mapping-i
show_mapping 17 7 0 10 #fcfcfc #000000 #000000;
#X obj 55 69 hsl 155 12 0 1 0 0 \$0-gain-o \$0-gain-i gain 2 6 0 10
#fcfcfc #000000 #b8b8b8 0 0;
#X obj 384 473 *~;
#X obj 410 434 line~;
#X msg 410 415 \$1 10;
#X obj 410 396 r \$0-volume-o;
#X obj 55 111 hsl 155 12 0 1 0 0 \$0-bitcrush-o \$0-bitcrush-i bitcrush
2 6 0 10 #fcfcfc #000000 #b8b8b8 0 0;
#X obj 55 97 hsl 155 12 0 1 0 0 \$0-decimate-o \$0-decimate-i decimate
2 6 0 10 #fcfcfc #000000 #b8b8b8 0 0;
#X obj 441 176 r \$0-decimate-o;
#X obj 470 207 r \$0-bitcrush-o;
#X obj 470 229 jl/map 0 1 32768 4 -2.5;
#X obj 311 155 *~;
#X obj 372 245 jl/decimate~;
#X obj 372 269 jl/bitcrush~;
#X obj 46 376 project/module-preset \$1 \$2 \$0;
#X obj 372 291 -~;
#X obj 480 308 * 0.5;
#X obj 480 288 pow 2;
#X obj 347 320 jl/merge~;
#X obj 480 268 r \$0-drywet-o;
#X msg 480 328 \$1 10;
#X obj 480 347 line~;
#X obj 55 83 hsl 155 12 0 1 0 0 \$0-drywet-o \$0-drywet-i drywet 2
6 0 10 #fcfcfc #000000 #b8b8b8 0 0;
#X msg 60 295 menuclose \, relocate 524x140+0+0 0x0+50+50;
#X obj 398 222 *~ 1;
#X obj 438 112 s \$0-decimate-i;
#X obj 464 132 s \$0-bitcrush-i;
#X obj 464 63 loadbang;
#X msg 464 83 0, f 5;
#X obj 384 525 s~ \$1-audio-out;
#X obj 311 54 r~ \$1-audio-in;
#X obj 462 436 r \$0-switchctrl-o;
#X obj 197 52 tgl 15 0 \$0-switchctrl-o \$0-switchctrl-i dsp -20 7
0 10 #fcfcfc #000000 #000000 0 1;
#X obj 46 357 project/parameter-simple switchctrl \$1 \$2 \$0;
#X obj 609 476 switch~;
#X obj 384 501 *~;
#X obj 462 456 jl/switchcontrol 5 5 5;
#X connect 0 0 6 0;
#X connect 2 0 3 0;
#X connect 4 0 2 0;
#X connect 5 0 38 0;
#X connect 6 0 8 0;
#X connect 9 0 26 1;
#X connect 10 0 9 0;
#X connect 11 0 10 0;
#X connect 17 0 50 0;
#X connect 18 0 17 1;
#X connect 19 0 18 0;
#X connect 20 0 19 0;
#X connect 23 0 27 1;
#X connect 24 0 25 0;
#X connect 25 0 28 1;
#X connect 26 0 39 0;
#X connect 26 0 33 0;
#X connect 27 0 28 0;
#X connect 28 0 30 0;
#X connect 30 0 33 1;
#X connect 31 0 35 0;
#X connect 32 0 31 0;
#X connect 33 0 17 0;
#X connect 34 0 32 0;
#X connect 35 0 36 0;
#X connect 36 0 33 2;
#X connect 38 0 8 0;
#X connect 39 0 27 0;
#X connect 39 0 30 1;
#X connect 42 0 43 0;
#X connect 43 0 40 0;
#X connect 43 0 41 0;
#X connect 45 0 26 0;
#X connect 46 0 51 0;
#X connect 50 0 44 0;
#X connect 51 0 50 1;
#X connect 51 2 49 0;
#X coords 0 -1 1 1 164 123 2 50 50;
