#N canvas 488 189 723 584 10;
#X obj 46 233 r \$0-show-mapping-o;
#X text 205 278 WxHx0+0 0x0+X+Y;
#X msg 46 435 0;
#N canvas 760 180 450 300 set-all-input-modes 0;
#X obj 162 32 inlet;
#X obj 79 128 s \$0-gain-mode;
#X obj 190 244 s \$0-volume-mode;
#X obj 88 147 s \$0-drywet-mode;
#X obj 106 165 s \$0-predrive-mode;
#X obj 171 224 s \$0-postdrive-mode;
#X obj 162 55 t f f f f f f f;
#X obj 129 184 s \$0-cutoff-mode;
#X obj 149 204 s \$0-Q-mode;
#X connect 0 0 6 0;
#X connect 6 0 1 0;
#X connect 6 1 3 0;
#X connect 6 2 4 0;
#X connect 6 3 7 0;
#X connect 6 4 8 0;
#X connect 6 5 5 0;
#X connect 6 6 2 0;
#X restore 46 455 pd set-all-input-modes;
#X obj 46 415 r \$0-reset-mapping-o;
#X obj 60 275 loadbang;
#X msg 46 253 vis 1;
#N canvas 50 50 423 263 \$1-parameters 0;
#X obj 312 131 project/parameter volume \$1 \$2 \$0;
#X obj 9 8 project/parameter gain \$1 \$2 \$0;
#X obj 110 8 project/parameter drywet \$1 \$2 \$0;
#X obj 211 8 project/parameter predrive \$1 \$2 \$0;
#X obj 9 131 project/parameter cutoff \$1 \$2 \$0;
#X obj 110 131 project/parameter Q \$1 \$2 \$0;
#X obj 211 131 project/parameter postdrive \$1 \$2 \$0;
#X restore 46 338 pd \$1-parameters;
#X obj 46 319 s pd-\$1-parameters;
#X obj 375 158 line~;
#X msg 375 139 \$1 10;
#X obj 375 119 r \$0-gain-o;
#X obj 51 51 cnv 15 162 155 empty empty \$3\\\ \$1 3 9 0 12 #fcfcfc
#404040 0;
#X obj 55 159 hsl 155 12 0 1 0 0 \$0-volume-o \$0-volume-i volume 2
6 0 10 #fcfcfc #000000 #b8b8b8 0 0;
#X obj 52 190 bng 15 250 50 0 \$0-reset-mapping-o \$0-reset-mapping-i
reset_mapping 17 7 0 10 #fcfcfc #000000 #000000;
#X obj 52 173 bng 15 250 50 0 \$0-show-mapping-o \$0-show-mapping-i
show_mapping 17 7 0 10 #fcfcfc #000000 #000000;
#X obj 55 69 hsl 155 12 0 1 0 0 \$0-gain-o \$0-gain-i gain 2 6 0 10
#fcfcfc #000000 #b8b8b8 0 0;
#X obj 375 411 *~;
#X obj 422 386 line~;
#X msg 422 366 \$1 10;
#X obj 422 345 r \$0-volume-o;
#X obj 55 145 hsl 155 12 0 1 0 0 \$0-postdrive-o \$0-postdrive-i postdrive
2 6 0 10 #fcfcfc #000000 #b8b8b8 0 0;
#X obj 55 97 hsl 155 12 0 1 0 0 \$0-predrive-o \$0-predrive-i predrive
2 6 0 10 #fcfcfc #000000 #b8b8b8 0 0;
#X obj 321 192 *~;
#X obj 46 376 project/module-preset \$1 \$2 \$0;
#X obj 55 83 hsl 155 12 0 1 0 0 \$0-drywet-o \$0-drywet-i drywet 2
6 0 10 #fcfcfc #000000 #b8b8b8 0 0;
#N canvas 213 132 739 667 distooooooo 0;
#X obj 106 583 jl/merge~;
#X msg 379 477 \$1 10;
#X obj 379 496 line~;
#X obj 106 315 *~ 1;
#X obj 383 409 t a;
#X obj 52 46 inlet~;
#X obj 106 618 outlet~;
#X obj 383 368 loadbang;
#N canvas 637 69 718 685 distort 0;
#X obj 164 180 abs~;
#X obj 143 292 *~;
#X obj 128 260 /~;
#X obj 143 227 clip~ 1e-09 1;
#X obj 88 81 *~ 1;
#X obj 174 260 pow~ 1;
#X obj 88 59 inlet~;
#X obj 227 160 line~ 1;
#X msg 227 141 \$1 10;
#X obj 227 79 swap 1;
#X obj 227 101 -;
#X obj 227 58 inlet;
#X text 232 227 < avoid division by zero;
#X obj 385 418 line~ 1;
#X msg 385 399 \$1 10;
#X obj 385 337 swap 1;
#X obj 385 359 -;
#X obj 428 55 inlet;
#X obj 275 479 abs~;
#X obj 254 591 *~;
#X obj 239 559 /~;
#X obj 254 526 clip~ 1e-09 1;
#X obj 285 559 pow~ 1;
#X obj 229 433 *~ 1;
#X obj 254 610 outlet~;
#X obj 265 286 mtof;
#X obj 265 328 line~;
#X msg 265 307 \$1 10;
#X obj 304 328 sig~ 0;
#X obj 324 59 inlet;
#X obj 227 121 clip 1e-12 1;
#X obj 385 379 clip 1e-12 1;
#X obj 374 56 inlet;
#X obj 180 406 jl/merge~;
#X text 238 383 < was bob~;
#X obj 205 384 bob~;
#X connect 0 0 3 0;
#X connect 0 0 5 0;
#X connect 1 0 33 0;
#X connect 1 0 35 0;
#X connect 2 0 1 0;
#X connect 3 0 2 1;
#X connect 4 0 2 0;
#X connect 4 0 0 0;
#X connect 5 0 1 1;
#X connect 6 0 4 0;
#X connect 7 0 5 1;
#X connect 8 0 7 0;
#X connect 9 0 10 0;
#X connect 9 1 10 1;
#X connect 10 0 30 0;
#X connect 11 0 9 0;
#X connect 13 0 22 1;
#X connect 14 0 13 0;
#X connect 15 0 16 0;
#X connect 15 1 16 1;
#X connect 16 0 31 0;
#X connect 17 0 15 0;
#X connect 18 0 21 0;
#X connect 18 0 22 0;
#X connect 19 0 24 0;
#X connect 20 0 19 0;
#X connect 21 0 20 1;
#X connect 22 0 19 1;
#X connect 23 0 18 0;
#X connect 23 0 20 0;
#X connect 25 0 27 0;
#X connect 26 0 35 1;
#X connect 27 0 26 0;
#X connect 28 0 35 2;
#X connect 29 0 25 0;
#X connect 30 0 8 0;
#X connect 31 0 14 0;
#X connect 32 0 28 0;
#X connect 35 0 23 0;
#X connect 35 0 33 1;
#X restore 137 315 pd distort;
#X obj 285 53 t f f;
#X obj 285 33 inlet;
#X obj 368 205 *;
#X obj 344 167 t b f;
#X obj 263 177 *;
#X obj 260 151 t b f;
#X obj 253 112 t f f;
#X obj 260 480 jl/flatten~;
#X obj 357 34 inlet;
#X obj 397 34 inlet;
#X obj 435 34 inlet;
#X obj 472 34 inlet;
#X obj 253 93 jl/map 0 1 0 1 -1 0.1;
#X obj 106 233 hip~ 20;
#X obj 137 335 hip~ 1;
#X obj 137 527 *~;
#X msg 383 388 attack 1 \, release 100 \, ratio 2 \, knee 0 \, makeup
0;
#X connect 0 0 6 0;
#X connect 1 0 2 0;
#X connect 2 0 0 2;
#X connect 3 0 0 0;
#X connect 3 0 16 0;
#X connect 4 0 16 0;
#X connect 5 0 22 0;
#X connect 7 0 25 0;
#X connect 8 0 23 0;
#X connect 9 0 21 0;
#X connect 9 1 1 0;
#X connect 10 0 9 0;
#X connect 11 0 8 4;
#X connect 12 0 11 0;
#X connect 12 1 11 1;
#X connect 13 0 8 1;
#X connect 14 0 13 0;
#X connect 14 1 13 1;
#X connect 15 0 14 0;
#X connect 15 1 12 0;
#X connect 16 0 24 1;
#X connect 17 0 13 0;
#X connect 18 0 8 2;
#X connect 19 0 8 3;
#X connect 20 0 11 0;
#X connect 21 0 15 0;
#X connect 22 0 3 0;
#X connect 22 0 8 0;
#X connect 23 0 16 1;
#X connect 23 0 24 0;
#X connect 24 0 0 1;
#X connect 25 0 4 0;
#X restore 347 319 pd distooooooo;
#X msg 545 279 51;
#X msg 574 279 0.5;
#X msg 603 279 0.2;
#X obj 603 252 loadbang;
#X msg 516 279 0.9;
#X obj 453 119 r \$0-drywet-o;
#X obj 466 138 r \$0-predrive-o;
#X obj 479 157 r \$0-cutoff-o;
#X obj 493 176 r \$0-Q-o;
#X obj 509 195 r \$0-postdrive-o;
#X floatatom 52 111 10 0 127 1 cutoff\ (MIDI) \$0-cutoff-i \$0-cutoff-o
0;
#X floatatom 52 128 10 0 1e+06 1 Q \$0-Q-i \$0-Q-o 0;
#X msg 60 295 menuclose \, relocate 423x263+0+0 0x0+50+50;
#X obj 386 485 s~ \$1-audio-out;
#X obj 321 72 r~ \$1-audio-in;
#X obj 517 308 s \$0-predrive-i;
#X obj 530 327 s \$0-cutoff-i;
#X obj 544 346 s \$0-Q-i;
#X obj 560 365 s \$0-postdrive-i;
#X obj 420 421 r \$0-switchctrl-o;
#X obj 197 52 tgl 15 0 \$0-switchctrl-o \$0-switchctrl-i dsp -20 7
0 10 #fcfcfc #000000 #000000 0 1;
#X obj 46 357 project/parameter-simple switchctrl \$1 \$2 \$0;
#X obj 567 461 switch~;
#X obj 386 463 *~;
#X obj 420 441 jl/switchcontrol 5 5 5;
#X obj 346 343 hip~ 1;
#X connect 0 0 6 0;
#X connect 2 0 3 0;
#X connect 4 0 2 0;
#X connect 5 0 39 0;
#X connect 6 0 8 0;
#X connect 9 0 23 1;
#X connect 10 0 9 0;
#X connect 11 0 10 0;
#X connect 17 0 50 0;
#X connect 18 0 17 1;
#X connect 19 0 18 0;
#X connect 20 0 19 0;
#X connect 23 0 26 0;
#X connect 26 0 52 0;
#X connect 27 0 43 0;
#X connect 28 0 44 0;
#X connect 29 0 45 0;
#X connect 30 0 31 0;
#X connect 30 0 27 0;
#X connect 30 0 28 0;
#X connect 30 0 29 0;
#X connect 31 0 42 0;
#X connect 32 0 26 1;
#X connect 33 0 26 2;
#X connect 34 0 26 3;
#X connect 35 0 26 4;
#X connect 36 0 26 5;
#X connect 39 0 8 0;
#X connect 41 0 23 0;
#X connect 46 0 51 0;
#X connect 50 0 40 0;
#X connect 51 0 50 1;
#X connect 51 2 49 0;
#X connect 52 0 17 0;
#X coords 0 -1 1 1 164 157 2 50 50;
