#N canvas 173 104 924 652 10;
#X obj 51 51 cnv 15 162 263 empty empty \$3\\\ \$1 3 9 0 12 #fcfcfc
#404040 0;
#X obj 52 69 tgl 15 0 \$0-record-o \$0-record-i record 17 7 0 10 #fcfcfc
#000000 #000000 0 1;
#X obj 52 86 tgl 15 0 \$0-play-o \$0-play-i play 17 7 0 10 #fcfcfc
#000000 #000000 0 1;
#X msg 678 455 pan 0 \, width 0;
#X obj 678 435 loadbang;
#X obj 345 435 *~;
#X obj 435 394 line~;
#X obj 435 354 r \$0-volume-o;
#X msg 614 113 speed \$1;
#X obj 614 94 r \$0-speed-o;
#X msg 723 173 beg \$1;
#X msg 804 173 len \$1;
#X obj 723 109 r \$0-begin-o;
#X obj 804 109 r \$0-length-o;
#X obj 614 170 r \$0-pitch-o;
#X msg 614 189 pitch \$1;
#N canvas 181 158 633 520 recorder~ 0;
#X obj 67 48 inlet~;
#X obj 67 298 tabwrite~ \$0-buffer;
#X obj 151 48 inlet;
#X msg 271 181 stop;
#X obj 67 325 array define \$0-buffer 1.323e+06;
#X text 268 325 < 30s @ 44100Hz;
#X obj 67 240 *~;
#X obj 151 133 line~;
#X obj 151 111 pack f f;
#X msg 267 229 const 0;
#X obj 267 250 send \$0-buffer;
#X obj 237 140 t b b b;
#X obj 308 181 timer;
#X obj 289 140 t b b;
#X obj 419 316 samplerate~;
#X obj 400 384 / 1.323e+06;
#X obj 400 363 *;
#X obj 400 270 * 0.001;
#X obj 400 404 clip 0 1;
#X obj 463 360 expr size("$s1");
#X obj 463 340 symbol \$0-buffer;
#X obj 400 290 t f b b;
#X obj 400 451 outlet fraction;
#N canvas 519 414 450 300 delay-tgl-vals 0;
#X obj 137 76 t f f;
#X obj 188 141 delay;
#X obj 137 141 delay;
#X obj 137 111 sel 1;
#X msg 137 162 1;
#X obj 188 110 sel 0;
#X msg 188 162 0;
#X obj 137 187 t f;
#X obj 188 187 t f;
#X obj 137 52 inlet;
#X obj 246 60 inlet;
#X obj 95 261 outlet 1-delayed;
#X obj 213 251 outlet 0-delayed;
#X connect 0 0 3 0;
#X connect 0 1 5 0;
#X connect 1 0 6 0;
#X connect 2 0 4 0;
#X connect 3 0 2 0;
#X connect 3 1 7 0;
#X connect 4 0 7 0;
#X connect 5 0 1 0;
#X connect 5 1 8 0;
#X connect 6 0 8 0;
#X connect 7 0 11 0;
#X connect 8 0 12 0;
#X connect 9 0 0 0;
#X connect 10 0 2 1;
#X connect 10 0 1 1;
#X restore 151 90 pd delay-tgl-vals;
#X obj 223 48 r \$0-fade;
#X obj 223 69 t f f;
#X obj 250 111 sel 1 0;
#X obj 213 217 t a;
#X connect 0 0 6 0;
#X connect 2 0 23 0;
#X connect 3 0 27 0;
#X connect 6 0 1 0;
#X connect 7 0 6 1;
#X connect 8 0 7 0;
#X connect 9 0 10 0;
#X connect 11 0 27 0;
#X connect 11 1 9 0;
#X connect 11 2 12 0;
#X connect 12 0 17 0;
#X connect 13 0 3 0;
#X connect 13 1 12 1;
#X connect 14 0 16 1;
#X connect 15 0 18 0;
#X connect 16 0 15 0;
#X connect 17 0 21 0;
#X connect 18 0 22 0;
#X connect 19 0 15 1;
#X connect 20 0 19 0;
#X connect 21 0 16 0;
#X connect 21 1 14 0;
#X connect 21 2 20 0;
#X connect 23 0 8 0;
#X connect 23 1 26 0;
#X connect 24 0 25 0;
#X connect 25 0 8 1;
#X connect 25 1 23 1;
#X connect 26 0 11 0;
#X connect 26 1 13 0;
#X connect 27 0 1 0;
#X restore 251 148 pd recorder~;
#X obj 320 98 r \$0-record-o;
#X obj 320 119 t f f;
#X obj 400 280 line~;
#X obj 345 401 *~;
#X obj 547 413 t a;
#X obj 480 79 symbol \$0-buffer;
#X msg 480 141 set \$1 \$2;
#X obj 525 100 samplerate~;
#X obj 480 58 t b b;
#X obj 480 120 pack s f;
#X obj 480 38 loadbang;
#X obj 251 210 s \$0-buffer-fraction;
#X obj 768 49 r \$0-buffer-fraction;
#X obj 768 70 t f f;
#X obj 734 129 t b f;
#X obj 723 153 *;
#X obj 815 129 t b f;
#X obj 804 153 *;
#X obj 643 22 loadbang;
#X msg 643 43 5, f 2;
#X obj 643 64 s \$0-fade;
#N canvas 519 414 450 300 delay-tgl-vals 0;
#X obj 137 76 t f f;
#X obj 188 141 delay;
#X obj 137 141 delay;
#X obj 137 111 sel 1;
#X msg 137 162 1;
#X obj 188 110 sel 0;
#X msg 188 162 0;
#X obj 137 187 t f;
#X obj 188 187 t f;
#X obj 137 52 inlet;
#X obj 246 60 inlet;
#X obj 95 261 outlet 1-delayed;
#X obj 213 251 outlet 0-delayed;
#X connect 0 0 3 0;
#X connect 0 1 5 0;
#X connect 1 0 6 0;
#X connect 2 0 4 0;
#X connect 3 0 2 0;
#X connect 3 1 7 0;
#X connect 4 0 7 0;
#X connect 5 0 1 0;
#X connect 5 1 8 0;
#X connect 6 0 8 0;
#X connect 7 0 11 0;
#X connect 8 0 12 0;
#X connect 9 0 0 0;
#X connect 10 0 2 1;
#X connect 10 0 1 1;
#X restore 400 240 pd delay-tgl-vals;
#X obj 458 194 r \$0-fade;
#X obj 400 218 == 0;
#X obj 458 215 t f f;
#X obj 400 260 pack f f;
#X msg 435 374 \$1 5;
#X obj 253 282 jl/guzi~ 10 \$0-buffer;
#X floatatom 52 131 10 0.001 1e+06 1 speed \$0-speed-i \$0-speed-o
0;
#X floatatom 52 148 10 0.001 1e+06 1 rspeed \$0-rspeed-i \$0-rspeed-o
0;
#X obj 55 267 hsl 155 12 0 1 0 0 \$0-volume-o \$0-volume-i volume 2
6 0 10 #fcfcfc #000000 #b8b8b8 0 0;
#X obj 52 298 bng 15 250 50 0 \$0-reset-mapping-o \$0-reset-mapping-i
reset_mapping 17 7 0 10 #fcfcfc #000000 #000000;
#X obj 52 281 bng 15 250 50 0 \$0-show-mapping-o \$0-show-mapping-i
show_mapping 17 7 0 10 #fcfcfc #000000 #000000;
#X obj 55 103 hsl 155 12 0 1 0 0 \$0-begin-o \$0-begin-i begin 2 6
0 10 #fcfcfc #000000 #b8b8b8 0 0;
#X obj 55 117 hsl 155 12 0 1 0 0 \$0-length-o \$0-length-i length 2
6 0 10 #fcfcfc #000000 #b8b8b8 0 0;
#X floatatom 52 165 10 0 0 1 pitch \$0-pitch-i \$0-pitch-o 0;
#X obj 547 433 s \$0-to-guzi;
#X obj 253 262 r \$0-to-guzi;
#X floatatom 52 182 10 0 0 1 rpitch \$0-rpitch-i \$0-rpitch-o 0;
#X floatatom 52 199 10 0.001 1e+06 1 fadi \$0-fadi-i \$0-fadi-o 0;
#X floatatom 52 216 10 0.001 1e+06 1 fado \$0-fado-i \$0-fado-o 0;
#X obj 52 233 tgl 15 0 \$0-rvs-o \$0-rvs-i rvs 17 7 0 10 #fcfcfc #000000
#000000 0 1;
#X obj 52 250 tgl 15 0 \$0-rrvs-o \$0-rrvs-i rrvs 17 7 0 10 #fcfcfc
#000000 #000000 0 1;
#X obj 614 132 r \$0-rspeed-o;
#X msg 614 151 rspeed \$1;
#X obj 614 208 r \$0-rpitch-o;
#X msg 614 227 rpitch \$1;
#X obj 614 246 r \$0-fadi-o;
#X msg 614 265 fadi \$1;
#X obj 614 284 r \$0-fado-o;
#X msg 614 303 fado \$1;
#X obj 614 322 r \$0-rvs-o;
#X msg 614 341 rvs \$1;
#X obj 614 360 r \$0-rrvs-o;
#X msg 614 379 rrvs \$1;
#X obj 632 409 r \$0-play-o;
#X obj 770 214 s \$0-to-guzi;
#X obj 51 358 r \$0-show-mapping-o;
#X text 210 403 WxHx0+0 0x0+X+Y;
#X msg 81 549 0;
#N canvas 642 183 450 300 set-all-input-modes 0;
#X obj 258 211 s \$0-volume-mode;
#X obj 143 20 inlet;
#X obj 48 122 s \$0-record-mode;
#X obj 59 141 s \$0-play-mode;
#X obj 70 160 s \$0-begin-mode;
#X obj 83 179 s \$0-length-mode;
#X obj 97 198 s \$0-speed-mode;
#X obj 110 217 s \$0-rspeed-mode;
#X obj 121 236 s \$0-pitch-mode;
#X obj 136 255 s \$0-rpitch-mode;
#X obj 208 134 s \$0-fadi-mode;
#X obj 220 153 s \$0-fado-mode;
#X obj 231 172 s \$0-rvs-mode;
#X obj 247 191 s \$0-rrvs-mode;
#X obj 143 43 t f f f f f f f f f f f f f;
#X connect 1 0 14 0;
#X connect 14 0 2 0;
#X connect 14 1 3 0;
#X connect 14 2 4 0;
#X connect 14 3 5 0;
#X connect 14 4 6 0;
#X connect 14 5 7 0;
#X connect 14 6 8 0;
#X connect 14 7 9 0;
#X connect 14 8 10 0;
#X connect 14 9 11 0;
#X connect 14 10 12 0;
#X connect 14 11 13 0;
#X connect 14 12 0 0;
#X restore 81 569 pd set-all-input-modes;
#X obj 81 529 r \$0-reset-mapping-o;
#X obj 65 400 loadbang;
#X msg 51 378 vis 1;
#N canvas 50 50 423 509 \$1-parameters 0;
#X obj 9 377 project/parameter volume \$1 \$2 \$0;
#X obj 9 131 project/parameter speed \$1 \$2 \$0;
#X obj 9 8 project/parameter-toggle record \$1 \$2 \$0;
#X obj 110 8 project/parameter-toggle play \$1 \$2 \$0;
#X obj 211 8 project/parameter begin \$1 \$2 \$0;
#X obj 312 8 project/parameter length \$1 \$2 \$0;
#X obj 110 131 project/parameter rspeed \$1 \$2 \$0;
#X obj 211 131 project/parameter pitch \$1 \$2 \$0;
#X obj 312 131 project/parameter rpitch \$1 \$2 \$0;
#X obj 9 254 project/parameter fadi \$1 \$2 \$0;
#X obj 110 254 project/parameter fado \$1 \$2 \$0;
#X obj 211 254 project/parameter-toggle rvs \$1 \$2 \$0;
#X obj 312 254 project/parameter-toggle rrvs \$1 \$2 \$0;
#X restore 51 463 pd \$1-parameters;
#X obj 51 444 s pd-\$1-parameters;
#X obj 51 501 project/module-preset \$1 \$2 \$0;
#X msg 65 420 menuclose \, relocate 423x509+0+0 0x0+50+50;
#X obj 345 505 s~ \$1-audio-out;
#X obj 251 77 r~ \$1-audio-in;
#X obj 378 440 r \$0-switchctrl-o;
#X obj 197 52 tgl 15 0 \$0-switchctrl-o \$0-switchctrl-i dsp -20 7
0 10 #fcfcfc #000000 #000000 0 1;
#X obj 51 482 project/parameter-simple switchctrl \$1 \$2 \$0;
#X obj 525 480 switch~;
#X obj 345 482 *~;
#X obj 378 460 jl/switchcontrol 5 5 5;
#X connect 3 0 21 0;
#X connect 4 0 3 0;
#X connect 5 0 91 0;
#X connect 6 0 5 1;
#X connect 7 0 43 0;
#X connect 8 0 21 0;
#X connect 9 0 8 0;
#X connect 10 0 73 0;
#X connect 11 0 73 0;
#X connect 12 0 32 0;
#X connect 13 0 34 0;
#X connect 14 0 15 0;
#X connect 15 0 21 0;
#X connect 16 0 28 0;
#X connect 17 0 18 0;
#X connect 18 0 16 1;
#X connect 18 1 40 0;
#X connect 19 0 20 1;
#X connect 20 0 5 0;
#X connect 21 0 53 0;
#X connect 22 0 26 0;
#X connect 23 0 21 0;
#X connect 24 0 26 1;
#X connect 25 0 22 0;
#X connect 25 1 24 0;
#X connect 26 0 23 0;
#X connect 27 0 25 0;
#X connect 29 0 30 0;
#X connect 30 0 31 0;
#X connect 30 1 33 0;
#X connect 31 0 32 0;
#X connect 31 1 32 1;
#X connect 32 0 10 0;
#X connect 33 0 34 0;
#X connect 33 1 34 1;
#X connect 34 0 11 0;
#X connect 35 0 36 0;
#X connect 36 0 37 0;
#X connect 38 0 42 0;
#X connect 39 0 41 0;
#X connect 40 0 38 0;
#X connect 41 0 42 1;
#X connect 41 1 38 1;
#X connect 42 0 19 0;
#X connect 43 0 6 0;
#X connect 44 0 20 0;
#X connect 54 0 44 0;
#X connect 60 0 61 0;
#X connect 61 0 21 0;
#X connect 62 0 63 0;
#X connect 63 0 21 0;
#X connect 64 0 65 0;
#X connect 65 0 21 0;
#X connect 66 0 67 0;
#X connect 67 0 21 0;
#X connect 68 0 69 0;
#X connect 69 0 21 0;
#X connect 70 0 71 0;
#X connect 71 0 21 0;
#X connect 72 0 21 0;
#X connect 74 0 80 0;
#X connect 76 0 77 0;
#X connect 78 0 76 0;
#X connect 79 0 84 0;
#X connect 80 0 82 0;
#X connect 84 0 82 0;
#X connect 86 0 16 0;
#X connect 87 0 92 0;
#X connect 91 0 85 0;
#X connect 92 0 91 1;
#X connect 92 2 90 0;
#X coords 0 -1 1 1 164 265 2 50 50;
