#N canvas 456 226 657 553 10;
#X obj 53 239 r \$0-show-mapping-o;
#X text 212 284 WxHx0+0 0x0+X+Y;
#X msg 53 445 0;
#N canvas 642 183 450 300 set-all-input-modes 0;
#X obj 162 32 inlet;
#X obj 79 128 s \$0-gain-mode;
#X obj 90 147 s \$0-drywet-mode;
#X obj 103 166 s \$0-envelope-mode;
#X obj 117 185 s \$0-firstdelay-mode;
#X obj 130 204 s \$0-factor-mode;
#X obj 141 223 s \$0-volume-mode;
#X obj 162 55 t f f f f f f;
#X connect 0 0 7 0;
#X connect 7 0 1 0;
#X connect 7 1 2 0;
#X connect 7 2 3 0;
#X connect 7 3 4 0;
#X connect 7 4 5 0;
#X connect 7 5 6 0;
#X restore 53 465 pd set-all-input-modes;
#X obj 53 425 r \$0-reset-mapping-o;
#X obj 67 281 loadbang;
#X msg 53 259 vis 1;
#N canvas 50 50 322 263 \$1-parameters 0;
#X obj 211 131 project/parameter volume \$1 \$2 \$0;
#X obj 110 8 project/parameter drywet \$1 \$2 \$0;
#X obj 9 8 project/parameter gain \$1 \$2 \$0;
#X obj 211 8 project/parameter envelope \$1 \$2 \$0;
#X obj 9 131 project/parameter firstdelay \$1 \$2 \$0;
#X obj 110 131 project/parameter factor \$1 \$2 \$0;
#X restore 53 345 pd \$1-parameters;
#X obj 53 325 s pd-\$1-parameters;
#X obj 465 115 r \$0-drywet-o;
#X msg 465 134 drywet \$1;
#X obj 297 179 *~;
#X obj 312 144 line~;
#X msg 312 125 \$1 10;
#X obj 312 105 r \$0-gain-o;
#X obj 465 77 r \$0-voices-o;
#X msg 465 96 voices \$1;
#X obj 465 191 r \$0-firstdelay-o;
#X msg 465 210 firstdelay \$1;
#X obj 465 229 r \$0-factor-o;
#X msg 465 248 factor \$1;
#X obj 51 51 cnv 15 162 161 empty empty \$3\\\ \$1 3 9 0 12 #fcfcfc
#404040 0;
#X floatatom 52 148 10 0 0 1 factor \$0-factor-i \$0-factor-o 0;
#X floatatom 52 69 10 1 1000 1 voices \$0-voices-i \$0-voices-o 0;
#X floatatom 52 114 10 -1 1 1 envelope \$0-envelope-i \$0-envelope-o
0;
#X obj 55 100 hsl 155 12 0 1 0 0 \$0-drywet-o \$0-drywet-i drywet 2
6 0 10 #fcfcfc #000000 #b8b8b8 0 0;
#X obj 55 165 hsl 155 12 0 1 0 0 \$0-volume-o \$0-volume-i volume 2
6 0 10 #fcfcfc #000000 #b8b8b8 0 0;
#X obj 52 196 bng 15 250 50 0 \$0-reset-mapping-o \$0-reset-mapping-i
reset_mapping 17 7 0 10 #fcfcfc #000000 #000000;
#X obj 52 179 bng 15 250 50 0 \$0-show-mapping-o \$0-show-mapping-i
show_mapping 17 7 0 10 #fcfcfc #000000 #000000;
#X floatatom 52 131 10 0.001 1e+06 1 firstdelay \$0-firstdelay-i \$0-firstdelay-o
0;
#X obj 55 86 hsl 155 12 0 1 0 0 \$0-gain-o \$0-gain-i gain 2 6 0 10
#fcfcfc #000000 #b8b8b8 0 0;
#X obj 337 307 *~;
#X obj 361 282 line~;
#X msg 361 262 \$1 10;
#X obj 361 242 r \$0-volume-o;
#X msg 465 172 envelope amplitude \$1;
#X obj 465 153 r \$0-envelope-o;
#X obj 53 402 project/module-preset \$1 \$2 \$0;
#X obj 53 383 project/parameter-simple voices \$1 \$2 \$0;
#X obj 297 203 jl/logdelay~ \$4 \$5;
#X obj 297 75 r~ \$1-audio-in;
#X obj 350 370 s~ \$1-audio-out;
#X msg 402 28 pan 0 \, width 0 \, envelope width 0;
#X obj 402 7 loadbang;
#X msg 67 301 menuclose \, relocate 322x263+0+0 0x0+50+50;
#X obj 374 306 r \$0-switchctrl-o;
#X obj 197 52 tgl 15 0 \$0-switchctrl-o \$0-switchctrl-i dsp -20 7
0 10 #fcfcfc #000000 #000000 0 1;
#X obj 53 364 project/parameter-simple switchctrl \$1 \$2 \$0;
#X obj 521 346 switch~;
#X obj 350 348 *~;
#X obj 374 326 jl/switchcontrol 5 5 5;
#X connect 0 0 6 0;
#X connect 2 0 3 0;
#X connect 4 0 2 0;
#X connect 5 0 44 0;
#X connect 6 0 8 0;
#X connect 9 0 10 0;
#X connect 10 0 39 1;
#X connect 11 0 39 0;
#X connect 12 0 11 1;
#X connect 13 0 12 0;
#X connect 14 0 13 0;
#X connect 15 0 16 0;
#X connect 16 0 39 1;
#X connect 17 0 18 0;
#X connect 18 0 39 1;
#X connect 19 0 20 0;
#X connect 20 0 39 1;
#X connect 31 0 49 0;
#X connect 32 0 31 1;
#X connect 33 0 32 0;
#X connect 34 0 33 0;
#X connect 35 0 39 1;
#X connect 36 0 35 0;
#X connect 39 0 31 0;
#X connect 40 0 11 0;
#X connect 42 0 39 1;
#X connect 43 0 42 0;
#X connect 44 0 8 0;
#X connect 45 0 50 0;
#X connect 49 0 41 0;
#X connect 50 0 49 1;
#X connect 50 2 48 0;
#X coords 0 -1 1 1 164 163 2 50 50;
