#N canvas 446 215 762 562 10;
#X obj 51 51 cnv 15 162 136 empty empty \$3\\\ \$1 3 9 0 12 #fcfcfc
#404040 0;
#X obj 52 69 tgl 15 0 \$0-record-o \$0-record-i record 17 7 0 10 #fcfcfc
#000000 #000000 0 1;
#X floatatom 52 137 10 0 0 1 transpose \$0-transpose-i \$0-transpose-o
0;
#X obj 52 86 tgl 15 0 \$0-play-o \$0-play-i play 17 7 0 10 #fcfcfc
#000000 #000000 0 1;
#X obj 52 103 tgl 15 0 \$0-reverse-o \$0-reverse-i reverse 17 7 0 10
#fcfcfc #000000 #000000 0 1;
#N canvas 850 393 468 343 recorder 0;
#X obj 72 35 change;
#X obj 72 15 r \$0-record-o;
#X obj 72 158 timer;
#X obj 72 136 sel 1 0;
#X obj 72 206 s \$0-main-duration;
#X obj 72 55 t f f;
#X obj 113 84 sel 0 1;
#X msg 113 106 stop;
#X text 71 264 size in bytes of 1 sec @ 44100/32bit :;
#X text 71 275 sr * bitsPerSample / 8;
#X text 71 288 => 30 secs = approx 5.2 MB;
#X obj 181 50 inlet~;
#X text 302 235 < 30s @ 44100Hz;
#X obj 72 186 min 1.323e+06;
#X obj 142 129 t a;
#X obj 72 235 array define \$0-main-buffer 1.323e+06;
#X obj 166 158 tabwrite~ \$0-main-buffer;
#X connect 0 0 5 0;
#X connect 1 0 0 0;
#X connect 2 0 13 0;
#X connect 3 0 2 0;
#X connect 3 1 2 1;
#X connect 5 0 3 0;
#X connect 5 1 6 0;
#X connect 6 0 7 0;
#X connect 6 1 14 0;
#X connect 7 0 14 0;
#X connect 11 0 16 0;
#X connect 13 0 4 0;
#X connect 14 0 16 0;
#X restore 249 97 pd recorder;
#X floatatom 52 120 10 0 0 1 pitch \$0-pitch-i \$0-pitch-o 0;
#X obj 484 34 loadbang;
#X obj 342 164 line~;
#X msg 342 144 \$1 3;
#X obj 342 124 r \$0-pitch-o;
#X obj 501 79 r \$0-main-duration;
#X msg 501 99 end \$1;
#X obj 546 203 r \$0-play-o;
#X obj 546 224 sel 1 0;
#X msg 565 245 stop;
#X msg 484 56 beg 0 \, fade 5 \, interrupt 5 \, loop 1;
#X obj 532 161 r \$0-reverse-o;
#X msg 514 141 pitch \$1;
#X msg 532 181 rvs \$1;
#X obj 52 171 bng 15 250 50 0 \$0-reset-mapping-o \$0-reset-mapping-i
reset_mapping 17 7 0 10 #fcfcfc #000000 #000000;
#X obj 52 154 bng 15 250 50 0 \$0-show-mapping-o \$0-show-mapping-i
show_mapping 17 7 0 10 #fcfcfc #000000 #000000;
#X obj 49 377 s pd-\$1-parameters;
#N canvas 50 50 421 140 \$1-parameters 0;
#X obj 9 8 project/parameter-toggle record \$1 \$2 \$0;
#X obj 110 8 project/parameter-toggle play \$1 \$2 \$0;
#X obj 211 8 project/parameter-toggle reverse \$1 \$2 \$0;
#X obj 312 8 project/parameter pitch \$1 \$2 \$0;
#X restore 49 444 pd \$1-parameters;
#X obj 49 327 r \$0-show-mapping-o;
#X text 316 330 WxHx0+0 0x0+X+Y;
#X msg 207 397 0;
#N canvas 0 25 450 300 set-all-input-modes 0;
#X obj 143 34 inlet;
#X obj 115 110 s \$0-record-mode;
#X obj 126 129 s \$0-play-mode;
#X obj 144 148 s \$0-reverse-mode;
#X obj 161 167 s \$0-pitch-mode;
#X obj 143 57 t f f f f;
#X connect 0 0 5 0;
#X connect 5 0 1 0;
#X connect 5 1 2 0;
#X connect 5 2 3 0;
#X connect 5 3 4 0;
#X restore 207 417 pd set-all-input-modes;
#X obj 207 377 r \$0-reset-mapping-o;
#X obj 171 327 loadbang;
#X msg 49 347 vis 1;
#X msg 171 347 menuclose \, relocate 421x140+0+0 0x0+50+50;
#X obj 49 482 project/parameter-simple transpose \$1 \$2 \$0;
#X obj 514 121 r \$0-transpose-o;
#X obj 249 56 r~ \$1-audio-in;
#X obj 249 289 s~ \$1-audio-out;
#X obj 249 197 jl/gbend~ \$0-main-buffer;
#X obj 484 278 s \$0-to-gbend;
#X obj 249 124 r \$0-to-gbend;
#X obj 49 501 project/module-preset \$1 \$2 \$0;
#X obj 264 226 r \$0-switchctrl-o;
#X obj 197 52 tgl 15 0 \$0-switchctrl-o \$0-switchctrl-i dsp -20 7
0 10 #fcfcfc #000000 #000000 0 1;
#X obj 49 463 project/parameter-simple switchctrl \$1 \$2 \$0;
#X obj 411 266 switch~;
#X obj 249 267 *~;
#X obj 264 246 jl/switchcontrol 5 5 5;
#X connect 7 0 16 0;
#X connect 8 0 36 0;
#X connect 9 0 8 0;
#X connect 10 0 9 0;
#X connect 11 0 12 0;
#X connect 12 0 37 0;
#X connect 13 0 14 0;
#X connect 14 0 37 0;
#X connect 14 1 15 0;
#X connect 15 0 37 0;
#X connect 16 0 37 0;
#X connect 17 0 19 0;
#X connect 18 0 37 0;
#X connect 19 0 37 0;
#X connect 24 0 30 0;
#X connect 26 0 27 0;
#X connect 28 0 26 0;
#X connect 29 0 31 0;
#X connect 30 0 22 0;
#X connect 31 0 22 0;
#X connect 33 0 18 0;
#X connect 34 0 5 0;
#X connect 36 0 44 0;
#X connect 38 0 36 0;
#X connect 40 0 45 0;
#X connect 44 0 35 0;
#X connect 45 0 44 1;
#X connect 45 2 43 0;
#X coords 0 -1 1 1 164 138 2 50 50;
