#N canvas 317 141 748 546 10;
#X obj 516 158 pow;
#X msg 504 130 2;
#X obj 504 98 t b f;
#X obj 504 77 + 9;
#X obj 288 209 jl/spitchshift~;
#X msg 516 179 windowsize \$1;
#X obj 524 350 loadbang;
#X obj 563 403 s \$0-window-size-i;
#X obj 504 35 r \$0-window-size-o;
#X obj 516 200 s \$0-to-pitch-shift;
#X obj 375 188 r \$0-to-pitch-shift;
#X obj 47 401 s pd-\$1-parameters;
#N canvas 50 50 219 140 \$1-parameters 0;
#X obj 9 8 project/parameter drywet \$1 \$2 \$0;
#X obj 110 8 project/parameter transpose \$1 \$2 \$0;
#X restore 47 421 pd \$1-parameters;
#X obj 47 351 r \$0-show-mapping-o;
#X text 290 355 WxHx0+0 0x0+X+Y;
#X msg 368 449 0;
#N canvas 0 25 450 300 set-all-input-modes 0;
#X obj 143 34 inlet;
#X obj 115 110 s \$0-drywet-mode;
#X obj 126 129 s \$0-transpose-mode;
#X obj 143 57 t f f;
#X connect 0 0 3 0;
#X connect 3 0 1 0;
#X connect 3 1 2 0;
#X restore 368 468 pd set-all-input-modes;
#X obj 368 430 r \$0-reset-mapping-o;
#X obj 169 351 loadbang;
#X msg 47 371 vis 1;
#X obj 47 497 project/module-preset \$1 \$2 \$0;
#X obj 47 459 project/parameter-simple lock \$1 \$2 \$0;
#X obj 562 87 r \$0-lock-o;
#X msg 562 108 lock \$1;
#X obj 583 130 r \$0-transpose-o;
#X msg 583 151 transpose \$1;
#X obj 51 51 cnv 15 162 99 empty empty \$3\ \$1 3 9 0 12 #fcfcfc #404040
0;
#X obj 641 299 vradio 15 1 0 5 \$0-window-size-o \$0-window-size-i
window\\\ size 1 -8 0 10 #fcfcfc #000000 #000000 0;
#X text 658 299 512;
#X text 658 314 1024;
#X text 658 329 2048;
#X text 658 344 4096;
#X text 658 358 8192;
#X obj 52 134 bng 15 250 50 0 \$0-reset-mapping-o \$0-reset-mapping-i
reset_mapping 17 7 0 10 #fcfcfc #000000 #000000;
#X obj 52 117 bng 15 250 50 0 \$0-show-mapping-o \$0-show-mapping-i
show_mapping 17 7 0 10 #fcfcfc #000000 #000000;
#X obj 55 69 hsl 155 12 0 1 0 0 \$0-drywet-o \$0-drywet-i drywet 2
6 0 10 #fcfcfc #000000 #b8b8b8 0 0;
#X floatatom 52 83 10 0 0 1 transpose \$0-transpose-i \$0-transpose-o
0;
#X obj 52 100 tgl 15 0 \$0-lock-o \$0-lock-i lock 17 7 0 10 #fcfcfc
#000000 #000000 0 1;
#X obj 237 187 jl/split~;
#X obj 288 128 r \$0-drywet-o;
#X obj 288 167 line~;
#X msg 288 147 \$1 5;
#X msg 169 371 menuclose \, relocate 219x140+0+0 0x0+50+50;
#X msg 524 406 0;
#X obj 524 447 s \$0-transpose-i;
#X obj 531 427 s \$0-lock-i;
#X obj 237 103 r~ \$1-audio-in;
#X obj 288 323 s~ \$1-audio-out;
#X obj 324 241 r \$0-switchctrl-o;
#X obj 197 52 tgl 15 0 \$0-switchctrl-o \$0-switchctrl-i dsp -20 7
0 10 #fcfcfc #000000 #000000 0 1;
#X obj 47 440 project/parameter-simple switchctrl \$1 \$2 \$0;
#X obj 471 282 switch~;
#X obj 288 299 *~;
#X obj 324 261 jl/switchcontrol 5 5 5;
#X msg 563 382 3;
#X connect 0 0 5 0;
#X connect 1 0 0 0;
#X connect 2 0 1 0;
#X connect 2 1 0 1;
#X connect 3 0 2 0;
#X connect 4 0 52 0;
#X connect 5 0 9 0;
#X connect 6 0 54 0;
#X connect 6 0 43 0;
#X connect 8 0 3 0;
#X connect 10 0 4 1;
#X connect 13 0 19 0;
#X connect 15 0 16 0;
#X connect 17 0 15 0;
#X connect 18 0 42 0;
#X connect 19 0 11 0;
#X connect 22 0 23 0;
#X connect 23 0 9 0;
#X connect 24 0 25 0;
#X connect 25 0 9 0;
#X connect 38 0 52 0;
#X connect 38 1 4 0;
#X connect 39 0 41 0;
#X connect 40 0 38 1;
#X connect 41 0 40 0;
#X connect 42 0 11 0;
#X connect 43 0 44 0;
#X connect 43 0 45 0;
#X connect 46 0 38 0;
#X connect 48 0 53 0;
#X connect 52 0 47 0;
#X connect 53 0 52 1;
#X connect 53 2 51 0;
#X connect 54 0 7 0;
#X coords 0 -1 1 1 164 101 2 50 50;
