#N canvas 681 236 478 389 10;
#X obj 50 50 tgl 43 0 \$0-switch-o \$0-switch-i empty 17 7 0 10 #fcfcfc
#000000 #000000 0 1;
#X floatatom 93 50 2 0 9 1 - \$0-mutexgroup-i \$0-mutexgroup-o 10;
#X obj 93 79 tgl 14 0 \$0-filterzeros-o \$0-filterzeros-i empty 16
7 0 10 #fcfcfc #000000 #000000 0 1;
#X obj 93 65 tgl 14 0 \$0-togglemode-o \$0-togglemode-i empty 16 7
0 10 #fcfcfc #000000 #000000 0 1;
#N canvas 561 262 632 610 preset 1;
#X obj 279 257 list;
#X obj 272 213 t b b;
#X text 106 27 <[get/set/delete]> <preset_system_name> <preset_name>
;
#X text 430 27 <param_name>;
#N canvas 286 95 825 704 preset-get-set-delete 0;
#X obj 330 391 sel -1;
#X obj 252 296 t a a;
#X obj 166 551 spigot;
#X obj 253 531 == 0;
#X obj 226 511 t f f;
#X obj 220 551 spigot;
#X obj 166 511 t a a;
#X obj 363 411 t b f;
#X msg 330 411 1;
#X msg 338 434 0;
#X obj 17 204 sel -1;
#X obj 74 29 inlet;
#X obj 233 204 sel -1;
#X obj 84 658 outlet get;
#X obj 502 654 outlet getvalues;
#X obj 592 26 inlet getvalues;
#X obj 208 354 t b a;
#X obj 166 452 list prepend;
#X obj 166 394 t b b;
#X obj 166 432 list;
#X obj 330 455 t f;
#X obj 74 56 route get set delete;
#X obj 233 164 list split 3;
#X obj 330 351 list split 3;
#X obj 17 164 list split 3;
#X obj 50 244 list split 3;
#X obj 17 144 list append \$1;
#X obj 252 276 list append \$1;
#X obj 233 144 list append \$1;
#X obj 206 600 text insert \$3-presets 0;
#X obj 236 579 text set \$3-presets;
#X obj 330 371 text search \$3-presets 0 1 2;
#X obj 233 184 text search \$3-presets 0 1 2;
#X obj 266 224 text delete \$3-presets;
#X obj 17 184 text search \$3-presets 0 1 2;
#X obj 50 224 text get \$3-presets;
#X obj 594 234 makefilename %%d-%d;
#X obj 537 194 list append \$1 \$2;
#X obj 537 214 unpack f f;
#X obj 594 272 makefilename nada;
#X msg 594 253 set \$1;
#X obj 537 174 loadbang;
#X obj 594 294 s \$0-parameter-name;
#X obj 314 124 r \$0-parameter-name;
#X obj 98 124 r \$0-parameter-name;
#X obj 333 256 r \$0-parameter-name;
#X connect 0 0 8 0;
#X connect 0 1 7 0;
#X connect 1 0 16 0;
#X connect 1 1 23 0;
#X connect 2 0 29 0;
#X connect 3 0 5 1;
#X connect 4 0 2 1;
#X connect 4 1 3 0;
#X connect 5 0 30 0;
#X connect 6 0 2 0;
#X connect 6 1 5 0;
#X connect 7 0 9 0;
#X connect 7 1 30 1;
#X connect 8 0 20 0;
#X connect 9 0 20 0;
#X connect 10 1 35 0;
#X connect 11 0 21 0;
#X connect 12 1 33 0;
#X connect 15 0 19 1;
#X connect 16 0 18 0;
#X connect 16 1 17 1;
#X connect 17 0 6 0;
#X connect 18 0 19 0;
#X connect 18 1 14 0;
#X connect 19 0 17 0;
#X connect 20 0 4 0;
#X connect 21 0 26 0;
#X connect 21 1 27 0;
#X connect 21 2 28 0;
#X connect 22 0 32 0;
#X connect 23 0 31 0;
#X connect 24 0 34 0;
#X connect 25 1 13 0;
#X connect 26 0 24 0;
#X connect 27 0 1 0;
#X connect 28 0 22 0;
#X connect 31 0 0 0;
#X connect 32 0 12 0;
#X connect 34 0 10 0;
#X connect 35 0 25 0;
#X connect 36 0 40 0;
#X connect 37 0 38 0;
#X connect 38 0 39 0;
#X connect 38 1 36 0;
#X connect 39 0 42 0;
#X connect 40 0 39 0;
#X connect 41 0 37 0;
#X connect 43 0 28 1;
#X connect 44 0 26 1;
#X connect 45 0 27 1;
#X restore 88 233 pd preset-get-set-delete;
#X obj 307 235 pack f f f f;
#X obj 88 253 unpack f f f f;
#X obj 88 355 s \$0-switch-i;
#X obj 115 374 s \$0-mutexgroup-i;
#X obj 142 393 s \$0-togglemode-i;
#X obj 169 412 s \$0-filterzeros-i;
#X obj 307 77 r \$0-switch-o;
#X obj 330 96 r \$0-mutexgroup-o;
#X obj 353 115 r \$0-togglemode-o;
#X obj 376 134 r \$0-filterzeros-o;
#X obj 88 96 r \$5-preset-cmd;
#X obj 49 286 t b;
#X msg 49 305 0;
#X connect 0 0 4 1;
#X connect 1 0 0 0;
#X connect 1 1 5 0;
#X connect 4 0 6 0;
#X connect 4 1 1 0;
#X connect 5 0 0 1;
#X connect 6 0 7 0;
#X connect 6 1 8 0;
#X connect 6 2 9 0;
#X connect 6 3 10 0;
#X connect 11 0 5 0;
#X connect 12 0 5 1;
#X connect 13 0 5 2;
#X connect 14 0 5 3;
#X connect 15 0 4 0;
#X connect 16 0 17 0;
#X connect 17 0 7 0;
#X restore 50 109 pd preset;
#X text 385 14 <parent_\$0>;
#X obj 264 246 r \$0-switch-o;
#X text 30 14 arguments : <page#> <switch#> <module_name> <project_name>
;
#X obj 231 102 r \$0-mutexgroup-o;
#X obj 195 62 r \$0-togglemode-o;
#X obj 258 142 r \$0-filterzeros-o;
#X msg 231 122 mutexgroup \$1;
#X msg 195 82 togglemode \$1;
#X msg 258 162 filterzeros \$1;
#X obj 42 180 r fc50-osc-page\$1-switch\$2;
#X msg 42 200 set \$1;
#X obj 42 324 s \$0-switch-i;
#X obj 232 202 list append \$1 \$2;
#X msg 232 222 \$3 \$1 \$4 \$2;
#X obj 264 266 list append \$1 \$2;
#X msg 264 286 \$2 set \$3 \$1;
#X obj 54 223 r \$0-switch-o;
#X obj 54 243 sel 0;
#X obj 54 279 spigot;
#X obj 93 243 r \$0-filterzeros-o;
#X msg 54 298 set 1;
#X obj 232 312 s \$5-to-fc50-osc-switch-pages;
#X connect 6 0 19 0;
#X connect 8 0 11 0;
#X connect 9 0 12 0;
#X connect 10 0 13 0;
#X connect 11 0 17 0;
#X connect 12 0 17 0;
#X connect 13 0 17 0;
#X connect 14 0 15 0;
#X connect 15 0 16 0;
#X connect 17 0 18 0;
#X connect 18 0 26 0;
#X connect 19 0 20 0;
#X connect 20 0 26 0;
#X connect 21 0 22 0;
#X connect 22 0 23 0;
#X connect 23 0 25 0;
#X connect 24 0 23 1;
#X connect 25 0 16 0;
#X coords 0 -1 1 1 57 43 2 50 50;
