#N canvas 604 158 578 613 10;
#X obj 151 190 sel 1;
#X obj 182 278 == 0;
#X obj 151 232 spigot 1;
#X obj 134 315 t f b f b;
#X obj 169 375 sel 1;
#X msg 185 346 0;
#X msg 151 347 1;
#X obj 252 289 t f;
#X obj 44 32 inlet switch-input;
#X msg 219 190 0;
#X obj 134 270 f 1;
#X obj 44 96 t f f;
#X obj 44 169 spigot 1;
#X obj 151 169 spigot 0;
#X obj 169 96 t f f;
#X obj 89 148 == 0;
#X obj 219 169 sel \$2;
#X obj 368 491 f \$2;
#X obj 44 190 t f f;
#X obj 71 211 sel 1;
#X msg 71 232 1;
#X obj 86 375 sel 0;
#X msg 123 455 0;
#X obj 123 477 spigot 1;
#X obj 440 331 loadbang;
#X obj 391 355 == 0;
#X obj 427 32 inlet filter-zeros;
#X obj 263 477 spigot 1;
#X obj 44 56 route float;
#X obj 275 76 t f f;
#X obj 107 76 route set;
#X obj 107 96 t f f;
#X obj 427 355 f \$4;
#X obj 44 562 outlet;
#X obj 44 542 change -1;
#X obj 134 291 t f f;
#X obj 275 32 inlet mutexgroup;
#X obj 169 32 inlet togglemode;
#X obj 219 148 r \$3-fc50-osc-switch-mutex;
#X obj 368 518 s \$3-fc50-osc-switch-mutex;
#X connect 0 0 2 0;
#X connect 1 0 10 1;
#X connect 2 0 10 0;
#X connect 3 0 21 0;
#X connect 3 1 6 0;
#X connect 3 2 4 0;
#X connect 3 3 5 0;
#X connect 4 0 17 0;
#X connect 5 0 7 0;
#X connect 6 0 7 0;
#X connect 7 0 2 1;
#X connect 8 0 28 0;
#X connect 9 0 2 0;
#X connect 9 0 27 0;
#X connect 10 0 35 0;
#X connect 11 0 12 0;
#X connect 11 1 13 0;
#X connect 12 0 18 0;
#X connect 13 0 0 0;
#X connect 14 0 15 0;
#X connect 14 1 13 1;
#X connect 15 0 12 1;
#X connect 16 0 9 0;
#X connect 17 0 39 0;
#X connect 18 0 34 0;
#X connect 18 1 19 0;
#X connect 19 0 20 0;
#X connect 20 0 10 1;
#X connect 21 0 22 0;
#X connect 21 1 34 0;
#X connect 22 0 23 0;
#X connect 23 0 34 0;
#X connect 24 0 32 0;
#X connect 25 0 23 1;
#X connect 26 0 32 0;
#X connect 27 0 34 0;
#X connect 28 0 11 0;
#X connect 28 1 30 0;
#X connect 29 0 16 1;
#X connect 29 1 17 1;
#X connect 30 0 31 0;
#X connect 31 0 12 0;
#X connect 31 1 10 0;
#X connect 32 0 25 0;
#X connect 32 0 27 1;
#X connect 34 0 33 0;
#X connect 35 0 3 0;
#X connect 35 1 1 0;
#X connect 36 0 29 0;
#X connect 37 0 14 0;
#X connect 38 0 16 0;
