#N canvas 668 134 772 652 10;
#X obj 30 30 vradio 44 1 0 3 \$0-selector-o \$0-selector-i empty 0
-8 0 10 #fcfcfc #000000 #000000 0;
#X obj 75 30 cnv 15 361 132 empty empty AB 14 24 0 16 #eaeaea #404040
0;
#X obj 370 41 tgl 23 0 \$0-AB-5-o \$0-AB-5-i empty 17 7 0 10 #fcfcfc
#000000 #000000 0 1;
#X obj 133 41 tgl 23 0 \$0-AB-1-o \$0-AB-1-i empty 17 7 0 10 #fcfcfc
#000000 #000000 0 1;
#X obj 191 41 tgl 23 0 \$0-AB-2-o \$0-AB-2-i empty 17 7 0 10 #fcfcfc
#000000 #000000 0 1;
#X obj 250 41 tgl 23 0 \$0-AB-3-o \$0-AB-3-i empty 17 7 0 10 #fcfcfc
#000000 #000000 0 1;
#X obj 309 41 tgl 23 0 \$0-AB-4-o \$0-AB-4-i empty 17 7 0 10 #fcfcfc
#000000 #000000 0 1;
#X text 139 185 arguments : <module_name> <project_name>;
#X obj 401 239 project/module-preset \$1 \$2 \$0;
#X msg 402 325 set \$1;
#X obj 402 345 s \$0-selector-i;
#X obj 402 370 r \$0-selector-o;
#X obj 120 74 ./fc50-osc-switch-ui 1 1 \$1 \$2 \$0;
#X obj 179 74 ./fc50-osc-switch-ui 1 2 \$1 \$2 \$0;
#X obj 238 74 ./fc50-osc-switch-ui 1 3 \$1 \$2 \$0;
#X obj 297 74 ./fc50-osc-switch-ui 1 4 \$1 \$2 \$0;
#X obj 356 74 ./fc50-osc-switch-ui 1 5 \$1 \$2 \$0;
#X obj 120 119 ./fc50-osc-switch-ui 2 1 \$1 \$2 \$0;
#X obj 179 119 ./fc50-osc-switch-ui 2 2 \$1 \$2 \$0;
#X obj 238 119 ./fc50-osc-switch-ui 2 3 \$1 \$2 \$0;
#X obj 297 119 ./fc50-osc-switch-ui 2 4 \$1 \$2 \$0;
#X obj 356 119 ./fc50-osc-switch-ui 2 5 \$1 \$2 \$0;
#N canvas 108 222 481 367 AB-selector-mapping 0;
#X obj 242 68 r \$0-AB-1-o;
#X obj 59 63 s \$0-AB-1-i;
#X obj 59 126 s \$0-AB-2-i;
#X obj 59 189 s \$0-AB-3-i;
#X obj 59 252 s \$0-AB-4-i;
#X obj 59 315 s \$0-AB-5-i;
#X msg 59 42 set \$1;
#X msg 59 105 set \$1;
#X msg 59 168 set \$1;
#X msg 59 231 set \$1;
#X msg 59 294 set \$1;
#X obj 59 21 r fc50-osc-page0-switch1;
#X obj 59 84 r fc50-osc-page0-switch2;
#X obj 59 147 r fc50-osc-page0-switch3;
#X obj 59 210 r fc50-osc-page0-switch4;
#X obj 59 273 r fc50-osc-page0-switch5;
#X msg 242 262 0 set \$1 1;
#X obj 271 87 r \$0-AB-2-o;
#X msg 242 107 1;
#X msg 271 126 2;
#X obj 242 87 t b;
#X obj 271 107 t b;
#X obj 300 126 t b;
#X obj 329 146 t b;
#X msg 300 146 3;
#X msg 329 165 4;
#X obj 359 166 t b;
#X msg 359 185 5;
#X obj 300 107 r \$0-AB-3-o;
#X obj 329 126 r \$0-AB-4-o;
#X obj 359 146 r \$0-AB-5-o;
#X obj 242 283 s \$0-to-fc50-osc-switch-pages;
#X obj 376 262 print;
#X connect 0 0 20 0;
#X connect 6 0 1 0;
#X connect 7 0 2 0;
#X connect 8 0 3 0;
#X connect 9 0 4 0;
#X connect 10 0 5 0;
#X connect 11 0 6 0;
#X connect 12 0 7 0;
#X connect 13 0 8 0;
#X connect 14 0 9 0;
#X connect 15 0 10 0;
#X connect 16 0 31 0;
#X connect 16 0 32 0;
#X connect 17 0 21 0;
#X connect 18 0 16 0;
#X connect 19 0 16 0;
#X connect 20 0 18 0;
#X connect 21 0 19 0;
#X connect 22 0 24 0;
#X connect 23 0 25 0;
#X connect 24 0 16 0;
#X connect 25 0 16 0;
#X connect 26 0 27 0;
#X connect 27 0 16 0;
#X connect 28 0 22 0;
#X connect 29 0 23 0;
#X connect 30 0 26 0;
#X restore 401 280 pd AB-selector-mapping;
#X obj 88 271 oscparse;
#X obj 88 292 list trim;
#X obj 88 313 route fc50;
#X obj 250 540 netsend -u -b;
#X obj 285 421 loadbang;
#X msg 285 490 disconnect;
#X msg 285 467 connect localhost 10000;
#X msg 182 444 set fc50 led \$1;
#X obj 155 474 oscformat;
#X obj 88 334 route footsensor switch;
#X obj 155 494 list trim;
#X obj 100 564 s fc50-osc-footsensor;
#X obj 155 444 i;
#X obj 155 384 unpack f f;
#X obj 155 404 t b f;
#N canvas 431 76 712 723 switch-pages 0;
#X obj 117 174 float;
#X obj 42 57 route A;
#X obj 117 151 unpack s f;
#X obj 117 204 pack f f;
#X obj 42 116 change;
#X obj 162 256 f;
#X obj 203 286 == 0;
#X obj 162 286 t f f;
#X obj 162 308 tgl 15 0 empty empty empty 17 7 0 10 #fcfcfc #000000
#000000 0 1;
#X obj 184 174 == 0;
#X obj 34 91 == 0;
#X msg 392 549 6 \$1;
#X msg 427 549 7 \$1;
#X text 181 308 "page" to show;
#X obj 42 31 inlet switch-msgs;
#X obj 268 441 float;
#X msg 268 464 \$1 leave;
#X msg 196 465 \$1 enter;
#X obj 427 661 outlet;
#X obj 392 503 t f f;
#X msg 117 465 all \$1 \$2;
#X obj 196 598 list split 1;
#X obj 162 232 loadbang;
#X obj 326 17 sel 0 1;
#X obj 293 226 spigot;
#X obj 447 124 t b b;
#X obj 326 48 t b b;
#X msg 353 69 stop;
#X msg 419 150 0;
#X msg 326 188 1;
#X obj 481 551 f;
#X obj 518 551 == 0;
#X msg 481 571 6 \$1;
#X msg 518 571 7 \$1;
#X obj 564 334 tgl 15 0 empty empty empty 17 7 0 10 #fcfcfc #000000
#000000 0 1;
#X floatatom 526 507 5 0 0 0 - - - 0;
#X msg 577 308 1;
#X msg 547 308 0;
#X obj 481 530 metro 50;
#X obj 414 207 spigot;
#X msg 447 150 1;
#X msg 472 215 0;
#X obj 326 167 t b b b;
#X obj 293 281 f;
#X obj 268 385 t f f b f f f;
#X obj 414 227 t b b b;
#X obj 162 327 + 1;
#X msg 414 342 0;
#X obj 392 527 < 2;
#X obj 427 527 != 1;
#X obj 293 318 sel 0;
#X obj 338 305 t b;
#X obj 268 364 f;
#X obj 308 260 r \$0-fc50-osc-switchAB;
#X obj 366 435 s \$0-fc50-osc-switchAB;
#X obj 420 85 f;
#X obj 420 105 sel 0;
#X obj 453 48 r \$0-fc50-osc-switchAB;
#X obj 371 312 sel 0;
#X obj 79 638 t a;
#X obj 79 618 list prepend 0;
#N canvas 808 457 415 223 make-selector 0;
#X obj 57 106 until;
#X msg 57 86 5;
#X obj 57 126 f;
#X obj 82 126 + 1;
#X obj 63 63 t b b;
#X msg 96 99 0;
#X obj 63 41 inlet;
#X obj 53 174 outlet;
#X obj 180 95 print;
#X msg 53 153 togglemode \$1 1 \, mutexgroup \$1 1000 \, filterzeros
\$1 1;
#X connect 0 0 2 0;
#X connect 1 0 0 0;
#X connect 2 0 3 0;
#X connect 3 0 2 1;
#X connect 3 0 9 0;
#X connect 4 0 1 0;
#X connect 4 1 5 0;
#X connect 5 0 2 1;
#X connect 6 0 4 0;
#X connect 9 0 7 0;
#X connect 9 0 8 0;
#X restore 79 598 pd make-selector;
#X obj 79 559 loadbang;
#X obj 79 579 bng 15 250 50 0 empty empty empty 17 7 0 10 #fcfcfc #000000
#000000;
#X obj 371 291 r \$0-current-scene-from-ui;
#X obj 380 412 s \$0-current-scene;
#X obj 102 516 r \$0-to-fc50-osc-switch-pages;
#X obj 196 573 clone fc50-osc-switch-page 3 \$0;
#X obj 391 48 delay 300;
#X text 29 660 mutex group for page 0 is 1000 (don't use anywhere else)
;
#X connect 0 0 3 0;
#X connect 1 0 10 0;
#X connect 1 0 4 0;
#X connect 1 1 2 0;
#X connect 2 0 0 0;
#X connect 2 1 9 0;
#X connect 2 1 3 1;
#X connect 3 0 20 0;
#X connect 4 0 23 0;
#X connect 5 0 7 0;
#X connect 6 0 5 1;
#X connect 7 0 8 0;
#X connect 7 1 6 0;
#X connect 8 0 46 0;
#X connect 11 0 18 0;
#X connect 12 0 18 0;
#X connect 14 0 1 0;
#X connect 15 0 16 0;
#X connect 16 0 67 0;
#X connect 17 0 67 0;
#X connect 19 0 48 0;
#X connect 19 1 49 0;
#X connect 20 0 67 0;
#X connect 21 1 18 0;
#X connect 22 0 5 0;
#X connect 23 0 26 0;
#X connect 23 1 68 0;
#X connect 24 0 43 0;
#X connect 25 0 28 0;
#X connect 25 0 40 0;
#X connect 25 1 36 0;
#X connect 26 0 42 0;
#X connect 26 1 27 0;
#X connect 27 0 68 0;
#X connect 28 0 24 1;
#X connect 29 0 24 1;
#X connect 30 0 31 0;
#X connect 30 0 32 0;
#X connect 31 0 30 1;
#X connect 31 0 33 0;
#X connect 32 0 18 0;
#X connect 33 0 18 0;
#X connect 34 0 38 0;
#X connect 35 0 38 1;
#X connect 36 0 34 0;
#X connect 37 0 34 0;
#X connect 38 0 30 0;
#X connect 39 0 45 0;
#X connect 40 0 39 1;
#X connect 41 0 39 1;
#X connect 42 0 29 0;
#X connect 42 1 24 0;
#X connect 42 2 39 0;
#X connect 43 0 50 0;
#X connect 44 0 17 0;
#X connect 44 1 15 1;
#X connect 44 2 15 0;
#X connect 44 3 19 0;
#X connect 44 4 54 0;
#X connect 44 5 65 0;
#X connect 45 0 47 0;
#X connect 45 1 37 0;
#X connect 45 2 41 0;
#X connect 46 0 52 0;
#X connect 47 0 44 0;
#X connect 48 0 11 0;
#X connect 49 0 12 0;
#X connect 50 0 52 0;
#X connect 50 1 51 0;
#X connect 51 0 5 0;
#X connect 52 0 44 0;
#X connect 53 0 43 1;
#X connect 55 0 56 0;
#X connect 56 1 25 0;
#X connect 57 0 55 1;
#X connect 58 0 47 0;
#X connect 58 1 52 0;
#X connect 59 0 67 0;
#X connect 60 0 59 0;
#X connect 61 0 60 0;
#X connect 62 0 63 0;
#X connect 63 0 61 0;
#X connect 64 0 58 0;
#X connect 66 0 67 0;
#X connect 67 0 21 0;
#X connect 68 0 55 0;
#X restore 155 364 pd switch-pages;
#X msg 285 444 connect 192.168.50.3 10000;
#X obj 402 305 r \$0-current-scene;
#X obj 402 390 s \$0-current-scene-from-ui;
#X obj 500 87 s \$0-to-fc50-osc-switch-pages;
#X obj 500 45 inlet;
#X msg 500 66 0 set \$1 1;
#X obj 437 32 vsl 22 127 0 1 0 0 fc50-osc-footsensor fc50-osc-footsensor-i
P 7 22 0 16 #fcfcfc #000000 #000000 0 0;
#X obj 75 74 cnv 15 44 44 empty empty A 16 24 0 24 #ff5a2e #404040
0;
#X obj 75 119 cnv 15 44 43 empty empty B 16 24 0 24 #bbff2a #404040
0;
#X obj 88 606 s fc50-osc-footsensor-i;
#X msg 88 586 set \$1;
#X obj 585 280 r fc50-osc-all-switches;
#X obj 585 300 route 0;
#X obj 474 592 s \$0-to-fc50-osc-switch-pages;
#X msg 474 560 1 set \$1 0 \, 2 set \$1 0;
#X obj 461 511 until;
#X msg 461 490 5;
#X obj 472 466 t b b;
#X obj 474 535 f;
#X obj 502 535 + 1;
#X msg 499 511 1;
#X obj 608 423 s fc50-osc-preset;
#X obj 472 444 r fc50-osc-preset;
#X msg 585 320 \$2 \$1;
#X obj 585 340 unpack f f;
#X obj 585 360 sel 1;
#X obj 608 383 f;
#X obj 608 403 change;
#X text 415 74 mtx;
#X text 415 88 tgl;
#X text 415 102 no0;
#X text 415 119 mtx;
#X text 415 133 tgl;
#X text 415 147 no0;
#X obj 88 250 netreceive -b -u 12000;
#X obj 32 474 loadbang;
#X obj 32 543 f;
#X obj 32 496 tgl 15 0 empty empty empty 17 7 0 10 #fcfcfc #000000
#000000 0 1;
#X obj 32 563 change;
#X obj 301 310 loadbang;
#X obj 375 411 s \$0-fc50-osc-switchAB;
#X msg 336 355 1;
#X obj 301 329 t b b;
#X obj 32 521 metro 10;
#X obj 48 377 t b b;
#X obj 48 397 timer;
#X floatatom 36 432 5 0 0 0 - - - 0;
#X obj 88 540 jl/map 0 1000 1 0 -1 0.5;
#X msg 294 376 A 1 \, A 0;
#X connect 9 0 10 0;
#X connect 11 0 41 0;
#X connect 23 0 24 0;
#X connect 24 0 25 0;
#X connect 25 0 32 0;
#X connect 27 0 39 0;
#X connect 28 0 26 0;
#X connect 29 0 26 0;
#X connect 30 0 31 0;
#X connect 31 0 33 0;
#X connect 32 0 86 0;
#X connect 32 1 38 0;
#X connect 33 0 26 0;
#X connect 35 0 31 0;
#X connect 36 0 37 0;
#X connect 36 1 35 1;
#X connect 37 0 35 0;
#X connect 37 1 30 0;
#X connect 38 0 36 0;
#X connect 39 0 26 0;
#X connect 40 0 9 0;
#X connect 43 0 44 0;
#X connect 44 0 42 0;
#X connect 49 0 48 0;
#X connect 50 0 51 0;
#X connect 51 0 62 0;
#X connect 54 0 57 0;
#X connect 55 0 54 0;
#X connect 56 0 55 0;
#X connect 56 1 59 0;
#X connect 57 0 58 0;
#X connect 57 0 53 0;
#X connect 58 0 57 1;
#X connect 59 0 57 1;
#X connect 61 0 56 0;
#X connect 62 0 63 0;
#X connect 63 0 64 0;
#X connect 63 1 65 1;
#X connect 64 0 65 0;
#X connect 65 0 66 0;
#X connect 66 0 60 0;
#X connect 73 0 23 0;
#X connect 74 0 76 0;
#X connect 75 0 77 0;
#X connect 75 0 34 0;
#X connect 76 0 82 0;
#X connect 77 0 49 0;
#X connect 78 0 81 0;
#X connect 80 0 41 0;
#X connect 81 0 87 0;
#X connect 81 1 80 0;
#X connect 82 0 75 0;
#X connect 83 0 84 0;
#X connect 83 1 84 1;
#X connect 84 0 85 0;
#X connect 86 0 75 1;
#X connect 87 0 38 0;
#X coords 0 -1 1 1 429 132 2 30 30;
