#N canvas 672 39 634 748 10;
#X obj 93 70 oscparse;
#X obj 93 93 list trim;
#X obj 93 116 route fc50;
#X obj 304 407 netsend -u -b;
#X obj 350 301 loadbang;
#X msg 350 371 disconnect;
#X msg 350 348 connect localhost 10000;
#X msg 280 277 set fc50 led \$1;
#X obj 248 319 oscformat;
#X obj 93 139 route footsensor switch;
#X obj 248 343 list trim;
#X obj 93 407 s fc50-osc-footsensor;
#X obj 248 277 i;
#X obj 248 211 unpack f f;
#X obj 248 235 t b f;
#X obj 93 382 jl/map 0 1000 1 0 -1 1;
#N canvas 225 80 712 723 switch-pages 0;
#X obj 117 174 float;
#X obj 42 57 route A;
#X obj 117 151 unpack s f;
#X obj 117 204 pack f f;
#X obj 42 116 change;
#X obj 162 256 f;
#X obj 203 286 == 0;
#X obj 162 286 t f f;
#X obj 162 308 tgl 15 0 empty empty empty 17 7 0 10 #fcfcfc #000000
#000000 0 1;
#X obj 184 174 == 0;
#X obj 42 93 == 0;
#X msg 377 548 6 \$1;
#X msg 412 548 7 \$1;
#X text 181 308 "page" to show;
#X obj 42 31 inlet switch-msgs;
#X obj 268 441 float;
#X msg 268 464 \$1 leave;
#X msg 196 465 \$1 enter;
#X obj 325 670 outlet;
#X obj 342 459 t f f;
#X msg 117 465 all \$1 \$2;
#X obj 196 582 list split 1;
#X obj 162 232 loadbang;
#X obj 330 14 sel 0 1;
#X obj 293 226 spigot;
#X obj 447 124 t b b;
#X obj 320 39 t b b;
#X msg 342 63 stop;
#X msg 419 150 0;
#X msg 326 188 1;
#X obj 466 565 f;
#X obj 503 565 == 0;
#X msg 466 585 6 \$1;
#X msg 503 585 7 \$1;
#X obj 552 332 tgl 15 0 empty empty empty 17 7 0 10 #fcfcfc #000000
#000000 0 1;
#X floatatom 511 521 5 0 0 0 - - - 0;
#X msg 577 308 1;
#X msg 547 308 0;
#X obj 466 544 metro 50;
#X obj 414 210 spigot;
#X msg 447 150 1;
#X msg 470 219 0;
#X obj 326 167 t b b b;
#X obj 391 49 delay 500;
#X obj 293 281 f;
#X obj 268 385 t f f b f f f;
#X obj 414 230 t b b b;
#X obj 196 557 clone fc50-osc-switch-page 3;
#X obj 162 327 + 1;
#X msg 414 342 0;
#X obj 342 483 < 2;
#X obj 381 483 != 1;
#X obj 293 318 sel 0;
#X obj 338 305 t b;
#X obj 268 364 f;
#X obj 308 260 r \$0-fc50-osc-switchAB;
#X obj 366 435 s \$0-fc50-osc-switchAB;
#X obj 420 85 f;
#X obj 420 105 sel 0;
#X obj 453 49 r \$0-fc50-osc-switchAB;
#X obj 370 411 s current-scene;
#X obj 371 291 r current-scene-from-ui;
#X obj 371 312 sel 0;
#X obj 560 486 t a;
#X obj 560 466 list prepend 0;
#N canvas 808 457 415 223 make-selector 0;
#X obj 57 106 until;
#X msg 57 86 5;
#X obj 57 126 f;
#X obj 82 126 + 1;
#X obj 63 63 t b b;
#X msg 96 99 0;
#X obj 63 41 inlet;
#X msg 53 153 togglemode \$1 1 \, mutexgroup \$1 1 \, filterzeros \$1
1;
#X obj 53 174 outlet;
#X connect 0 0 2 0;
#X connect 1 0 0 0;
#X connect 2 0 3 0;
#X connect 3 0 2 1;
#X connect 3 0 7 0;
#X connect 4 0 1 0;
#X connect 4 1 5 0;
#X connect 5 0 2 1;
#X connect 6 0 4 0;
#X connect 7 0 8 0;
#X restore 560 446 pd make-selector;
#X obj 560 407 loadbang;
#X obj 560 427 bng 15 250 50 0 empty empty empty 17 7 0 10 #fcfcfc
#000000 #000000;
#X obj 208 518 r to-fc50-osc-switch-pages;
#X connect 0 0 3 0;
#X connect 1 0 10 0;
#X connect 1 1 2 0;
#X connect 2 0 0 0;
#X connect 2 1 9 0;
#X connect 3 0 20 0;
#X connect 4 0 23 0;
#X connect 5 0 7 0;
#X connect 6 0 5 1;
#X connect 7 0 8 0;
#X connect 7 1 6 0;
#X connect 8 0 48 0;
#X connect 9 0 3 1;
#X connect 10 0 4 0;
#X connect 11 0 18 0;
#X connect 12 0 18 0;
#X connect 14 0 1 0;
#X connect 15 0 16 0;
#X connect 16 0 47 0;
#X connect 17 0 47 0;
#X connect 19 0 50 0;
#X connect 19 1 51 0;
#X connect 20 0 47 0;
#X connect 21 1 18 0;
#X connect 22 0 5 0;
#X connect 23 0 26 0;
#X connect 23 1 43 0;
#X connect 24 0 44 0;
#X connect 25 0 28 0;
#X connect 25 0 40 0;
#X connect 25 1 36 0;
#X connect 26 0 42 0;
#X connect 26 1 27 0;
#X connect 27 0 43 0;
#X connect 28 0 24 1;
#X connect 29 0 24 1;
#X connect 30 0 31 0;
#X connect 30 0 32 0;
#X connect 31 0 30 1;
#X connect 31 0 33 0;
#X connect 32 0 18 0;
#X connect 33 0 18 0;
#X connect 34 0 38 0;
#X connect 35 0 38 1;
#X connect 36 0 34 0;
#X connect 37 0 34 0;
#X connect 38 0 30 0;
#X connect 39 0 46 0;
#X connect 40 0 39 1;
#X connect 41 0 39 1;
#X connect 42 0 29 0;
#X connect 42 1 24 0;
#X connect 42 2 39 0;
#X connect 43 0 57 0;
#X connect 44 0 52 0;
#X connect 45 0 17 0;
#X connect 45 1 15 1;
#X connect 45 2 15 0;
#X connect 45 3 19 0;
#X connect 45 4 56 0;
#X connect 45 5 60 0;
#X connect 46 0 49 0;
#X connect 46 1 37 0;
#X connect 46 2 41 0;
#X connect 47 0 21 0;
#X connect 48 0 54 0;
#X connect 49 0 45 0;
#X connect 50 0 11 0;
#X connect 51 0 12 0;
#X connect 52 0 54 0;
#X connect 52 1 53 0;
#X connect 53 0 5 0;
#X connect 54 0 45 0;
#X connect 55 0 44 1;
#X connect 57 0 58 0;
#X connect 58 1 25 0;
#X connect 59 0 57 1;
#X connect 61 0 62 0;
#X connect 62 0 49 0;
#X connect 62 1 54 0;
#X connect 63 0 47 0;
#X connect 64 0 63 0;
#X connect 65 0 64 0;
#X connect 66 0 67 0;
#X connect 67 0 65 0;
#X connect 68 0 47 0;
#X restore 248 184 pd switch-pages;
#X obj 94 619 bng 15 250 50 0 empty empty empty 17 7 0 10 #fcfcfc #000000
#000000;
#X obj 114 619 bng 15 250 50 0 empty empty empty 17 7 0 10 #fcfcfc
#000000 #000000;
#X obj 134 619 bng 15 250 50 0 empty empty empty 17 7 0 10 #fcfcfc
#000000 #000000;
#X obj 155 619 bng 15 250 50 0 empty empty empty 17 7 0 10 #fcfcfc
#000000 #000000;
#X obj 175 619 bng 15 250 50 0 empty empty empty 17 7 0 10 #fcfcfc
#000000 #000000;
#X obj 209 619 bng 15 250 50 0 empty empty empty 17 7 0 10 #fcfcfc
#000000 #000000;
#X msg 137 504 A;
#X floatatom 94 505 5 0 0 0 - - - 0;
#X obj 94 554 float;
#X obj 209 591 route A;
#X obj 94 591 route 1 2 3 4 5;
#X obj 94 529 makefilename %.0f;
#X obj 300 522 oscformat 1;
#X floatatom 300 500 5 0 0 0 - - - 0;
#X obj 300 545 oscparse;
#X obj 300 568 unpack s f;
#X floatatom 300 614 5 0 0 0 - - - 0;
#X floatatom 367 591 5 0 0 0 - - - 0;
#X obj 300 591 f;
#X text 84 468 reminder : how to deal with number symbols;
#X obj 248 47 inlet;
#X msg 350 325 connect 192.168.50.3 10000;
#X obj 93 47 netreceive -b -u 12001;
#X connect 0 0 1 0;
#X connect 1 0 2 0;
#X connect 2 0 9 0;
#X connect 4 0 38 0;
#X connect 5 0 3 0;
#X connect 6 0 3 0;
#X connect 7 0 8 0;
#X connect 8 0 10 0;
#X connect 9 0 15 0;
#X connect 9 1 16 0;
#X connect 10 0 3 0;
#X connect 12 0 8 0;
#X connect 13 0 14 0;
#X connect 13 1 12 1;
#X connect 14 0 12 0;
#X connect 14 1 7 0;
#X connect 15 0 11 0;
#X connect 16 0 13 0;
#X connect 23 0 27 0;
#X connect 24 0 28 0;
#X connect 25 0 27 0;
#X connect 26 0 22 0;
#X connect 27 0 17 0;
#X connect 27 1 18 0;
#X connect 27 2 19 0;
#X connect 27 3 20 0;
#X connect 27 4 21 0;
#X connect 27 5 26 0;
#X connect 28 0 25 0;
#X connect 29 0 31 0;
#X connect 30 0 29 0;
#X connect 31 0 32 0;
#X connect 32 0 35 0;
#X connect 32 1 34 0;
#X connect 35 0 33 0;
#X connect 37 0 16 0;
#X connect 38 0 3 0;
#X connect 39 0 0 0;
