#N canvas 672 39 634 748 10;
#X obj 93 70 oscparse;
#X obj 93 93 list trim;
#X obj 93 116 route fc50;
#X obj 304 407 netsend -u -b;
#X obj 350 301 loadbang;
#X msg 350 371 disconnect;
#X msg 350 348 connect localhost 10000;
#X msg 280 277 set fc50 led \$1;
#X obj 248 319 oscformat;
#X obj 93 139 route footsensor switch;
#X obj 248 343 list trim;
#X obj 93 407 s fc50-osc-footsensor;
#X obj 248 277 i;
#X obj 248 211 unpack f f;
#X obj 248 235 t b f;
#X obj 93 47 netreceive -b -u 12000;
#X obj 220 113 bng 15 250 50 0 empty empty empty 17 7 0 10 #fcfcfc
#000000 #000000;
#X obj 93 382 jl/map 0 1000 1 0 -1 1;
#N canvas 479 154 904 701 switch-pages 0;
#X obj 135 99 float;
#X obj 67 40 route A;
#X obj 135 76 unpack s f;
#X obj 135 129 pack f f;
#X obj 67 99 change;
#X obj 197 176 f;
#X obj 248 185 == 0;
#X obj 197 199 t f f;
#X obj 197 221 tgl 15 0 empty empty empty 17 7 0 10 #fcfcfc #000000
#000000 0 1;
#X msg 255 133 0;
#X obj 202 99 == 0;
#X obj 67 76 == 0;
#X obj 67 129 sel 1;
#X msg 372 474 6 \$1;
#X msg 412 474 7 \$1;
#X text 216 221 "page" to show;
#X obj 67 14 inlet switch-msgs;
#X obj 513 111 inlet pageA-togglemodes;
#X obj 535 131 inlet pageA-mutexgroups;
#X obj 588 180 inlet pageB-togglemodes;
#X obj 610 200 inlet pageB-mutexgroups;
#X obj 237 328 float;
#X msg 237 351 \$1 leave;
#X msg 165 352 \$1 enter;
#X obj 294 557 outlet;
#X msg 513 247 0 togglemodes \$1 \$2 \$3 \$4 \$5;
#X msg 535 268 0 mutexgroups \$1 \$2 \$3 \$4 \$5;
#X obj 513 381 t a;
#X msg 588 318 1 togglemodes \$1 \$2 \$3 \$4 \$5;
#X msg 610 339 1 mutexgroups \$1 \$2 \$3 \$4 \$5;
#X obj 372 418 t f f;
#X obj 372 442 == 0;
#X msg 86 352 all \$1 \$2;
#X obj 165 469 list split 1;
#X obj 238 99 loadbang;
#X obj 165 444 clone fc50-osc-switch-page 2;
#X obj 338 313 send fc50-osc-switchAB;
#X obj 230 258 t f f b f f;
#X obj 557 151 inlet pageA-mutexgroups;
#X msg 557 288 0 filterzeros \$1 \$2 \$3 \$4 \$5;
#X obj 631 220 inlet pageB-mutexgroups;
#X msg 631 359 1 filterzeros \$1 \$2 \$3 \$4 \$5;
#X connect 0 0 3 0;
#X connect 1 0 11 0;
#X connect 1 1 2 0;
#X connect 2 0 0 0;
#X connect 2 1 10 0;
#X connect 3 0 32 0;
#X connect 4 0 12 0;
#X connect 5 0 7 0;
#X connect 6 0 5 1;
#X connect 7 0 8 0;
#X connect 7 1 6 0;
#X connect 8 0 37 0;
#X connect 9 0 5 1;
#X connect 10 0 3 1;
#X connect 11 0 4 0;
#X connect 12 0 5 0;
#X connect 13 0 24 0;
#X connect 14 0 24 0;
#X connect 16 0 1 0;
#X connect 17 0 25 0;
#X connect 18 0 26 0;
#X connect 19 0 28 0;
#X connect 20 0 29 0;
#X connect 21 0 22 0;
#X connect 22 0 35 0;
#X connect 23 0 35 0;
#X connect 25 0 27 0;
#X connect 26 0 27 0;
#X connect 27 0 35 0;
#X connect 28 0 27 0;
#X connect 29 0 27 0;
#X connect 30 0 31 0;
#X connect 30 1 14 0;
#X connect 31 0 13 0;
#X connect 32 0 35 0;
#X connect 33 1 24 0;
#X connect 34 0 5 0;
#X connect 35 0 33 0;
#X connect 37 0 23 0;
#X connect 37 1 21 1;
#X connect 37 2 21 0;
#X connect 37 3 30 0;
#X connect 37 4 36 0;
#X connect 38 0 39 0;
#X connect 39 0 27 0;
#X connect 40 0 41 0;
#X connect 41 0 27 0;
#X restore 248 184 pd switch-pages;
#X obj 273 46 inlet page0-togglemodes;
#X obj 295 66 inlet page0-mutexgroups;
#X obj 337 106 inlet page1-togglemodes;
#X obj 353 126 inlet page1-mutexgroups;
#X obj 94 619 bng 15 250 50 0 empty empty empty 17 7 0 10 #fcfcfc #000000
#000000;
#X obj 114 619 bng 15 250 50 0 empty empty empty 17 7 0 10 #fcfcfc
#000000 #000000;
#X obj 134 619 bng 15 250 50 0 empty empty empty 17 7 0 10 #fcfcfc
#000000 #000000;
#X obj 155 619 bng 15 250 50 0 empty empty empty 17 7 0 10 #fcfcfc
#000000 #000000;
#X obj 175 619 bng 15 250 50 0 empty empty empty 17 7 0 10 #fcfcfc
#000000 #000000;
#X obj 209 619 bng 15 250 50 0 empty empty empty 17 7 0 10 #fcfcfc
#000000 #000000;
#X msg 137 504 A;
#X floatatom 94 505 5 0 0 0 - - - 0;
#X obj 94 554 float;
#X obj 209 591 route A;
#X obj 94 591 route 1 2 3 4 5;
#X obj 94 529 makefilename %.0f;
#X obj 300 522 oscformat 1;
#X floatatom 300 500 5 0 0 0 - - - 0;
#X obj 300 545 oscparse;
#X obj 300 568 unpack s f;
#X floatatom 300 614 5 0 0 0 - - - 0;
#X floatatom 367 591 5 0 0 0 - - - 0;
#X obj 300 591 f;
#X text 84 468 reminder : how to deal with number symbols;
#X obj 242 13 inlet;
#X obj 317 86 inlet page0-filterzeros;
#X obj 364 146 inlet page1-filterzeros;
#X msg 350 325 connect 192.168.50.3 10000;
#X connect 0 0 1 0;
#X connect 1 0 2 0;
#X connect 2 0 9 0;
#X connect 4 0 46 0;
#X connect 5 0 3 0;
#X connect 6 0 3 0;
#X connect 7 0 8 0;
#X connect 8 0 10 0;
#X connect 9 0 17 0;
#X connect 9 1 16 0;
#X connect 9 1 18 0;
#X connect 10 0 3 0;
#X connect 12 0 8 0;
#X connect 13 0 14 0;
#X connect 13 1 12 1;
#X connect 14 0 12 0;
#X connect 14 1 7 0;
#X connect 15 0 0 0;
#X connect 17 0 11 0;
#X connect 18 0 13 0;
#X connect 19 0 18 1;
#X connect 20 0 18 2;
#X connect 21 0 18 4;
#X connect 22 0 18 5;
#X connect 29 0 33 0;
#X connect 30 0 34 0;
#X connect 31 0 33 0;
#X connect 32 0 28 0;
#X connect 33 0 23 0;
#X connect 33 1 24 0;
#X connect 33 2 25 0;
#X connect 33 3 26 0;
#X connect 33 4 27 0;
#X connect 33 5 32 0;
#X connect 34 0 31 0;
#X connect 35 0 37 0;
#X connect 36 0 35 0;
#X connect 37 0 38 0;
#X connect 38 0 41 0;
#X connect 38 1 40 0;
#X connect 41 0 39 0;
#X connect 43 0 18 0;
#X connect 44 0 18 3;
#X connect 45 0 18 6;
#X connect 46 0 3 0;
