#N canvas 69 25 1066 676 12;
#X obj 429 176 route 1 2 3 4 5;
#X obj 171 575 t a;
#X msg 44 525 1 \$1;
#X msg 108 525 2 \$1;
#X msg 171 525 3 \$1;
#X msg 230 525 4 \$1;
#X msg 293 525 5 \$1;
#X obj 543 176 unpack f f f f f;
#X obj 664 176 unpack f f f f f;
#X obj 350 382 t f f;
#X obj 44 501 f;
#X obj 414 382 t f f;
#X obj 108 501 f;
#X obj 477 382 t f f;
#X obj 171 501 f;
#X obj 540 382 t f f;
#X obj 230 501 f;
#X obj 605 382 t f f;
#X obj 293 501 f;
#X obj 221 20 inlet;
#X obj 171 611 outlet;
#X obj 134 331 t b b b b b;
#X obj 292 70 t b;
#X msg 292 94 0;
#X obj 429 151 spigot;
#X obj 221 70 t b b;
#X msg 253 94 1;
#X obj 350 611 s fc50-osc-page\$1-switch1;
#X obj 414 582 s fc50-osc-page\$1-switch2;
#X obj 477 554 s fc50-osc-page\$1-switch3;
#X obj 540 525 s fc50-osc-page\$1-switch4;
#X obj 605 495 s fc50-osc-page\$1-switch5;
#X obj 350 265 fc50-osc-switch-behaviour \$1 1;
#X obj 414 289 fc50-osc-switch-behaviour \$1 2;
#X obj 477 312 fc50-osc-switch-behaviour \$1 3;
#X obj 540 335 fc50-osc-switch-behaviour \$1 4;
#X obj 605 358 fc50-osc-switch-behaviour \$1 5;
#X obj 221 45 route enter leave togglemodes mutexgroups filterzeros
;
#X obj 784 176 unpack f f f f f;
#X connect 0 0 32 0;
#X connect 0 1 33 0;
#X connect 0 2 34 0;
#X connect 0 3 35 0;
#X connect 0 4 36 0;
#X connect 1 0 20 0;
#X connect 2 0 1 0;
#X connect 3 0 1 0;
#X connect 4 0 1 0;
#X connect 5 0 1 0;
#X connect 6 0 1 0;
#X connect 7 0 32 1;
#X connect 7 1 33 1;
#X connect 7 2 34 1;
#X connect 7 3 35 1;
#X connect 7 4 36 1;
#X connect 8 0 32 2;
#X connect 8 1 33 2;
#X connect 8 2 34 2;
#X connect 8 3 35 2;
#X connect 8 4 36 2;
#X connect 9 0 27 0;
#X connect 9 1 10 0;
#X connect 10 0 2 0;
#X connect 11 0 28 0;
#X connect 11 1 12 0;
#X connect 12 0 3 0;
#X connect 13 0 29 0;
#X connect 13 1 14 0;
#X connect 14 0 4 0;
#X connect 15 0 30 0;
#X connect 15 1 16 0;
#X connect 16 0 5 0;
#X connect 17 0 31 0;
#X connect 17 1 18 0;
#X connect 18 0 6 0;
#X connect 19 0 37 0;
#X connect 21 0 10 0;
#X connect 21 1 12 0;
#X connect 21 2 14 0;
#X connect 21 3 16 0;
#X connect 21 4 18 0;
#X connect 22 0 23 0;
#X connect 23 0 24 1;
#X connect 23 0 32 0;
#X connect 23 0 33 0;
#X connect 23 0 34 0;
#X connect 23 0 35 0;
#X connect 23 0 36 0;
#X connect 24 0 0 0;
#X connect 25 0 21 0;
#X connect 25 1 26 0;
#X connect 26 0 24 1;
#X connect 32 0 9 0;
#X connect 33 0 11 0;
#X connect 34 0 13 0;
#X connect 35 0 15 0;
#X connect 36 0 17 0;
#X connect 37 0 25 0;
#X connect 37 1 22 0;
#X connect 37 2 7 0;
#X connect 37 3 8 0;
#X connect 37 4 38 0;
#X connect 37 5 24 0;
#X connect 38 0 32 3;
#X connect 38 1 33 3;
#X connect 38 2 34 3;
#X connect 38 3 35 3;
#X connect 38 4 36 3;
