#N canvas 491 124 712 619 12;
#X obj 49 546 outlet;
#X obj 133 192 sel 1;
#X obj 163 274 == 0;
#X obj 133 234 spigot 1;
#X obj 133 300 t f b f b;
#X obj 173 380 sel 1;
#X msg 193 351 0;
#X msg 153 351 1;
#X obj 245 278 t f;
#X obj 49 36 inlet switch-input;
#X msg 214 184 0;
#X obj 133 274 f 1;
#X obj 49 63 t f f;
#X obj 49 160 spigot 1;
#X obj 133 160 spigot 0;
#X obj 186 63 t f f;
#X obj 102 132 == 0;
#X obj 186 36 inlet mode;
#X obj 214 160 sel \$2;
#X obj 342 469 f \$2;
#X obj 49 186 t f f;
#X obj 81 210 sel 1;
#X msg 81 233 1;
#X obj 280 35 inlet fc50-osc-switch-mutex-group;
#X obj 214 132 r \$1-fc50-osc-switch-mutex;
#X obj 342 496 s \$1-fc50-osc-switch-mutex;
#X obj 87 414 sel 0;
#X msg 114 452 0;
#X obj 114 474 spigot 1;
#X obj 380 297 loadbang;
#X obj 401 337 f \$3;
#X obj 365 337 == 0;
#X obj 522 35 inlet filter-zeros;
#X obj 253 474 spigot 1;
#X connect 1 0 3 0;
#X connect 2 0 11 1;
#X connect 3 0 11 0;
#X connect 4 0 26 0;
#X connect 4 1 7 0;
#X connect 4 2 5 0;
#X connect 4 3 6 0;
#X connect 5 0 19 0;
#X connect 6 0 8 0;
#X connect 7 0 8 0;
#X connect 8 0 3 1;
#X connect 9 0 12 0;
#X connect 10 0 3 0;
#X connect 10 0 33 0;
#X connect 11 0 2 0;
#X connect 11 0 4 0;
#X connect 12 0 13 0;
#X connect 12 1 14 0;
#X connect 13 0 20 0;
#X connect 14 0 1 0;
#X connect 15 0 16 0;
#X connect 15 1 14 1;
#X connect 16 0 13 1;
#X connect 17 0 15 0;
#X connect 18 0 10 0;
#X connect 19 0 25 0;
#X connect 20 0 0 0;
#X connect 20 1 21 0;
#X connect 21 0 22 0;
#X connect 22 0 11 1;
#X connect 23 0 18 1;
#X connect 23 0 19 1;
#X connect 24 0 18 0;
#X connect 26 0 27 0;
#X connect 26 1 0 0;
#X connect 27 0 28 0;
#X connect 28 0 0 0;
#X connect 29 0 30 0;
#X connect 30 0 31 0;
#X connect 30 0 33 1;
#X connect 31 0 28 1;
#X connect 32 0 30 0;
#X connect 33 0 0 0;
