#N canvas 61 53 963 642 10;
#X obj 481 179 route 1 2 3 4 5;
#X obj 222 547 t a;
#X obj 401 370 t f f;
#X obj 465 370 t f f;
#X obj 528 370 t f f;
#X obj 591 370 t f f;
#X obj 655 370 t f f;
#X obj 272 8 inlet;
#X obj 304 603 outlet;
#X obj 80 387 t b b b b b;
#X obj 345 58 t b;
#X msg 345 82 0;
#X obj 481 154 spigot;
#X obj 272 58 t b b;
#X msg 299 82 1;
#X obj 609 579 s fc50-osc-page\$1-switch1;
#X obj 631 556 s fc50-osc-page\$1-switch2;
#X obj 654 533 s fc50-osc-page\$1-switch3;
#X obj 676 510 s fc50-osc-page\$1-switch4;
#X obj 710 487 s fc50-osc-page\$1-switch5;
#X obj 595 179 route 1 2 3 4 5;
#X obj 709 179 route 1 2 3 4 5;
#X obj 823 179 route 1 2 3 4 5;
#X obj 272 33 route enter leave togglemode mutexgroup filterzeros set
;
#X obj 304 582 spigot;
#X obj 299 109 t f f;
#X msg 685 91 \$1 set \$2;
#X obj 401 253 fc50-osc-switch-behaviour \$1 1 \$2;
#X obj 465 277 fc50-osc-switch-behaviour \$1 2 \$2;
#X obj 528 300 fc50-osc-switch-behaviour \$1 3 \$2;
#X obj 591 323 fc50-osc-switch-behaviour \$1 4 \$2;
#X obj 655 346 fc50-osc-switch-behaviour \$1 5 \$2;
#X msg 402 401 1 \$1;
#X msg 466 401 2 \$1;
#X msg 529 401 3 \$1;
#X msg 592 401 4 \$1;
#X msg 656 401 5 \$1;
#X obj 96 503 list;
#X obj 139 503 list;
#X obj 181 503 list;
#X obj 222 503 list;
#X obj 263 503 list;
#X obj 433 579 s fc50-osc-all-switches;
#X obj 433 556 list prepend \$1;
#X obj 96 473 t b l;
#X obj 139 473 t b l;
#X obj 181 473 t b l;
#X obj 222 473 t b l;
#X obj 263 473 t b l;
#X connect 0 0 27 0;
#X connect 0 1 28 0;
#X connect 0 2 29 0;
#X connect 0 3 30 0;
#X connect 0 4 31 0;
#X connect 1 0 24 0;
#X connect 2 0 15 0;
#X connect 2 1 32 0;
#X connect 3 0 16 0;
#X connect 3 1 33 0;
#X connect 4 0 17 0;
#X connect 4 1 34 0;
#X connect 5 0 18 0;
#X connect 5 1 35 0;
#X connect 6 0 19 0;
#X connect 6 1 36 0;
#X connect 7 0 23 0;
#X connect 9 0 37 0;
#X connect 9 1 38 0;
#X connect 9 2 39 0;
#X connect 9 3 40 0;
#X connect 9 4 41 0;
#X connect 10 0 11 0;
#X connect 11 0 25 0;
#X connect 11 0 27 0;
#X connect 11 0 28 0;
#X connect 11 0 29 0;
#X connect 11 0 30 0;
#X connect 11 0 31 0;
#X connect 12 0 0 0;
#X connect 13 0 9 0;
#X connect 13 1 14 0;
#X connect 14 0 25 0;
#X connect 20 0 27 1;
#X connect 20 1 28 1;
#X connect 20 2 29 1;
#X connect 20 3 30 1;
#X connect 20 4 31 1;
#X connect 21 0 27 2;
#X connect 21 1 28 2;
#X connect 21 2 29 2;
#X connect 21 3 30 2;
#X connect 21 4 31 2;
#X connect 22 0 27 3;
#X connect 22 1 28 3;
#X connect 22 2 29 3;
#X connect 22 3 30 3;
#X connect 22 4 31 3;
#X connect 23 0 13 0;
#X connect 23 1 10 0;
#X connect 23 2 20 0;
#X connect 23 3 21 0;
#X connect 23 4 22 0;
#X connect 23 5 26 0;
#X connect 23 6 12 0;
#X connect 24 0 8 0;
#X connect 25 0 24 1;
#X connect 25 1 12 1;
#X connect 26 0 0 0;
#X connect 27 0 2 0;
#X connect 28 0 3 0;
#X connect 29 0 4 0;
#X connect 30 0 5 0;
#X connect 31 0 6 0;
#X connect 32 0 43 0;
#X connect 32 0 44 0;
#X connect 33 0 43 0;
#X connect 33 0 45 0;
#X connect 34 0 43 0;
#X connect 34 0 46 0;
#X connect 35 0 43 0;
#X connect 35 0 47 0;
#X connect 36 0 43 0;
#X connect 36 0 48 0;
#X connect 37 0 1 0;
#X connect 38 0 1 0;
#X connect 39 0 1 0;
#X connect 40 0 1 0;
#X connect 41 0 1 0;
#X connect 43 0 42 0;
#X connect 44 0 37 0;
#X connect 44 1 37 1;
#X connect 45 0 38 0;
#X connect 45 1 38 1;
#X connect 46 0 39 0;
#X connect 46 1 39 1;
#X connect 47 0 40 0;
#X connect 47 1 40 1;
#X connect 48 0 41 0;
#X connect 48 1 41 1;
