#N canvas 791 137 588 357 10;
#X obj 30 30 cnv 15 227 147 empty empty Guitar\\\ sensors 4 12 0 18
#eaeaea #404040 0;
#X obj 30 54 cnv 20 227 20 empty empty ribbon 2 11 0 14 #dfdfdf #404040
0;
#X obj 33 75 hsl 222 20 0 1 0 0 usb-guitar-ribbon-position usb-guitar-ribbon-position-i
position 2 11 0 12 #fcfcfc #000000 #b8b8b8 0 0;
#X obj 33 95 hsl 222 20 0 1 0 0 usb-guitar-ribbon-pressure usb-guitar-ribbon-pressure-i
pressure 2 11 0 12 #fcfcfc #000000 #b8b8b8 0 0;
#X obj 33 157 hsl 222 20 0 1 0 0 usb-guitar-accel-azimuth usb-guitar-accel-azimuth-i
azimuth 2 11 0 12 #fcfcfc #000000 #b8b8b8 0 0;
#X obj 33 137 hsl 222 20 0 1 0 0 usb-guitar-accel-elevation usb-guitar-accel-elevation-i
elevation 2 11 0 12 #fcfcfc #000000 #b8b8b8 0 0;
#X obj 30 116 cnv 20 227 20 empty empty accelerometer 2 11 0 14 #dfdfdf
#404040 0;
#X obj 309 37 r usb-guitar-ribbon-position;
#X obj 328 60 r usb-guitar-ribbon-pressure;
#X obj 334 200 r usb-guitar-accel-azimuth;
#X obj 315 177 r usb-guitar-accel-elevation;
#X obj 300 122 s usb-guitar-ribbon-position-i;
#X obj 319 145 s usb-guitar-ribbon-pressure-i;
#X obj 301 262 s usb-guitar-accel-elevation-i;
#X obj 323 285 s usb-guitar-accel-azimuth-i;
#X msg 305 80 set \$1;
#X msg 325 100 set \$1;
#X msg 309 220 set \$1;
#X msg 331 240 set \$1;
#N canvas 165 25 775 803 guitar-sensors-in 0;
#X obj 141 206 list;
#X obj 106 101 t b b;
#X obj 166 145 list prepend;
#X obj 166 170 t l l;
#X obj 141 232 list split 1;
#X obj 105 448 list append;
#X obj 106 75 select 65;
#X obj 163 300 - 48;
#X obj 163 324 * 1000;
#X obj 213 300 - 48;
#X obj 263 300 - 48;
#X obj 313 300 - 48;
#X obj 263 324 * 10;
#X obj 213 324 * 100;
#X obj 276 360 +;
#X obj 236 389 +;
#X obj 196 420 +;
#X obj 187 258 unpack f f f f;
#X obj 93 330 - 48;
#X obj 106 47 comport 0 9600;
#X obj 105 474 route 0 1 2 3;
#X msg 238 474 xfactor \$1;
#X floatatom 238 452 5 0 0 0 - - - 0;
#X obj 65 602 spigot;
#X obj 159 604 t f f;
#X obj 127 535 t f f;
#X msg 47 87 open 5;
#N canvas 121 146 483 401 onepole 0;
#X obj 93 255 *;
#X obj 155 132 t f f;
#X obj 202 252 *;
#X obj 155 157 expr 1 - $f1;
#X obj 93 132 t f b;
#X obj 135 298 +;
#X obj 177 224 f;
#X obj 135 324 t f f;
#X obj 93 58 inlet;
#X obj 155 58 inlet;
#X obj 135 354 outlet;
#X obj 155 107 clip 0 1;
#X text 204 321 y(n) = a * x(n) + (1 - a) * y(n - 1);
#X text 204 302 this is a onepole filter :;
#X connect 0 0 5 0;
#X connect 1 0 3 0;
#X connect 1 1 2 1;
#X connect 2 0 5 1;
#X connect 3 0 0 1;
#X connect 4 0 0 0;
#X connect 4 1 6 0;
#X connect 5 0 7 0;
#X connect 6 0 2 0;
#X connect 7 0 10 0;
#X connect 7 1 6 1;
#X connect 8 0 4 0;
#X connect 9 0 11 0;
#X connect 11 0 1 0;
#X restore 65 628 pd onepole;
#X obj 86 652 loadbang;
#X obj 326 455 loadbang;
#X msg 325 478 15;
#X msg 85 675 0;
#N canvas 121 146 483 401 onepole 0;
#X obj 93 255 *;
#X obj 155 132 t f f;
#X obj 155 157 expr 1 - $f1;
#X obj 93 132 t f b;
#X obj 135 324 t f f;
#X obj 93 58 inlet;
#X obj 155 58 inlet;
#X obj 135 354 outlet;
#X obj 155 107 clip 0 1;
#X text 204 321 y(n) = a * x(n) + (1 - a) * y(n - 1);
#X text 204 302 this is a onepole filter :;
#X obj 202 252 *;
#X obj 135 298 +;
#X obj 177 224 f;
#X connect 0 0 12 0;
#X connect 1 0 2 0;
#X connect 1 1 11 1;
#X connect 2 0 0 1;
#X connect 3 0 0 0;
#X connect 3 1 13 0;
#X connect 4 0 7 0;
#X connect 4 1 13 1;
#X connect 5 0 3 0;
#X connect 6 0 8 0;
#X connect 8 0 1 0;
#X connect 11 0 12 1;
#X connect 12 0 4 0;
#X connect 13 0 11 0;
#X restore 159 628 pd onepole;
#X obj 159 580 jl/map 13 950 0 1 1 0.5;
#X obj 104 579 > 10;
#X obj 65 536 / 1024;
#X obj 191 535 / 1024;
#X obj 243 535 / 1024;
#X msg 32 61 close;
#X obj 65 731 s usb-guitar-ribbon-position;
#X obj 159 707 s usb-guitar-ribbon-pressure;
#X obj 208 683 s usb-guitar-accel-azimuth;
#X obj 287 658 s usb-guitar-accel-elevation;
#X obj 106 24 inlet;
#X obj 194 78 outlet;
#N canvas 121 146 483 401 onepole 0;
#X obj 93 255 *;
#X obj 155 132 t f f;
#X obj 155 157 expr 1 - $f1;
#X obj 93 132 t f b;
#X obj 135 324 t f f;
#X obj 93 58 inlet;
#X obj 155 58 inlet;
#X obj 135 354 outlet;
#X obj 155 107 clip 0 1;
#X text 204 321 y(n) = a * x(n) + (1 - a) * y(n - 1);
#X text 204 302 this is a onepole filter :;
#X obj 202 252 *;
#X obj 135 298 +;
#X obj 177 224 f;
#X connect 0 0 12 0;
#X connect 1 0 2 0;
#X connect 1 1 11 1;
#X connect 2 0 0 1;
#X connect 3 0 0 0;
#X connect 3 1 13 0;
#X connect 4 0 7 0;
#X connect 4 1 13 1;
#X connect 5 0 3 0;
#X connect 6 0 8 0;
#X connect 8 0 1 0;
#X connect 11 0 12 1;
#X connect 12 0 4 0;
#X connect 13 0 11 0;
#X restore 287 636 pd onepole;
#N canvas 121 146 483 401 onepole 0;
#X obj 93 255 *;
#X obj 155 132 t f f;
#X obj 155 157 expr 1 - $f1;
#X obj 93 132 t f b;
#X obj 135 324 t f f;
#X obj 93 58 inlet;
#X obj 155 58 inlet;
#X obj 135 354 outlet;
#X obj 155 107 clip 0 1;
#X text 204 321 y(n) = a * x(n) + (1 - a) * y(n - 1);
#X text 204 302 this is a onepole filter :;
#X obj 202 252 *;
#X obj 135 298 +;
#X obj 177 224 f;
#X connect 0 0 12 0;
#X connect 1 0 2 0;
#X connect 1 1 11 1;
#X connect 2 0 0 1;
#X connect 3 0 0 0;
#X connect 3 1 13 0;
#X connect 4 0 7 0;
#X connect 4 1 13 1;
#X connect 5 0 3 0;
#X connect 6 0 8 0;
#X connect 8 0 1 0;
#X connect 11 0 12 1;
#X connect 12 0 4 0;
#X connect 13 0 11 0;
#X restore 208 660 pd onepole;
#X obj 374 557 loadbang;
#X floatatom 374 597 5 0 0 0 - - - 0;
#X obj 226 604 jl/map 0 1 0.8 0 1;
#X obj 572 653 hradio 19 1 0 4 empty empty empty 0 -10 0 12 #fcfcfc
#000000 #000000 0;
#X text 565 630 none \, xyz \, yzx or zxy;
#X obj 655 653 loadbang;
#X msg 655 678 1;
#N canvas 72 52 695 604 compute-angles 0;
#X obj 107 51 inlet;
#X obj 107 122 clip -0.5 0.5;
#X obj 107 147 * 2;
#X obj 259 452 expr asin($f1)*2/3.14159;
#X obj 438 452 expr atan2($f1 \, $f2);
#X obj 233 51 inlet;
#X obj 233 122 clip -0.5 0.5;
#X obj 233 147 * 2;
#X obj 358 51 inlet;
#X obj 358 122 clip -0.5 0.5;
#X obj 358 147 * 2;
#X obj 205 212 pack f f f;
#X msg 294 349 \$1 \$2 \$3;
#X msg 365 349 \$2 \$3 \$1;
#X msg 435 349 \$3 \$1 \$2;
#X obj 344 282 list prepend;
#X obj 344 308 route 1 2 3;
#X obj 365 388 unpack f f f;
#X obj 520 51 inlet;
#X obj 259 504 outlet elevation;
#X obj 438 503 outlet azimuth;
#X connect 0 0 1 0;
#X connect 1 0 2 0;
#X connect 2 0 11 0;
#X connect 3 0 19 0;
#X connect 4 0 20 0;
#X connect 5 0 6 0;
#X connect 6 0 7 0;
#X connect 7 0 11 1;
#X connect 8 0 9 0;
#X connect 9 0 10 0;
#X connect 10 0 11 2;
#X connect 11 0 15 0;
#X connect 12 0 17 0;
#X connect 13 0 17 0;
#X connect 14 0 17 0;
#X connect 15 0 16 0;
#X connect 16 0 12 0;
#X connect 16 1 13 0;
#X connect 16 2 14 0;
#X connect 17 0 3 0;
#X connect 17 1 4 0;
#X connect 17 2 4 1;
#X connect 18 0 15 1;
#X restore 470 691 pd compute-angles;
#X msg 374 577 0.85;
#X obj 549 385 expr asin($f1)*2/3.14159;
#X obj 549 364 jl/map 0 1023 -1 1;
#X obj 549 406 jl/map -0.85 0.85 0 1;
#X obj 549 427 clip 0 1;
#X obj 549 518 s usb-guitar-accel-elevation;
#N canvas 121 146 483 401 onepole 0;
#X obj 93 255 *;
#X obj 155 132 t f f;
#X obj 155 157 expr 1 - $f1;
#X obj 93 132 t f b;
#X obj 135 324 t f f;
#X obj 93 58 inlet;
#X obj 155 58 inlet;
#X obj 135 354 outlet;
#X obj 155 107 clip 0 1;
#X text 204 321 y(n) = a * x(n) + (1 - a) * y(n - 1);
#X text 204 302 this is a onepole filter :;
#X obj 202 252 *;
#X obj 135 298 +;
#X obj 177 224 f;
#X connect 0 0 12 0;
#X connect 1 0 2 0;
#X connect 1 1 11 1;
#X connect 2 0 0 1;
#X connect 3 0 0 0;
#X connect 3 1 13 0;
#X connect 4 0 7 0;
#X connect 4 1 13 1;
#X connect 5 0 3 0;
#X connect 6 0 8 0;
#X connect 8 0 1 0;
#X connect 11 0 12 1;
#X connect 12 0 4 0;
#X connect 13 0 11 0;
#X restore 549 496 pd onepole;
#X obj 606 427 loadbang;
#X floatatom 606 467 5 0 0 0 - - - 0;
#X msg 606 447 0.85;
#X connect 0 0 4 0;
#X connect 1 0 0 0;
#X connect 1 1 2 1;
#X connect 2 0 3 0;
#X connect 3 0 0 1;
#X connect 3 1 2 1;
#X connect 4 0 18 0;
#X connect 4 1 17 0;
#X connect 5 0 20 0;
#X connect 6 0 1 0;
#X connect 6 1 2 0;
#X connect 7 0 8 0;
#X connect 8 0 16 0;
#X connect 9 0 13 0;
#X connect 10 0 12 0;
#X connect 11 0 14 1;
#X connect 12 0 14 0;
#X connect 13 0 15 0;
#X connect 14 0 15 1;
#X connect 15 0 16 1;
#X connect 16 0 5 1;
#X connect 17 0 7 0;
#X connect 17 1 9 0;
#X connect 17 2 10 0;
#X connect 17 3 11 0;
#X connect 18 0 5 0;
#X connect 19 0 6 0;
#X connect 19 1 44 0;
#X connect 20 0 35 0;
#X connect 20 1 25 0;
#X connect 20 2 36 0;
#X connect 20 3 37 0;
#X connect 22 0 21 0;
#X connect 23 0 27 0;
#X connect 24 0 32 0;
#X connect 24 1 49 0;
#X connect 25 0 34 0;
#X connect 25 1 33 0;
#X connect 26 0 19 0;
#X connect 27 0 39 0;
#X connect 28 0 31 0;
#X connect 29 0 30 0;
#X connect 30 0 34 1;
#X connect 31 0 27 1;
#X connect 32 0 40 0;
#X connect 33 0 24 0;
#X connect 34 0 23 1;
#X connect 35 0 23 0;
#X connect 36 0 46 0;
#X connect 37 0 45 0;
#X connect 38 0 19 0;
#X connect 43 0 19 0;
#X connect 45 0 42 0;
#X connect 46 0 41 0;
#X connect 47 0 55 0;
#X connect 48 0 45 1;
#X connect 48 0 46 1;
#X connect 49 0 32 1;
#X connect 50 0 54 3;
#X connect 52 0 53 0;
#X connect 53 0 50 0;
#X connect 55 0 48 0;
#X connect 56 0 58 0;
#X connect 57 0 56 0;
#X connect 58 0 59 0;
#X connect 59 0 61 0;
#X connect 61 0 60 0;
#X connect 62 0 64 0;
#X connect 63 0 61 1;
#X connect 64 0 63 0;
#X restore 83 269 pd guitar-sensors-in;
#X obj 42 202 inlet;
#X obj 83 289 outlet;
#X msg 83 222 open \$1;
#X msg 177 222 close;
#X msg 136 222 ports;
#X floatatom 83 203 5 0 0 0 - - - 0;
#X connect 7 0 15 0;
#X connect 8 0 16 0;
#X connect 9 0 18 0;
#X connect 10 0 17 0;
#X connect 15 0 11 0;
#X connect 16 0 12 0;
#X connect 17 0 13 0;
#X connect 18 0 14 0;
#X connect 19 0 21 0;
#X connect 20 0 19 0;
#X connect 22 0 19 0;
#X connect 23 0 19 0;
#X connect 24 0 19 0;
#X connect 25 0 22 0;
#X coords 0 -1 1 1 227 147 2 30 30;
